<?xml version="1.0" standalone="no"?>
<!DOCTYPE svg PUBLIC "-//W3C//DTD SVG 1.1//EN" "http://www.w3.org/Graphics/SVG/1.1/DTD/svg11.dtd" >
<svg xmlns="http://www.w3.org/2000/svg" xmlns:xlink="http://www.w3.org/1999/xlink" version="1.1">
<metadata>
Created by FontForge 20160407 at Tue Sep 20 22:32:21 2016
 By Jimmy Warting
Copyright (c) 2008 by francesco canovaro, jonathan calugi, studio kmzero. All rights reserved.
</metadata>
<defs>
<font id="ArsenaleWhite" horiz-adv-x="531" >
  <font-face 
    font-family="Arsenale White"
    font-weight="400"
    font-stretch="normal"
    units-per-em="2000"
    panose-1="2 0 5 6 0 0 0 2 0 2"
    ascent="1600"
    descent="-400"
    x-height="266"
    cap-height="555"
    bbox="-307 -1266 1355 1399"
    underline-thickness="50"
    underline-position="-100"
    unicode-range="U+0020-FB02"
  />
<missing-glyph horiz-adv-x="291" 
 />
    <glyph glyph-name=".notdef" horiz-adv-x="291" 
 />
    <glyph glyph-name="d" unicode="d" horiz-adv-x="522" 
d="M120 98q27 0 56.5 11t54 30t41 45.5t16.5 56.5l-8 27q-13 54 -28.5 80t-42.5 26q-20 0 -49 -21t-55.5 -52.5t-45 -69.5t-18.5 -71q7 -8 7 -14v-11t5 -7.5t23 -2.5q13 0 28.5 -9.5t15.5 -17.5zM542 124q-6 -24 -22 -48.5t-36.5 -45t-42 -33.5t-37.5 -13q-23 3 -44 14
t-37 26.5t-25.5 34.5t-9.5 39q-32 -33 -77.5 -56t-98.5 -23q-27 0 -52.5 11t-45.5 31t-32.5 48t-12.5 61q0 20 19 60t51.5 82.5t76 78t93.5 45.5q27 0 48 -12t41 -32q0 31 -2.5 75.5t-6.5 95.5t-8.5 104.5t-8.5 102.5t-6.5 89.5t-2.5 64.5v71q0 23 0.5 43t5 34.5t13 22.5
t25.5 8q20 -8 23.5 -18.5t3.5 -17.5q-8 -34 -9 -68t-1 -75v-27q0 -29 2.5 -70.5t7 -90.5t9 -102t9 -104t7 -96t2.5 -79v-35l-10 -123v-54q0 -29 3.5 -47.5t9 -29t12.5 -14t15 -3.5q6 0 16 2q33 8 49 23.5t23 33t8 35.5t4 33t11.5 24.5t30.5 9.5q11 0 15 -8.5t4 -21.5
q0 -10 -1.5 -19.5t-3.5 -17.5q-3 -10 -5 -19z" />
    <glyph glyph-name="a" unicode="a" 
d="M546 146q0 -9 -11 -27t-27 -36t-33 -31t-29 -13q-31 0 -55 18.5t-42.5 46t-32.5 60t-24.5 60t-18 46t-14.5 18.5l9 -71q0 -88 -27.5 -134t-87.5 -53q-34 0 -73 25t-78 73q-19 18 -31 36t-19 38t-9.5 43t-2.5 51q0 43 18.5 78t45 60t55.5 39.5t49 17.5h7q8 0 23.5 -2.5
t36 -12.5t45.5 -30t51 -54t53 -85.5t51 -124.5q14 -41 28 -61t33 -20q7 0 17.5 12.5t21 28.5t19.5 31.5t14 21.5q10 9 22 9q13 0 20.5 -10t7.5 -23q0 -7 -2.5 -13.5t-9.5 -11.5zM189 119q8 27 12.5 48t4.5 50q0 39 -4 77.5t-24 71.5q-7 13 -17 24q-8 9 -20 16.5t-27 8.5
q-23 -3 -43.5 -15.5t-35.5 -30.5t-24 -39.5t-9 -41.5q0 -44 20 -80t45.5 -61.5t50.5 -40t35 -14.5q13 0 20.5 6.5t15.5 20.5z" />
    <glyph glyph-name="r" unicode="r" horiz-adv-x="508" 
d="M529 144q-23 -33 -43.5 -52t-39 -29.5t-34.5 -13.5t-31 -3q-60 0 -92.5 43t-32.5 117v260q-13 -6 -26 -10q-12 -4 -26.5 -6.5t-30.5 -2.5q-24 0 -42.5 3t-30.5 7t-18 6.5l-6 2.5v-152q0 -63 -16 -106t-52 -69q-29 0 -39 9.5t-10 20.5q0 6 2 12t4 11q3 5 6 11l2 3
q7 8 14.5 17t13.5 21t9.5 28t3.5 38v217q13 -2 37.5 -5.5t50 -6.5t48.5 -5t35 -2q13 0 30 2.5t34 6.5q18 4 39 10q8 -1 17 -7t10 -19l14 -312q1 -22 2 -37.5t5 -25t12.5 -14t23.5 -4.5q16 0 37 16t41.5 35t38.5 35t29 16q16 0 21.5 -6.5t5.5 -15.5q0 -8 -2.5 -15t-5.5 -14
q-4 -8 -8 -15z" />
    <glyph glyph-name="e" unicode="e" horiz-adv-x="326" 
d="M88 433q-23 0 -38.5 -19.5t-25 -45t-13.5 -50t-4 -34.5q0 -35 7 -56.5t20 -41.5q17 16 31.5 40t25.5 50t17.5 51.5t6.5 45.5v17q-16 43 -27 43zM340 146q-24 -30 -65 -56t-90 -37h-35q-18 0 -39 3.5t-41 11.5q-32 22 -45 31.5t-17.5 13t-6 6.5t-11.5 13q-26 26 -35.5 60
t-9.5 73q0 37 10 77.5t28.5 74.5t45 56.5t59.5 22.5q10 0 26.5 -8.5t32 -25t27 -41.5t11.5 -58q-6 -54 -33 -112t-73 -119q13 -6 32 -11.5t39 -5.5h35q30 9 44.5 15.5t24 14.5t18 19t26.5 30q9 12 24 12q12 0 22 -7.5t10 -21.5t-14 -31z" />
    <glyph glyph-name="m" unicode="m" horiz-adv-x="1317" 
d="M1328 150q-18 -7 -39 -13t-40 -6q-39 0 -83 21t-85 68l-115 124q-40 48 -66.5 68t-40.5 20q-31 -29 -54.5 -75.5t-41.5 -99.5t-30.5 -107.5t-23 -98.5t-19.5 -71.5t-18 -27.5q-6 0 -17.5 27.5t-26.5 70t-33.5 94t-39 100t-43 88t-44.5 56.5q-4 -7 -22 -38t-42.5 -73.5
t-53.5 -90t-56.5 -87.5t-49.5 -66.5t-33 -26.5q-20 0 -23.5 12.5t-3.5 31.5q12 61 22 114q4 22 8 45.5t7.5 44t5.5 37.5t2 27q0 23 -2 38.5t-7.5 26.5t-14 18t-21.5 14l-115 -178q-4 -6 -10 -20.5l-12 -29t-12.5 -26t-11.5 -11.5q-1 0 -2 1q-15 -15 -27 -15q-10 0 -16.5 7.5
t-10.5 16.5q-4 11 -7 24q1 2 9.5 15.5t18.5 29.5t18.5 29t9.5 14l133 195q0 8 10 9t17 1q67 -14 95.5 -56.5t28.5 -102.5q0 -20 -5 -52.5t-13 -63.5q42 66 69.5 116t47 83t33 49.5t28.5 16.5q30 0 60.5 -29.5t58 -75t49.5 -100t36 -104.5l35 106q23 70 39.5 112.5t32 66.5
t32 34.5t39.5 16.5q31 -7 51.5 -15t37.5 -19.5t33 -28.5t37 -41.5t51 -57.5t74 -77q33 -26 61.5 -44t61.5 -18q27 0 54 19q15 -4 26 -8q10 -4 18 -10t8 -14q0 -7 -6 -14t-21 -16z" />
    <glyph glyph-name="c" unicode="c" horiz-adv-x="410" 
d="M433 159q-39 -60 -97.5 -100t-130.5 -40q-42 0 -85 15q-45 11 -81 36q-15 10 -30.5 24.5t-27.5 34t-20.5 44t-9.5 54.5q4 28 7.5 59.5t11 62t21 58.5t36.5 49.5t57.5 34t85.5 12.5q27 0 51 -11t42 -31t29 -48t11 -62q0 -13 -1 -30t-6 -32t-16 -25t-31 -10q-7 0 -11.5 5.5
t-8.5 12.5q-4 8 -7 19q0 3 3 10.5t6.5 16.5t6.5 18t3 15q0 20 -6 36.5t-16 28.5t-23 18.5t-26 6.5q-10 0 -34 -9t-49.5 -32t-45 -62t-19.5 -100q0 -72 43 -103.5t122 -40.5q66 0 112.5 25t78.5 67q12 15 29 15q12 0 21.5 -7.5t9.5 -18.5q0 -9 -5 -16z" />
    <glyph glyph-name="z" unicode="z" horiz-adv-x="515" 
d="M538 146q-20 -15 -40 -34.5t-45 -27.5q-34 0 -61 9t-49.5 23.5t-41.5 31.5t-35 34l-35 45q-66 -68 -81 -108l-17 -87q0 -14 -2.5 -20.5t-16.5 -6.5q-9 0 -17 2t-14 8.5t-9 19t-3 32.5t5 38.5t13 32.5l25 187q7 53 13 94t6 74q-7 6 -23.5 7t-30.5 1q8 -26 13.5 -54.5
t5.5 -69.5q0 -82 -23 -141.5t-65 -90.5q-6 -3 -12 -3q-11 0 -19.5 10t-8.5 21q0 12 8 19q24 20 40.5 64.5t16.5 120.5q0 33 -4 59t-9.5 47t-9.5 38t-4 34q7 7 14 8t13 1h63q16 0 33 -2t31.5 -7t23.5 -13.5t9 -21.5q0 -41 -6.5 -110.5t-20.5 -155.5l27 44l27 8q3 0 11.5 -4
t18.5 -11t21 -16.5t20 -20.5l44 -54q23 -29 46 -41.5t43 -12.5q16 2 34 12t38 41q6 7 16 7q13 0 24.5 -11t11.5 -25q0 -12 -12 -24z" />
    <glyph glyph-name="f" unicode="f" horiz-adv-x="426" 
d="M449 158q-16 -27 -44 -74t-62 -104.5t-70.5 -120t-69.5 -119t-59 -102t-39 -69.5q3 -27 6 -54.5t5 -55.5q4 -48 11.5 -104t7.5 -113q0 -21 -3 -51t-10 -57t-19.5 -46t-31.5 -19q-20 0 -42 18.5t-41.5 50t-32 74t-12.5 90.5q0 33 8 69.5t21 73.5t30.5 74t36.5 72
q-11 90 -23 178.5t-23 163t-19 127.5t-11 71q-9 59 -17 105t-15 85t-13 75.5t-10 77t-6 88t-2 108.5q0 25 1 56.5t5 64t13 64t25 56t40 39.5t58 15q36 0 58 -28t35 -67.5t19 -82t9 -71.5l1 -9q0 -56 -2.5 -107t-5.5 -91.5t-5.5 -68.5t-2.5 -38q-18 -107 -50 -175t-74 -110
q14 -109 32.5 -218.5t34.5 -222.5q20 31 46.5 78t56 100t61 108t62 102t59.5 82t53 49q3 1 7 1q10 0 14.5 -4t4.5 -17q0 -8 -6 -17zM82 396q9 48 11.5 123.5t2.5 166.5q0 60 -6 110.5t-20 81.5l-5 5q-8 7 -13.5 11t-12.5 4q-27 0 -42 -27t-22 -64t-8.5 -75.5t-1.5 -61.5
q0 -82 4 -138.5t10.5 -106t15 -99.5t18.5 -119q15 23 35.5 72.5t33.5 116.5zM13 -683q-2 -14 -3 -25t-1 -22q0 -33 11.5 -57t39.5 -56q4 14 5.5 36t1.5 50q0 44 -3.5 100.5t-10.5 119.5q-14 -35 -24.5 -71.5t-15.5 -74.5z" />
    <glyph glyph-name="g" unicode="g" horiz-adv-x="530" 
d="M555 171q-22 -24 -49 -59.5t-55 -74t-55.5 -76t-49.5 -64.5q8 -39 16.5 -79t15 -83.5t11 -92t4.5 -103.5q0 -14 -3.5 -44.5t-17 -61.5t-41.5 -55t-77 -25q-36 4 -60.5 19.5t-40.5 36t-24.5 44t-12.5 43t-4.5 33t-0.5 15.5q1 20 2 39.5t5.5 41.5t13.5 49t25.5 62t42.5 79
t64 102q-5 15 -10 35t-9 40.5t-8 40t-8 34.5l-2 6q-18 -14 -42 -22t-51 -13t-55 -6.5t-55 -1.5q-12 0 -25 2t-24 8t-18.5 18t-7.5 32q0 49 23 102t58 97.5t78 73t84 28.5q23 0 43 -12.5t35 -31.5t23.5 -42.5t8.5 -45.5q0 -42 -4 -68t-6 -44q4 -21 7.5 -46l7 -50t7.5 -48.5
t10 -42.5q21 28 47.5 62t54 67.5t53.5 65.5t47 57zM327 -451q0 48 -3.5 87.5t-9.5 74t-13.5 65.5t-14.5 61q-30 -49 -53 -99q-20 -43 -36 -92.5t-16 -92.5v-9l3 -21t11 -46t22 -46t36 -21q25 0 40 11t23 27t10.5 35t2.5 34q0 7 -0.5 12.5t-0.5 10.5q-1 5 -1 9zM244 255
q0 13 -6 28t-15.5 28.5t-22.5 22.5t-27 9q-20 0 -46.5 -23.5t-50 -57t-40 -70t-16.5 -61.5q0 -33 32 -33q51 1 87 7.5t59 23.5t34.5 47.5t11.5 78.5z" />
    <glyph glyph-name="k" unicode="k" horiz-adv-x="566" 
d="M74 -18v-6q0 -13 -9 -20t-20 -7q-13 0 -23 8t-10 25q-3 29 -8 51.5t-9.5 44t-7.5 45t-3 55.5q-8 82 -14.5 150t-6.5 132q1 36 3 87.5t9 108.5t20 112.5t35.5 100.5t56 72.5t80.5 27.5h8q31 -5 54.5 -21.5t38.5 -41.5t22.5 -56t7.5 -65v-19q-4 -62 -11.5 -113.5t-19.5 -96
t-29 -84.5t-40 -80q10 8 18 13t17 8t19.5 5t26.5 3q17 0 23 -6.5t6 -22.5q0 -44 -12.5 -83t-35 -71.5t-54 -56t-68.5 -35.5q18 -20 37 -45t40 -48.5t45 -42.5t51 -28l2 -1q8 -3 16 -5.5t16 -2.5l7 1q30 5 59 24t54 46.5t45 62t33 71.5q2 7 11 13t16 6q7 -1 13.5 -7t6.5 -17
q-7 -36 -23.5 -78.5t-46 -80.5t-73 -67t-104.5 -38h-7q-18 0 -40 11q-41 14 -66.5 37.5t-47 50.5t-44.5 55.5t-57 54.5q-22 18 -27.5 31t-9.5 18q2 -25 6 -46t8.5 -42t8.5 -44t7 -53zM243 786q0 22 -3.5 43t-12 37.5t-23 27.5t-36.5 13h-7q-25 0 -44.5 -19.5t-34 -51
t-24 -72t-16 -83t-10 -83.5t-5 -73t-2 -51.5t-0.5 -20.5q0 -47 3 -95t8 -102q51 48 89.5 108t64.5 128t39.5 142.5t13.5 151.5zM89 186q33 0 59.5 14t46.5 37t33 53.5t18 63.5q-29 -9 -49.5 -28.5t-39.5 -43.5t-38 -50t-45 -48q8 2 15 2z" />
    <glyph glyph-name="o" unicode="o" horiz-adv-x="483" 
d="M478 194q6 2 9 2q10 0 16.5 -9.5t6.5 -20.5q0 -16 -20 -26.5t-44.5 -17t-47 -9.5t-27.5 -3q-15 0 -34 3q-2 -4 -3 -8.5t-3 -9.5q-26 -68 -65.5 -99.5t-93.5 -31.5q-24 0 -51.5 6.5t-57.5 17.5q-52 20 -74 60.5t-22 87.5q0 49 14.5 89t38.5 67.5t54.5 42.5t62.5 15
q17 0 38 -3.5t40 -10.5t32.5 -16t15.5 -20q40 -20 58.5 -57t20.5 -77q7 -1 12.5 -1h10.5q13 0 24 2t23.5 5.5t28 9t37.5 12.5zM36 202q-13 -33 -13 -64q0 -35 16.5 -57t40 -35.5t49 -18.5t43.5 -5q34 0 58 21t44 72q2 6 2 11q-18 5 -46 13t-55 20.5t-46.5 30.5t-19.5 42
q0 13 5 22t12 18q-12 -6 -23.5 -8t-23 -7t-22.5 -17t-21 -38zM229 257q-13 5 -26 5q-16 0 -25.5 -6.5t-12.5 -14.5v-3q0 -9 15 -18.5t35 -17.5t40.5 -13.5t32.5 -8.5q-5 24 -19 45.5t-40 31.5z" />
    <glyph glyph-name="space" unicode=" " horiz-adv-x="534" 
 />
    <glyph glyph-name="l" unicode="l" horiz-adv-x="514" 
d="M-33 190q-17 48 -33.5 98.5t-31 102.5t-25 103.5t-13.5 100.5q0 46 3.5 111t16 132.5t37 129t66.5 101.5q10 9 22 9q11 0 20 -7.5t14 -21.5q22 -97 37.5 -215.5t15.5 -244.5q0 -103 -13 -203t-44 -192q18 -65 36.5 -113.5t41.5 -80.5t55 -47.5t77 -15.5q50 0 85.5 14
t60 36.5t39.5 49t25.5 52t17 45.5t13.5 29q9 12 23 12t22 -7t8 -26q0 -35 -19.5 -82.5t-55.5 -90t-87.5 -72t-115.5 -29.5q-51 1 -93.5 13t-78 46.5t-66.5 97.5t-60 165zM26 577q0 106 -11 205.5t-28 180.5q-18 -36 -29 -82t-17 -94.5t-8 -96.5t-2 -87q0 -76 20.5 -154
t46.5 -152q15 68 21.5 138.5t6.5 141.5z" />
    <glyph glyph-name="n" unicode="n" horiz-adv-x="905" 
d="M896 209q13 11 19 11q8 0 10.5 -9.5t2.5 -23.5q0 -49 -15 -84t-34.5 -57t-40 -32t-30.5 -10q-45 0 -74.5 18.5t-51.5 46t-39 60t-35.5 60t-42.5 46t-60 18.5q-27 0 -42 -17.5t-25.5 -43t-18 -56t-18 -56t-27.5 -43t-46 -17.5q-14 0 -24.5 11.5t-10.5 25.5l9 115
q0 80 -19 115.5t-52 35.5q-9 0 -33 -21t-55 -50t-62.5 -59.5t-55.5 -48.5q-3 -2 -7 -4q-8 -4 -16 -4t-20 9t-12 26q0 10 6 18q3 4 7 7q13 9 34.5 27t46.5 39t51 43t49 40t41 29.5t26 11.5q40 0 64 -14t37 -36.5t17.5 -51t4.5 -58.5q41 47 80.5 68t79.5 21q54 0 94.5 -23.5
t75.5 -84.5l52 -97q21 -21 30.5 -33t25.5 -12q4 0 17 15t28.5 36.5t31.5 46.5t27 46z" />
    <glyph glyph-name="s" unicode="s" horiz-adv-x="466" 
d="M180 18q47 0 70.5 20t37.5 61q-41 -14 -70.5 -34.5t-37.5 -46.5zM452 133q-20 -3 -45 -6t-57 -11q-29 -160 -160 -160q-14 0 -28 1t-34 7q-10 0 -15.5 4.5t-8 10.5t-3 12t-0.5 10q13 37 29 61.5t38.5 42.5t53 32.5t74.5 31.5l9 36q0 41 -6.5 81t-20.5 87
q-23 -29 -54.5 -58.5t-67 -59t-72.5 -60.5t-72 -63q-22 -15 -37 -15q-20 0 -20 25q0 13 6.5 27.5t19.5 25.5q29 26 62 57t65.5 61.5t63.5 59t56 50.5t43 35t25 13q13 0 25 -33t21.5 -78.5t15 -93t5.5 -77.5q17 8 30 10t23 2q12 0 19.5 -1.5t12.5 -1.5h3q19 -2 28 -11t9 -20
t-9 -21.5t-27 -12.5z" />
    <glyph glyph-name="b" unicode="b" horiz-adv-x="547" 
d="M-21 187q-17 49 -24 102l-14 304q1 40 10 81.5t26.5 76.5t43 59t58.5 29l13 1q38 0 64 -16t41.5 -42t22.5 -58t7 -65q0 -65 -16.5 -137.5t-42.5 -139t-58 -120.5t-62 -81q7 -27 21 -62.5t36.5 -68t55.5 -55t79 -22.5q11 1 26 5t28 14t22 28.5t9 48.5q0 15 -2 30t-4 26
q-3 13 -5 26q0 13 6.5 22.5t19.5 11.5q23 0 49.5 -10.5t57.5 -10.5q20 0 39.5 5.5t33.5 19.5q13 13 25 14q17 0 27 -4.5t12 -16.5q0 -20 -15 -36t-36 -26.5t-44 -16t-39 -5.5q-32 0 -63 12q5 -14 7.5 -28t2.5 -28q0 -28 -10 -54t-29 -46t-47.5 -32t-64.5 -12q-46 0 -81 14.5
t-61.5 38.5t-45.5 54t-33.5 60.5t-25 59.5t-20.5 50zM172 675q0 18 -4.5 38t-13.5 36t-23.5 26.5t-34.5 10.5q-30 0 -48 -23t-27 -54.5t-11.5 -64t-2.5 -51.5q0 -42 -0.5 -74.5t-0.5 -58.5v-54q0 -27 0.5 -44.5t3 -33.5t6.5 -34t11 -46l2 -6q7 6 29 39.5t45.5 87.5t43.5 126
t25 157v23z" />
    <glyph glyph-name="t" unicode="t" horiz-adv-x="366" 
d="M161 482h-168q2 -49 7 -99t14 -96.5t23.5 -87.5t36 -72t51.5 -48.5t70 -17.5q48 0 75.5 20.5t45 45t28 45t23.5 20.5t20.5 -14.5t7.5 -23.5q-6 -30 -21 -57t-37.5 -48t-51 -33t-61.5 -12q-27 0 -62 5.5t-70 19.5t-60 44.5t-43 84t-30.5 133t-23.5 192.5q-17 0 -33 1.5
t-28 5t-19.5 10.5t-7.5 18q8 20 18.5 23.5t17.5 3.5q1 -1 8 -1q11 0 20 2t18 2l-10 111q-4 18 -6.5 32t-2.5 25q0 19 11 27.5t42 8.5q8 0 12.5 -13.5t7.5 -37.5t4 -57t3 -71l1 -28h242q6 -6 10 -12q4 -5 7 -11.5t3 -13.5q0 -11 -12.5 -19.5t-47.5 -8.5q-6 0 -13.5 0.5
t-18.5 1.5z" />
    <glyph glyph-name="M" unicode="M" horiz-adv-x="971" 
d="M842 -2q-17 1 -30.5 20t-22.5 46t-14 58t-5 57l-17 98q-8 26 -10 52t-8 46q-18 -23 -30 -40t-22.5 -35.5t-21.5 -40.5t-27 -55t-38.5 -80t-55.5 -113q-7 -14 -15 -20.5t-21 -6.5q-14 7 -20.5 14.5t-6.5 21.5v79q0 60 -6.5 102.5t-20.5 75.5q-30 -44 -64 -101t-63.5 -110
t-49.5 -93t-22 -50q-7 2 -13.5 5.5t-12.5 8.5q-7 5 -13 12q0 33 6.5 65.5t15 63.5t15 59t6.5 51q0 20 -2 45.5t-7.5 47.5t-15.5 37t-25 15q-23 0 -43.5 -14.5t-39 -37t-34.5 -48t-30.5 -48t-27.5 -37.5t-25 -15q-5 1 -10.5 5.5t-10 10t-8 10.5t-3.5 7q0 3 0.5 6t0.5 8
l63 115q22 30 48.5 52t52 36t47.5 20.5t35 6.5q23 0 42.5 -24.5t33.5 -59.5t22 -73t8 -65q26 61 64 106.5t79 71.5q16 0 29.5 -19.5t22.5 -48.5t14 -63t5 -64q23 50 49 100.5t53.5 91t55.5 66t55 25.5q13 0 25 -25t22 -64t19 -85t16.5 -88.5t13 -75t10.5 -43.5q2 3 15.5 18
t29 32t29 31.5t15.5 17.5q13 13 26 13q10 0 16 -6.5t6 -15.5t-7 -19q-24 -40 -50 -72q-22 -27 -48 -50t-49 -24zM251 -77q1 -1 4 -1q0 -1 -1 -1l-2 -1q-1 0 -1 1v2z" />
    <glyph glyph-name="u" unicode="u" horiz-adv-x="560" 
d="M-24 244q0 4 8 8t19 7t21.5 5t15.5 2q8 0 8 -7q0 -39 -3 -69t-3 -58q0 -44 7 -66t33 -22q12 0 25.5 4t25 11.5t20.5 17.5t12 22q4 18 10.5 41t15 43t18.5 34t22 14q13 0 23 -9t12 -26q2 -25 4.5 -57.5t9.5 -62t20.5 -49.5t37.5 -20q15 0 29.5 7t25.5 15q8 6 29 26
t44 44.5t42 47.5t22 34q3 13 17 17t25 4q28 0 28 -36q0 -15 -22.5 -44.5t-54 -60.5t-66 -58.5t-58.5 -39.5q-17 -8 -34 -13.5t-34 -5.5q-15 0 -32 5.5t-34 18t-31.5 33t-23.5 51.5q-9 -15 -23.5 -26.5t-32.5 -19.5t-38 -12.5t-39 -4.5q-60 0 -83 34.5t-23 98.5q0 51 2 78
t3 44z" />
    <glyph glyph-name="p" unicode="p" horiz-adv-x="782" 
d="M-43 175q64 51 97 110t35 135v14q0 5 1 8.5t3 7.5l1 3q4 6 5 7l7 5q4 2 10 4l11 1l10 -3q1 -2 3 -2.5t4 -2.5l6 -7q6 -8 7 -14l1 -7v-90q23 24 47.5 46.5t49 40.5t48 28.5t45.5 10.5q19 0 35.5 -9t30.5 -31q14 -20 31 -51.5t36 -67t38.5 -71.5t37.5 -65t34.5 -47
t29.5 -18q7 0 23 2.5t35 10t38.5 22t33.5 37.5q9 9 17.5 12.5t16.5 3.5q11 0 22.5 -8.5t11.5 -22.5q0 -6 -4 -13q-23 -37 -49.5 -58t-54 -32t-54.5 -14t-52 -3q-23 0 -46.5 18.5t-47 48.5t-46 67.5t-43 75t-38 71t-30.5 56.5q-14 24 -33 24q-17 0 -37.5 -15.5t-42.5 -39
t-43.5 -52t-40.5 -53.5v-1068q-6 -20 -17.5 -30t-24.5 -10t-23.5 10t-10.5 30v1030q-5 -10 -17 -26t-26.5 -31.5t-30 -26.5t-27.5 -11q-14 0 -25 11t-11 25t13 24z" />
    <glyph glyph-name="q" unicode="q" horiz-adv-x="588" 
d="M384 175q15 -19 34.5 -27t41.5 -8q35 0 67 16l34 35q13 13 27 13q13 0 22 -10t9 -24q0 -12 -7 -22l-42 -42q-53 -29 -115 -29q-20 0 -39.5 3.5t-37.5 11.5q2 -89 4.5 -171.5t4.5 -168.5t3.5 -178.5t1.5 -200.5v-153q0 -17 -10.5 -24.5t-23.5 -7.5t-23 7.5t-10 24.5v153
q0 102 -1.5 189.5t-3.5 168.5t-4.5 159t-4.5 160l-3 -3q-6 -3 -26.5 -11t-60.5 -8q-39 0 -81 11t-77 32.5t-58 53.5t-26 74q13 38 25.5 76t30.5 70.5t44 56t67 33.5h6q6 1 11.5 1.5t11.5 0.5q78 0 135 -57q5 4 11.5 5.5t14.5 1.5h12q13 0 22.5 -5t9.5 -13q0 -2 -1 -5t-3 -6
v-90t1 -85q5 -5 7 -8zM305 236q0 28 -11.5 52.5t-29.5 43t-39.5 29t-41.5 10.5q-38 0 -60.5 -16.5t-37 -42t-23 -58t-17.5 -63.5q3 -26 16 -44.5t33.5 -30.5t45.5 -18t52 -6q12 0 24.5 1t25.5 4q29 28 46 64.5t17 74.5z" />
    <glyph glyph-name="v" unicode="v" horiz-adv-x="612" 
d="M-26 189q0 1 9.5 16.5t24.5 34t34 34t38 15.5q17 0 31.5 -11t25.5 -28t18.5 -37.5t9.5 -40.5q0 -29 -4.5 -45.5t-10 -30t-10 -27.5t-4.5 -39q0 -18 2 -38t9.5 -37t22 -28t38.5 -11q35 0 55 18t31.5 44t18 55t13.5 52q-27 21 -39.5 55.5t-12.5 72.5q0 18 2 37.5t6.5 36
t11 27.5t15.5 11q3 0 6.5 -1t7.5 -2q47 -20 63.5 -57t16.5 -83q0 -13 -0.5 -20t-0.5 -11v-7q4 0 29.5 4.5t57 12t60 15.5t38.5 16q5 2 12.5 3t16.5 1q14 0 26 -3.5t12 -13.5q0 -8 -11.5 -20.5t-40.5 -31.5l-15 -5q-26 -8 -49.5 -14.5t-46.5 -12.5t-47 -10t-52 -6l-11 -51
q-9 -30 -14 -47.5t-11 -31t-16.5 -27t-30.5 -35.5q-17 -18 -39.5 -26t-49.5 -8q-71 0 -110.5 43t-39.5 115q0 26 5 42t11 31t11 34.5t5 53.5l-3 43q0 8 -1 14t-7 6q-1 0 -3 -1.5t-9.5 -10.5t-22 -28t-41.5 -55q-13 -7 -24 -7q-13 0 -20.5 7.5t-7.5 19.5q0 13 11 29zM333 263
q0 -9 -4 -21.5t-2 -31.5l1 -13q1 -12 5.5 -22t9.5 -18q3 9 6.5 23t3.5 30q0 14 -4 27.5t-16 25.5z" />
    <glyph glyph-name="h" unicode="h" horiz-adv-x="701" 
d="M-18 133q-2 33 -3 65.5t-1 66.5q0 67 6 138t22 155q3 28 6 54.5t9 52t17.5 50t32.5 49.5q16 7 27 7t20 -7q48 -54 69 -113t21 -121q0 -53 -12.5 -105t-34.5 -103.5t-51 -102t-62 -100.5q2 -29 4 -44t3.5 -28t3 -30.5t2.5 -53.5q24 15 39.5 41.5t30 56t32.5 57t48 45.5
q21 11 42.5 22.5t43.5 11.5q23 0 36 -11.5t20.5 -28t12.5 -35.5t13 -34q7 -9 13.5 -19.5t14 -18.5t16.5 -13.5t20 -5.5q44 0 76.5 15t59 38.5t51.5 53t54 59.5q8 8 19 8q14 0 25 -11t11 -25q0 -11 -8 -19q-31 -30 -62 -64t-65 -63t-72 -48t-83 -19q-21 0 -40 9t-34.5 23.5
t-28.5 33t-23 38.5q-7 10 -8.5 21.5t-3 21.5t-6 17t-17.5 7q-31 0 -53 -18t-39 -45.5t-32 -59t-32 -59t-38.5 -45.5t-52.5 -18h-8q-11 -3 -17 -3q-20 0 -20 31q0 66 -2.5 124t-5.5 112zM96 686q-10 -16 -15.5 -32.5t-8.5 -34t-5 -37t-5 -42.5q-12 -70 -17 -130t-5 -117
q0 -18 0.5 -35.5t1.5 -34.5q45 75 75 151t30 150q0 43 -12 83.5t-39 78.5z" />
    <glyph glyph-name="w" unicode="w" horiz-adv-x="942" 
d="M-31 185q21 18 39.5 39t38 39t42 31t51.5 16q13 0 23 -9.5t10 -23.5q0 -37 -7.5 -69t-17 -61.5t-17 -58t-7.5 -59.5q0 -15 2.5 -33.5t9 -34t18.5 -26t30 -10.5q9 0 22 5q34 19 53 37.5t28.5 40.5t12 48t2.5 59v44q0 27 3 42.5t8 23t11 9.5t11 2q10 0 17 -7.5t12 -16.5
q5 -11 9 -24q4 -63 11.5 -113t21 -84.5t34 -53t51.5 -18.5q36 0 61 14t43 36t30 48.5t21 51.5q-24 15 -39.5 45t-24.5 65t-12.5 69.5t-3.5 58.5q0 14 3.5 30t11.5 29.5t22 22.5t34 9q35 0 56 -18t31.5 -45t13.5 -58t3 -58q0 -55 -12 -104q47 3 100.5 18.5t95.5 47.5
q6 5 17 5q9 0 16 -4.5t7 -12.5q0 -6 -5 -13.5t-18 -15.5q-24 -24 -52.5 -39t-58.5 -23.5t-60.5 -12.5t-57.5 -7q-8 -23 -17.5 -46t-20.5 -49q-11 -25 -31 -45t-44.5 -34.5t-52.5 -22.5t-56 -8q-57 0 -96 34.5t-55 92.5q-8 -18 -21.5 -39t-31.5 -39t-39.5 -30.5t-46.5 -12.5
q-33 0 -59 14t-43.5 36.5t-27 51.5t-9.5 59q0 29 5 53t11 48t12 49.5t8 57.5q-15 -10 -30 -26.5t-29.5 -32t-27.5 -26.5t-23 -11q-11 0 -19 8t-8 22q0 12 8 23zM676 221q0 5 -0.5 24t-3 39.5t-8.5 36.5t-16 16q-11 0 -19 -15t-8 -24q0 -14 2.5 -35.5t7.5 -45.5t14 -46.5
t21 -37.5q5 22 7.5 43.5t2.5 44.5z" />
    <glyph glyph-name="y" unicode="y" horiz-adv-x="598" 
d="M38 152q-11 -19 -15 -33.5t-3 -29.5l2 -47q2 -21 12.5 -38.5t26 -30t34 -19.5t38.5 -7t41 8q33 31 54 64t33 69t17 75.5t5 84.5v23q0 12 10.5 20t21.5 8q3 0 4 -0.5t2 -0.5q9 -5 12.5 -7t5.5 -6.5t3 -13t5 -24.5q1 -60 5 -113.5t10 -104.5q44 54 96.5 95t131.5 70
q9 0 19 -1.5t10 -7.5v-5q0 -5 -1 -10t-4 -7q-70 -32 -126 -91.5t-115 -135.5q6 -52 10.5 -102t4.5 -104q0 -57 -5.5 -126t-19 -139t-37.5 -136t-61.5 -116.5t-89 -81.5t-121.5 -31q-33 0 -64 9.5t-55 30t-38.5 53t-14.5 77.5q0 64 24.5 127t63 123t87 118t95.5 112.5
t88 106.5t66 100l-4 32t-4 33q-11 -21 -27 -44.5t-37 -44t-46.5 -33.5t-56.5 -13q-30 0 -59.5 11t-53.5 30.5t-40.5 46t-20.5 57.5q0 15 0.5 43t5.5 55.5t15.5 48t31.5 20.5q11 0 20.5 -8.5t9.5 -22.5q0 -4 -0.5 -7.5t-1.5 -8.5zM204 -283q-74 -92 -122 -161t-76.5 -119.5
t-40 -83.5t-11.5 -52q0 -39 7 -65t20 -42.5t29.5 -23.5t36.5 -7q30 0 63 14t61 35q54 42 84.5 108t45 142t17.5 153.5t3 141.5q0 26 -1.5 51.5t-3.5 51.5q-26 -34 -53.5 -69.5t-58.5 -73.5z" />
    <glyph glyph-name="j" unicode="j" horiz-adv-x="265" 
d="M37 321q0 -69 6.5 -131.5t16.5 -122.5q44 35 90.5 71t95.5 80q8 7 17 7q13 0 23.5 -13t10.5 -27q0 -9 -8 -20q-58 -49 -112 -89t-105 -78q19 -97 36.5 -189.5t17.5 -192.5q0 -51 -7 -106t-21 -115q-13 -44 -28 -78.5t-31.5 -66.5t-35 -65t-37.5 -72q-14 -27 -33.5 -42
t-45.5 -28q-12 -10 -20 -10t-14 5.5t-10 13.5q-36 54 -63.5 105.5t-47 102t-29.5 101.5t-10 105q0 101 27.5 184t71 150.5t98 121.5t108.5 97q-14 70 -23.5 144t-9.5 158q0 17 11 25t25 8q13 0 24.5 -8t11.5 -25zM-206 -372q-28 -88 -28 -171q0 -89 30 -170.5t82 -170.5
q7 5 12.5 13t13.5 19q16 37 34 68t34.5 61.5t31 62.5t24.5 71q15 59 20.5 111.5t5.5 103.5q0 81 -12.5 157t-27.5 154q-1 3 -1 5.5t-1 5.5q-36 -30 -68 -63t-59.5 -71.5t-50.5 -84.5t-40 -101zM56 509q-7 -6 -14 -11.5t-13 -5.5h-36q-14 0 -20.5 4.5t-6.5 31.5v27
q7 32 30 51t51 19q19 -20 27.5 -31t8.5 -31q0 -3 -3 -10.5t-7.5 -16t-9 -16t-7.5 -11.5z" />
    <glyph glyph-name="P" unicode="P" horiz-adv-x="521" 
d="M519 195q15 0 22.5 -8.5t8.5 -28.5q-8 -14 -22.5 -26t-31 -20.5t-34 -13.5t-31.5 -5q-36 0 -59 20t-40 50.5t-31.5 66t-32.5 66.5t-44 52t-66 22q-19 0 -37 -12q2 -64 8 -137t17 -135q6 -25 10.5 -54.5t4.5 -60.5v-197q8 -6 9.5 -11.5t1.5 -11.5q0 -16 -0.5 -32t-1.5 -33
l16 -237q3 -119 11 -232.5t18 -231.5l4 -49q0 -5 -1.5 -21.5t-3.5 -39t-5 -47.5t-6.5 -46t-7.5 -34.5t-8 -13.5q-19 0 -26 24q-1 3 -3 18.5t-4 37.5t-4 46.5t-3.5 46.5t-2.5 37t-1 18q0 9 11 16q-6 118 -15.5 235.5t-9.5 235.5v237q-3 39 -6 65t-5.5 45t-5 34.5t-4.5 34.5
t-3 43.5t-1 62.5l-25 222q0 10 -1 15t-1.5 9t-1.5 9t-1 14l-50 -92q-12 -12 -24 -12q-11 0 -19.5 8.5t-8.5 20.5q0 8 5 17.5t10 16.5q20 32 32 51.5t18 32t8.5 22.5t4 24.5t4 36.5t8.5 59q5 11 13.5 16t16.5 5q22 0 28 -25q17 7 38 7q42 0 73.5 -20.5t55.5 -52t42.5 -67.5
t35.5 -67.5t33.5 -52t36.5 -20.5q13 0 23.5 7.5t20 16t19 16t21.5 7.5z" />
    <glyph glyph-name="x" unicode="x" horiz-adv-x="617" 
d="M212 187q-55 -36 -55 -105q0 -20 9.5 -35.5t29.5 -18.5q26 0 34.5 14.5t8.5 35.5q0 29 -7.5 57t-19.5 52zM330 333q17 10 29.5 18t21.5 17.5t14.5 23.5t9.5 36q-37 -7 -52 -30t-23 -65zM-16 186q22 18 43.5 41.5t43 44t44 35t47.5 14.5q17 0 33.5 -8.5t32.5 -29.5l53 25
q0 31 7 62t21.5 56t35.5 40t49 15q19 0 32.5 -6t21.5 -15.5t12 -21t4 -21.5q0 -23 -12 -46.5t-30.5 -45t-40.5 -39.5t-41 -28l20 -90q8 -21 20.5 -32t24.5 -16t21 -6t10 -1q48 0 83.5 16.5t70.5 51.5q12 12 25 12q12 0 20.5 -8.5t8.5 -19.5q0 -12 -10 -22q-17 -18 -40 -34.5
t-48.5 -30t-53 -21.5t-54.5 -8q-33 0 -56.5 12.5t-39 32t-25 42.5t-14.5 44t-7.5 36t-4.5 19l-37 -21q17 -35 26 -72.5t9 -71.5q0 -48 -20 -78t-65 -30l-15 2q-43 5 -62.5 40t-19.5 83q0 57 25 100t58 63q-16 13 -35 13q-16 0 -31.5 -13.5t-32.5 -31.5t-36.5 -37t-43.5 -30
q-8 -2 -12 -2q-9 0 -16.5 4.5t-7.5 14.5q0 4 2.5 9.5t6.5 8.5z" />
    <glyph glyph-name="grave" unicode="`" horiz-adv-x="376" 
d="M34 681q1 6 14 6q5 0 10.5 -1t8.5 -2q11 -5 28 -19t38.5 -30t46 -28t50.5 -12h5q6 -1 15.5 -1.5t18.5 -3t15 -7.5t6 -14q0 -19 -13 -22.5t-33 -3.5q-24 0 -51.5 7t-45.5 13q-15 7 -35 19.5t-38.5 27.5t-31.5 31t-13 28q0 7 5 12z" />
    <glyph glyph-name="dotlessi" unicode="&#x131;" horiz-adv-x="291" 
d="M-31 269q-4 18 -6.5 32t-2.5 25q0 19 11 27.5t42 8.5q16 0 25 -22.5t16 -56.5t14 -73t17.5 -73t26.5 -56.5t43 -22.5q24 0 40.5 10t28 25t19.5 33t15.5 33t16.5 25t23 10q13 -13 15 -22t2 -22q-6 -30 -19.5 -57.5t-33.5 -48t-47 -33t-60 -12.5q-27 0 -52.5 7.5
t-45.5 27.5q-20 24 -35.5 63.5t-27.5 77.5q-14 45 -25 94z" />
    <glyph glyph-name="braceleft" unicode="{" horiz-adv-x="701" 
d="M460 1069q-14 8 -21 13.5t-12 9.5t-12.5 5.5t-22.5 1.5h-6q-30 0 -53 -6.5t-40.5 -17.5t-30 -25t-21.5 -29q-20 -34 -27 -78q0 -43 20 -82.5t44.5 -80t44.5 -85t20 -98.5q0 -41 -13.5 -75t-36.5 -63.5t-54 -54.5t-65 -47q67 -35 93.5 -103.5t26.5 -160.5q0 -53 -11 -100
t-23.5 -94.5t-23.5 -98t-11 -111.5q0 -46 8 -93t30 -87.5t60 -71t98 -43.5q46 0 71 7t41 19t29.5 27t36.5 32h21q14 0 20.5 -6.5t6.5 -14.5q0 -7 -2 -13q-2 -5 -5 -10.5t-8 -8.5q-29 -30 -52 -48t-43.5 -28.5t-40.5 -14t-43 -3.5q-14 0 -24.5 0.5t-18.5 1.5q-9 1 -16 3
q-73 22 -120 53t-74 70t-37.5 86t-10.5 102q0 69 13 128.5t28.5 114.5t28.5 109t13 112q0 40 -8 75.5t-25.5 62.5t-46 44.5t-70.5 21.5q-21 0 -30 7.5t-9 21.5q0 7 2.5 18.5t17.5 20.5q37 21 74 41t67 43.5t48.5 54t18.5 74.5q0 54 -20 98.5t-44.5 86t-44.5 83t-20 88.5
q0 52 22 91.5t58 66.5t82 41t95 14q22 0 34 -2t20.5 -7t18 -12.5t28.5 -17.5q7 -8 13 -14.5t6 -13.5q0 -15 -12 -27t-29 -12z" />
    <glyph glyph-name="eight" unicode="8" horiz-adv-x="476" 
d="M334 151q0 -14 -0.5 -27.5t-2.5 -27.5q-3 -21 -12.5 -52t-28 -59.5t-46 -48.5t-66.5 -20q-43 0 -70.5 20.5t-43.5 50t-22.5 62t-6.5 57.5q3 50 16 95.5t33 88.5t43.5 84.5t47.5 83.5q-26 51 -53 100.5t-48.5 96.5t-35.5 90.5t-14 84.5q0 39 14.5 65t37.5 42.5t52 25.5
t59 14q5 8 13.5 13t19.5 5q9 0 16 -4q69 -45 97 -97.5t28 -112.5q0 -38 -9.5 -77.5t-25.5 -80t-36.5 -81.5t-42.5 -82q36 -74 61.5 -149.5t25.5 -159.5zM90 820q0 -26 11.5 -61t29.5 -74t39.5 -80t41.5 -77q35 66 57.5 133t22.5 118q0 38 -15.5 71.5t-50.5 62.5
q-32 -5 -57 -11t-42.5 -16.5t-27 -26t-9.5 -39.5zM103 106q0 -25 5 -47t15 -39t23.5 -27t31.5 -10q22 0 38.5 15t27.5 40t16.5 55.5t5.5 62.5q0 59 -16.5 117.5t-41.5 115.5q-42 -78 -73.5 -149.5t-31.5 -133.5z" />
    <glyph glyph-name="nine" unicode="9" horiz-adv-x="548" 
d="M422 982q-3 -18 -9.5 -34l-13 -32t-11 -32t-4.5 -34q-22 -86 -37 -149t-24.5 -108.5t-15.5 -76.5t-9.5 -52t-5.5 -35t-4 -26q-20 -72 -33 -141.5t-20 -135.5q-2 -18 -2 -46t-1 -60.5t-3.5 -65.5t-9 -59.5t-18.5 -43t-31 -16.5q-14 0 -23.5 11t-9.5 25q0 9 4 17
q9 80 15.5 136.5t11 96.5t8 66.5t7 46t7 35.5t8 35.5t10.5 45t14 63.5q9 26 14 50.5t9.5 47.5t9.5 45.5t14 45.5q-28 -25 -58 -25q-23 0 -48 14.5t-45.5 38t-34 54t-13.5 63.5q0 36 12 70.5t32 62t47.5 44.5t57.5 17q26 0 54 -15.5t47 -50.5q8 31 19 63t17 64q2 11 10 15.5
t18 4.5q14 0 26.5 -8.5t12.5 -23.5q0 -5 -1 -8zM261 707q7 16 9.5 31.5t2.5 31.5q0 21 -5 40.5t-13 34t-19.5 23t-23.5 8.5q-10 0 -23 -11t-25 -29t-20 -41.5t-8 -47.5q0 -14 5.5 -29.5t14 -29t19.5 -22t22 -8.5q25 0 40.5 16t23.5 33z" />
    <glyph glyph-name="colon" unicode=":" horiz-adv-x="220" 
d="M58 -52q-8 0 -16.5 1t-16 6.5t-12 17t-4.5 32.5q7 32 27 45.5t48 13.5q22 -2 31 -18.5t9 -33.5q0 -14 -1.5 -25.5t-7.5 -20t-18.5 -13.5t-34.5 -5h-4zM58 298q-7 0 -15.5 0.5t-16.5 4t-13.5 11t-5.5 21.5q0 44 23.5 61.5t53.5 17.5q22 -2 31 -18.5t9 -33.5
q0 -14 -1.5 -25.5t-7.5 -20t-18.5 -13.5t-34.5 -5h-4z" />
    <glyph glyph-name="semicolon" unicode=";" horiz-adv-x="221" 
d="M45 -106q-1 1 -1 6q0 7 2 21t4 31t4 35t2 35q0 22 -4.5 35t-4.5 24q0 16 10.5 25.5t30.5 9.5q11 0 17 -8t8.5 -19t3 -23t0.5 -19q0 -12 -6 -38.5t-15 -54.5t-19.5 -49t-20.5 -21q-7 0 -11 10zM53 310q-6 0 -14 0.5t-15 3.5t-12 10t-5 19q0 39 21 55t48 16q20 -2 28 -17
t8 -30q0 -12 -1.5 -22.5t-7 -18t-17.5 -12t-33 -4.5z" />
    <glyph glyph-name="braceright" unicode="}" horiz-adv-x="833" 
d="M212 1060q-17 0 -29 12t-12 27q0 7 6 13.5t13 14.5q19 10 28.5 17.5t18 12.5t20 7t34.5 2q49 0 95 -14t82 -41t58 -66.5t22 -91.5q0 -47 -20 -88.5t-44.5 -83t-44.5 -86t-20 -98.5q0 -44 18.5 -74.5t48.5 -54.5t67 -43.5t74 -40.5q15 -8 17.5 -20t2.5 -19q0 -14 -9 -21.5
t-30 -7.5q-42 -4 -70.5 -21.5t-46 -44.5t-25.5 -62.5t-8 -75.5q0 -58 13 -112t28.5 -109t28.5 -114.5t13 -128.5q0 -55 -10 -98.5t-37 -78t-73.5 -62t-119.5 -49.5q1 -2 -25 -3.5t-64 -1.5q-18 0 -34.5 2t-34.5 9t-38 21t-44 39q-5 3 -8 8.5t-5 10.5q-2 6 -2 13
q0 8 6.5 14.5t20.5 6.5h21q23 -17 35 -26.5t26.5 -14.5t38 -6.5t69.5 -1.5q60 13 99.5 38t63 59t33 75t9.5 87q0 61 -11 111.5t-23.5 98t-23.5 94.5t-11 100q0 92 26.5 160.5t93.5 103.5q-35 22 -65.5 47t-53.5 54.5t-36.5 63.5t-13.5 75q0 54 20 98.5t44.5 85t44.5 80
t20 82.5q-7 44 -27 78q-9 15 -21.5 29t-30 25t-40.5 17.5t-53 6.5h-6q-15 0 -22.5 -1.5t-12.5 -5.5t-12 -9.5t-21 -13.5z" />
    <glyph glyph-name="acute" unicode="&#xb4;" horiz-adv-x="328" 
d="M285 681q5 -5 5 -12q0 -12 -13 -28t-31.5 -31t-38.5 -27.5t-35 -19.5q-18 -6 -45.5 -13t-51.5 -7q-20 0 -33 3.5t-13 22.5q0 9 6 14t15 7.5t18.5 3t15.5 1.5h5q25 0 49.5 12t46 28t39 30t28.5 19q3 1 8.5 2t10.5 1q12 0 14 -6z" />
    <glyph glyph-name="aacute" unicode="&#xe1;" 
d="M546 146q0 -9 -11 -27t-27 -36t-33 -31t-29 -13q-31 0 -55 18.5t-42.5 46t-32.5 60t-24.5 60t-18 46t-14.5 18.5l9 -71q0 -88 -27.5 -134t-87.5 -53q-34 0 -73 25t-78 73q-19 18 -31 36t-19 38t-9.5 43t-2.5 51q0 43 18.5 78t45 60t55.5 39.5t49 17.5h7q8 0 23.5 -2.5
t36 -12.5t45.5 -30t51 -54t53 -85.5t51 -124.5q14 -41 28 -61t33 -20q7 0 17.5 12.5t21 28.5t19.5 31.5t14 21.5q10 9 22 9q13 0 20.5 -10t7.5 -23q0 -7 -2.5 -13.5t-9.5 -11.5zM189 119q8 27 12.5 48t4.5 50q0 39 -4 77.5t-24 71.5q-7 13 -17 24q-8 9 -20 16.5t-27 8.5
q-23 -3 -43.5 -15.5t-35.5 -30.5t-24 -39.5t-9 -41.5q0 -44 20 -80t45.5 -61.5t50.5 -40t35 -14.5q13 0 20.5 6.5t15.5 20.5zM334.354 676.893q5.80469 -5.97949 5.80469 -14.3516q0 -14.3506 -15.0918 -33.4854q-15.0928 -19.1348 -36.5703 -37.0742
q-21.4775 -17.9385 -44.6963 -32.8877q-23.2197 -14.9492 -40.6338 -23.3203q-20.8965 -7.17578 -52.8232 -15.5469q-31.9258 -8.37109 -59.7891 -8.37109q-23.2188 0 -38.3105 4.18555q-15.0928 4.18555 -15.0928 26.9082q0 10.7627 6.96582 16.7422
q6.96582 5.98047 17.4141 8.96973q10.4482 2.99023 21.4775 3.58789t17.9951 1.79395h5.80469q29.0234 0 57.4668 14.3516q28.4434 14.3506 53.4033 33.4854q24.9609 19.1348 45.2773 35.8779q20.3164 16.7422 33.0869 22.7227q3.4834 1.19531 9.86816 2.3916
q6.38574 1.19629 12.1904 1.19629q13.9307 0 16.2529 -7.17578z" />
    <glyph glyph-name="agrave" unicode="&#xe0;" 
d="M546 146q0 -9 -11 -27t-27 -36t-33 -31t-29 -13q-31 0 -55 18.5t-42.5 46t-32.5 60t-24.5 60t-18 46t-14.5 18.5l9 -71q0 -88 -27.5 -134t-87.5 -53q-34 0 -73 25t-78 73q-19 18 -31 36t-19 38t-9.5 43t-2.5 51q0 43 18.5 78t45 60t55.5 39.5t49 17.5h7q8 0 23.5 -2.5
t36 -12.5t45.5 -30t51 -54t53 -85.5t51 -124.5q14 -41 28 -61t33 -20q7 0 17.5 12.5t21 28.5t19.5 31.5t14 21.5q10 9 22 9q13 0 20.5 -10t7.5 -23q0 -7 -2.5 -13.5t-9.5 -11.5zM189 119q8 27 12.5 48t4.5 50q0 39 -4 77.5t-24 71.5q-7 13 -17 24q-8 9 -20 16.5t-27 8.5
q-23 -3 -43.5 -15.5t-35.5 -30.5t-24 -39.5t-9 -41.5q0 -44 20 -80t45.5 -61.5t50.5 -40t35 -14.5q13 0 20.5 6.5t15.5 20.5zM-77 677q1 6 14 6q5 0 10.5 -1t8.5 -2q11 -5 28 -19t38.5 -30t46 -28t50.5 -12h5q6 -1 15.5 -1.5t18.5 -3t15 -7.5t6 -14q0 -19 -13 -22.5
t-33 -3.5q-24 0 -51.5 7t-45.5 13q-15 7 -35 19.5t-38.5 27.5t-31.5 31t-13 28q0 7 5 12z" />
    <glyph glyph-name="eacute" unicode="&#xe9;" horiz-adv-x="326" 
d="M88 433q-23 0 -38.5 -19.5t-25 -45t-13.5 -50t-4 -34.5q0 -35 7 -56.5t20 -41.5q17 16 31.5 40t25.5 50t17.5 51.5t6.5 45.5v17q-16 43 -27 43zM340 146q-24 -30 -65 -56t-90 -37h-35q-18 0 -39 3.5t-41 11.5q-32 22 -45 31.5t-17.5 13t-6 6.5t-11.5 13q-26 26 -35.5 60
t-9.5 73q0 37 10 77.5t28.5 74.5t45 56.5t59.5 22.5q10 0 26.5 -8.5t32 -25t27 -41.5t11.5 -58q-6 -54 -33 -112t-73 -119q13 -6 32 -11.5t39 -5.5h35q30 9 44.5 15.5t24 14.5t18 19t26.5 30q9 12 24 12q12 0 22 -7.5t10 -21.5t-14 -31zM232.806 643.04
q4.20215 -4.19727 4.20215 -10.0742q0 -10.0732 -10.9258 -23.5049t-26.4746 -26.0244q-15.5479 -12.5918 -32.3574 -23.085q-16.8086 -10.4941 -29.416 -16.3701q-15.1279 -5.03711 -38.2402 -10.9131q-23.1123 -5.87695 -43.2832 -5.87695q-16.8096 0 -27.7354 2.93848
t-10.9258 18.8887q0 7.55469 5.04297 11.7529q5.04297 4.19727 12.6064 6.2959q7.56445 2.09863 15.5488 2.51855q7.98438 0.418945 13.0273 1.25879h4.20215q21.0107 0 41.6025 10.0732q20.5908 10.0742 38.6602 23.5059q18.0703 13.4316 32.7783 25.1846t23.9521 15.9502
q2.52148 0.838867 7.14453 1.67871q4.62207 0.838867 8.82422 0.838867q10.0859 0 11.7666 -5.03613z" />
    <glyph glyph-name="egrave" unicode="&#xe8;" horiz-adv-x="326" 
d="M88 433q-23 0 -38.5 -19.5t-25 -45t-13.5 -50t-4 -34.5q0 -35 7 -56.5t20 -41.5q17 16 31.5 40t25.5 50t17.5 51.5t6.5 45.5v17q-16 43 -27 43zM340 146q-24 -30 -65 -56t-90 -37h-35q-18 0 -39 3.5t-41 11.5q-32 22 -45 31.5t-17.5 13t-6 6.5t-11.5 13q-26 26 -35.5 60
t-9.5 73q0 37 10 77.5t28.5 74.5t45 56.5t59.5 22.5q10 0 26.5 -8.5t32 -25t27 -41.5t11.5 -58q-6 -54 -33 -112t-73 -119q13 -6 32 -11.5t39 -5.5h35q30 9 44.5 15.5t24 14.5t18 19t26.5 30q9 12 24 12q12 0 22 -7.5t10 -21.5t-14 -31zM-54.958 654.984
q0.832031 5 11.6572 5q4.16406 0 8.74316 -0.833984q4.58008 -0.833008 7.07812 -1.66602q9.16016 -4.16699 23.3164 -15.833q14.1553 -11.667 32.0586 -25t38.3047 -23.333q20.4014 -9.99902 42.0508 -9.99902h4.16406q4.99609 -0.833984 12.9062 -1.25
q7.91113 -0.416992 15.4053 -2.5t12.4902 -6.25q4.99707 -4.16699 4.99707 -11.666q0 -15.833 -10.8252 -18.75t-27.4795 -2.91699q-19.9854 0 -42.8838 5.83398q-22.8994 5.83301 -37.8887 10.833q-12.4902 5.83301 -29.1445 16.249q-16.6543 10.417 -32.0586 22.916
q-15.4053 12.5 -26.2305 25.833t-10.8252 23.333q0 5.83301 4.16406 10z" />
    <glyph glyph-name="igrave" unicode="&#xec;" horiz-adv-x="258" 
d="M-224 609q1 6 14 6q5 0 10.5 -1t8.5 -2q11 -5 28 -19t38.5 -30t46 -28t50.5 -12h5q6 -1 15.5 -1.5t18.5 -3t15 -7.5t6 -14q0 -19 -13 -22.5t-33 -3.5q-24 0 -51.5 7t-45.5 13q-15 7 -35 19.5t-38.5 27.5t-31.5 31t-13 28q0 7 5 12zM-59 268q-4 18 -6.5 32t-2.5 25
q0 19 11 27.5t42 8.5q16 0 25 -22.5t16 -56.5t14 -73t17.5 -73t26.5 -56.5t43 -22.5q24 0 40.5 10t28 25t19.5 33t15.5 33t16.5 25t23 10q13 -13 15 -22t2 -22q-6 -30 -19.5 -57.5t-33.5 -48t-47 -33t-60 -12.5q-27 0 -52.5 7.5t-45.5 27.5q-20 24 -35.5 63.5t-27.5 77.5
q-14 45 -25 94z" />
    <glyph glyph-name="iacute" unicode="&#xed;" horiz-adv-x="262" 
d="M178 592q5 -5 5 -12q0 -12 -13 -28t-31.5 -31t-38.5 -27.5t-35 -19.5q-18 -6 -45.5 -13t-51.5 -7q-20 0 -33 3.5t-13 22.5q0 9 6 14t15 7.5t18.5 3t15.5 1.5h5q25 0 49.5 12t46 28t39 30t28.5 19q3 1 8.5 2t10.5 1q12 0 14 -6zM-59 268q-4 18 -6.5 32t-2.5 25
q0 19 11 27.5t42 8.5q16 0 25 -22.5t16 -56.5t14 -73t17.5 -73t26.5 -56.5t43 -22.5q24 0 40.5 10t28 25t19.5 33t15.5 33t16.5 25t23 10q13 -13 15 -22t2 -22q-6 -30 -19.5 -57.5t-33.5 -48t-47 -33t-60 -12.5q-27 0 -52.5 7.5t-45.5 27.5q-20 24 -35.5 63.5t-27.5 77.5
q-14 45 -25 94z" />
    <glyph glyph-name="ograve" unicode="&#xf2;" horiz-adv-x="483" 
d="M478 194q6 2 9 2q10 0 16.5 -9.5t6.5 -20.5q0 -16 -20 -26.5t-44.5 -17t-47 -9.5t-27.5 -3q-15 0 -34 3q-2 -4 -3 -8.5t-3 -9.5q-26 -68 -65.5 -99.5t-93.5 -31.5q-24 0 -51.5 6.5t-57.5 17.5q-52 20 -74 60.5t-22 87.5q0 49 14.5 89t38.5 67.5t54.5 42.5t62.5 15
q17 0 38 -3.5t40 -10.5t32.5 -16t15.5 -20q40 -20 58.5 -57t20.5 -77q7 -1 12.5 -1h10.5q13 0 24 2t23.5 5.5t28 9t37.5 12.5zM36 202q-13 -33 -13 -64q0 -35 16.5 -57t40 -35.5t49 -18.5t43.5 -5q34 0 58 21t44 72q2 6 2 11q-18 5 -46 13t-55 20.5t-46.5 30.5t-19.5 42
q0 13 5 22t12 18q-12 -6 -23.5 -8t-23 -7t-22.5 -17t-21 -38zM229 257q-13 5 -26 5q-16 0 -25.5 -6.5t-12.5 -14.5v-3q0 -9 15 -18.5t35 -17.5t40.5 -13.5t32.5 -8.5q-5 24 -19 45.5t-40 31.5zM-2.61523 577.92q0.87207 5.22266 12.2031 5.22266
q4.35742 0 9.15137 -0.871094q4.79395 -0.870117 7.4082 -1.74023q9.58691 -4.35156 24.4043 -16.5371t33.5557 -26.1113q18.7393 -13.9258 40.0928 -24.3691q21.3545 -10.4453 44.0146 -10.4453h4.3584q5.22949 -0.870117 13.5098 -1.30469
q8.28027 -0.435547 16.124 -2.61133t13.0742 -6.52734q5.22852 -4.35254 5.22852 -12.1855q0 -16.5371 -11.3301 -19.583t-28.7617 -3.0459q-20.918 0 -44.8867 6.0918q-23.9688 6.09277 -39.6572 11.3145q-13.0732 6.09277 -30.5049 16.9727
q-17.4316 10.8789 -33.5566 23.9346q-16.124 13.0557 -27.4551 26.9814q-11.3301 13.9258 -11.3301 24.3701q0 6.09277 4.35742 10.4443z" />
    <glyph glyph-name="oacute" unicode="&#xf3;" horiz-adv-x="483" 
d="M478 194q6 2 9 2q10 0 16.5 -9.5t6.5 -20.5q0 -16 -20 -26.5t-44.5 -17t-47 -9.5t-27.5 -3q-15 0 -34 3q-2 -4 -3 -8.5t-3 -9.5q-26 -68 -65.5 -99.5t-93.5 -31.5q-24 0 -51.5 6.5t-57.5 17.5q-52 20 -74 60.5t-22 87.5q0 49 14.5 89t38.5 67.5t54.5 42.5t62.5 15
q17 0 38 -3.5t40 -10.5t32.5 -16t15.5 -20q40 -20 58.5 -57t20.5 -77q7 -1 12.5 -1h10.5q13 0 24 2t23.5 5.5t28 9t37.5 12.5zM36 202q-13 -33 -13 -64q0 -35 16.5 -57t40 -35.5t49 -18.5t43.5 -5q34 0 58 21t44 72q2 6 2 11q-18 5 -46 13t-55 20.5t-46.5 30.5t-19.5 42
q0 13 5 22t12 18q-12 -6 -23.5 -8t-23 -7t-22.5 -17t-21 -38zM229 257q-13 5 -26 5q-16 0 -25.5 -6.5t-12.5 -14.5v-3q0 -9 15 -18.5t35 -17.5t40.5 -13.5t32.5 -8.5q-5 24 -19 45.5t-40 31.5zM325.878 596.624q4.51367 -4.50586 4.51367 -10.8145
q0 -10.8154 -11.7354 -25.2354q-11.7344 -14.4199 -28.4346 -27.9385t-34.7549 -24.7842q-18.0537 -11.2656 -31.5947 -17.5742q-16.249 -5.40723 -41.0732 -11.7158q-24.8242 -6.30957 -46.4893 -6.30957q-18.0547 0 -29.79 3.15527q-11.7354 3.1543 -11.7354 20.2773
q0 8.11133 5.41699 12.6182q5.41602 4.50586 13.54 6.75879q8.125 2.25293 16.7002 2.7041q8.57617 0.450195 13.9922 1.35156h4.51367q22.5674 0 44.6836 10.8145q22.1172 10.8154 41.5254 25.2354t35.2051 27.0371q15.7979 12.6182 25.7275 17.124
q2.70801 0.901367 7.67285 1.80273q4.96484 0.900391 9.47852 0.900391q10.833 0 12.6377 -5.40723z" />
    <glyph glyph-name="dieresis" unicode="&#xa8;" horiz-adv-x="269" 
d="M47 543q-5 0 -12 0.5t-13 3t-10.5 8.5t-4.5 17q0 33 18 47.5t42 14.5q17 -2 24.5 -15t7.5 -26q0 -11 -1 -20t-6.5 -15.5t-16 -10.5t-28.5 -4zM197 546q-5 0 -12 0.5t-13 3t-10.5 8.5t-4.5 17q0 33 18 47.5t42 14.5q17 -2 24.5 -15t7.5 -26q0 -11 -1 -20t-6.5 -15.5
t-16 -10.5t-28.5 -4z" />
    <glyph glyph-name="dotaccent" unicode="&#x2d9;" horiz-adv-x="138" 
d="M55 543q-5 0 -12 0.5t-13 3t-10.5 8.5t-4.5 17q0 33 18 47.5t42 14.5q17 -2 24.5 -15t7.5 -26q0 -11 -1 -20t-6.5 -15.5t-16 -10.5t-28.5 -4z" />
    <glyph glyph-name="edieresis" unicode="&#xeb;" horiz-adv-x="326" 
d="M88 433q-23 0 -38.5 -19.5t-25 -45t-13.5 -50t-4 -34.5q0 -35 7 -56.5t20 -41.5q17 16 31.5 40t25.5 50t17.5 51.5t6.5 45.5v17q-16 43 -27 43zM340 146q-24 -30 -65 -56t-90 -37h-35q-18 0 -39 3.5t-41 11.5q-32 22 -45 31.5t-17.5 13t-6 6.5t-11.5 13q-26 26 -35.5 60
t-9.5 73q0 37 10 77.5t28.5 74.5t45 56.5t59.5 22.5q10 0 26.5 -8.5t32 -25t27 -41.5t11.5 -58q-6 -54 -33 -112t-73 -119q13 -6 32 -11.5t39 -5.5h35q30 9 44.5 15.5t24 14.5t18 19t26.5 30q9 12 24 12q12 0 22 -7.5t10 -21.5t-14 -31zM-9 543q-5 0 -12 0.5t-13 3
t-10.5 8.5t-4.5 17q0 33 18 47.5t42 14.5q17 -2 24.5 -15t7.5 -26q0 -11 -1 -20t-6.5 -15.5t-16 -10.5t-28.5 -4zM141 546q-5 0 -12 0.5t-13 3t-10.5 8.5t-4.5 17q0 33 18 47.5t42 14.5q17 -2 24.5 -15t7.5 -26q0 -11 -1 -20t-6.5 -15.5t-16 -10.5t-28.5 -4z" />
    <glyph glyph-name="adieresis" unicode="&#xe4;" 
d="M546 146q0 -9 -11 -27t-27 -36t-33 -31t-29 -13q-31 0 -55 18.5t-42.5 46t-32.5 60t-24.5 60t-18 46t-14.5 18.5l9 -71q0 -88 -27.5 -134t-87.5 -53q-34 0 -73 25t-78 73q-19 18 -31 36t-19 38t-9.5 43t-2.5 51q0 43 18.5 78t45 60t55.5 39.5t49 17.5h7q8 0 23.5 -2.5
t36 -12.5t45.5 -30t51 -54t53 -85.5t51 -124.5q14 -41 28 -61t33 -20q7 0 17.5 12.5t21 28.5t19.5 31.5t14 21.5q10 9 22 9q13 0 20.5 -10t7.5 -23q0 -7 -2.5 -13.5t-9.5 -11.5zM189 119q8 27 12.5 48t4.5 50q0 39 -4 77.5t-24 71.5q-7 13 -17 24q-8 9 -20 16.5t-27 8.5
q-23 -3 -43.5 -15.5t-35.5 -30.5t-24 -39.5t-9 -41.5q0 -44 20 -80t45.5 -61.5t50.5 -40t35 -14.5q13 0 20.5 6.5t15.5 20.5zM22 543q-5 0 -12 0.5t-13 3t-10.5 8.5t-4.5 17q0 33 18 47.5t42 14.5q17 -2 24.5 -15t7.5 -26q0 -11 -1 -20t-6.5 -15.5t-16 -10.5t-28.5 -4z
M172 546q-5 0 -12 0.5t-13 3t-10.5 8.5t-4.5 17q0 33 18 47.5t42 14.5q17 -2 24.5 -15t7.5 -26q0 -11 -1 -20t-6.5 -15.5t-16 -10.5t-28.5 -4z" />
    <glyph glyph-name="odieresis" unicode="&#xf6;" horiz-adv-x="483" 
d="M478 194q6 2 9 2q10 0 16.5 -9.5t6.5 -20.5q0 -16 -20 -26.5t-44.5 -17t-47 -9.5t-27.5 -3q-15 0 -34 3q-2 -4 -3 -8.5t-3 -9.5q-26 -68 -65.5 -99.5t-93.5 -31.5q-24 0 -51.5 6.5t-57.5 17.5q-52 20 -74 60.5t-22 87.5q0 49 14.5 89t38.5 67.5t54.5 42.5t62.5 15
q17 0 38 -3.5t40 -10.5t32.5 -16t15.5 -20q40 -20 58.5 -57t20.5 -77q7 -1 12.5 -1h10.5q13 0 24 2t23.5 5.5t28 9t37.5 12.5zM36 202q-13 -33 -13 -64q0 -35 16.5 -57t40 -35.5t49 -18.5t43.5 -5q34 0 58 21t44 72q2 6 2 11q-18 5 -46 13t-55 20.5t-46.5 30.5t-19.5 42
q0 13 5 22t12 18q-12 -6 -23.5 -8t-23 -7t-22.5 -17t-21 -38zM229 257q-13 5 -26 5q-16 0 -25.5 -6.5t-12.5 -14.5v-3q0 -9 15 -18.5t35 -17.5t40.5 -13.5t32.5 -8.5q-5 24 -19 45.5t-40 31.5zM80 462q-5 0 -12 0.5t-13 3t-10.5 8.5t-4.5 17q0 33 18 47.5t42 14.5
q17 -2 24.5 -15t7.5 -26q0 -11 -1 -20t-6.5 -15.5t-16 -10.5t-28.5 -4zM230 465q-5 0 -12 0.5t-13 3t-10.5 8.5t-4.5 17q0 33 18 47.5t42 14.5q17 -2 24.5 -15t7.5 -26q0 -11 -1 -20t-6.5 -15.5t-16 -10.5t-28.5 -4z" />
    <glyph glyph-name="udieresis" unicode="&#xfc;" horiz-adv-x="560" 
d="M-24 244q0 4 8 8t19 7t21.5 5t15.5 2q8 0 8 -7q0 -39 -3 -69t-3 -58q0 -44 7 -66t33 -22q12 0 25.5 4t25 11.5t20.5 17.5t12 22q4 18 10.5 41t15 43t18.5 34t22 14q13 0 23 -9t12 -26q2 -25 4.5 -57.5t9.5 -62t20.5 -49.5t37.5 -20q15 0 29.5 7t25.5 15q8 6 29 26
t44 44.5t42 47.5t22 34q3 13 17 17t25 4q28 0 28 -36q0 -15 -22.5 -44.5t-54 -60.5t-66 -58.5t-58.5 -39.5q-17 -8 -34 -13.5t-34 -5.5q-15 0 -32 5.5t-34 18t-31.5 33t-23.5 51.5q-9 -15 -23.5 -26.5t-32.5 -19.5t-38 -12.5t-39 -4.5q-60 0 -83 34.5t-23 98.5q0 51 2 78
t3 44zM48 393q-5 0 -12 0.5t-13 3t-10.5 8.5t-4.5 17q0 33 18 47.5t42 14.5q17 -2 24.5 -15t7.5 -26q0 -11 -1 -20t-6.5 -15.5t-16 -10.5t-28.5 -4zM198 396q-5 0 -12 0.5t-13 3t-10.5 8.5t-4.5 17q0 33 18 47.5t42 14.5q17 -2 24.5 -15t7.5 -26q0 -11 -1 -20t-6.5 -15.5
t-16 -10.5t-28.5 -4z" />
    <glyph glyph-name="ugrave" unicode="&#xf9;" horiz-adv-x="560" 
d="M-24 244q0 4 8 8t19 7t21.5 5t15.5 2q8 0 8 -7q0 -39 -3 -69t-3 -58q0 -44 7 -66t33 -22q12 0 25.5 4t25 11.5t20.5 17.5t12 22q4 18 10.5 41t15 43t18.5 34t22 14q13 0 23 -9t12 -26q2 -25 4.5 -57.5t9.5 -62t20.5 -49.5t37.5 -20q15 0 29.5 7t25.5 15q8 6 29 26
t44 44.5t42 47.5t22 34q3 13 17 17t25 4q28 0 28 -36q0 -15 -22.5 -44.5t-54 -60.5t-66 -58.5t-58.5 -39.5q-17 -8 -34 -13.5t-34 -5.5q-15 0 -32 5.5t-34 18t-31.5 33t-23.5 51.5q-9 -15 -23.5 -26.5t-32.5 -19.5t-38 -12.5t-39 -4.5q-60 0 -83 34.5t-23 98.5q0 51 2 78
t3 44zM2.31152 494.6q0.770508 4.62988 10.7861 4.62988q3.85254 0 8.08984 -0.771484t6.54883 -1.54395q8.47461 -3.85742 21.5723 -14.6602t29.6621 -23.1484t35.4404 -21.6045q18.876 -9.25977 38.9082 -9.25977h3.85156q4.62305 -0.771484 11.9424 -1.15723
t14.2529 -2.31445q6.93457 -1.92969 11.5566 -5.78711q4.62305 -3.8584 4.62305 -10.8027q0 -14.6602 -10.0156 -17.3613q-10.0166 -2.7002 -25.4248 -2.7002q-18.4912 0 -39.6787 5.40137q-21.1865 5.40137 -35.0547 10.0303q-11.5566 5.40137 -26.9658 15.0469
q-15.4092 9.64453 -29.6621 21.2188q-14.2539 11.5742 -24.2695 23.9199t-10.0156 21.6055q0 5.40137 3.85254 9.25879z" />
    <glyph glyph-name="uacute" unicode="&#xfa;" horiz-adv-x="560" 
d="M-24 244q0 4 8 8t19 7t21.5 5t15.5 2q8 0 8 -7q0 -39 -3 -69t-3 -58q0 -44 7 -66t33 -22q12 0 25.5 4t25 11.5t20.5 17.5t12 22q4 18 10.5 41t15 43t18.5 34t22 14q13 0 23 -9t12 -26q2 -25 4.5 -57.5t9.5 -62t20.5 -49.5t37.5 -20q15 0 29.5 7t25.5 15q8 6 29 26
t44 44.5t42 47.5t22 34q3 13 17 17t25 4q28 0 28 -36q0 -15 -22.5 -44.5t-54 -60.5t-66 -58.5t-58.5 -39.5q-17 -8 -34 -13.5t-34 -5.5q-15 0 -32 5.5t-34 18t-31.5 33t-23.5 51.5q-9 -15 -23.5 -26.5t-32.5 -19.5t-38 -12.5t-39 -4.5q-60 0 -83 34.5t-23 98.5q0 51 2 78
t3 44zM267.265 509.562q4.20215 -4.19727 4.20215 -10.0732q0 -10.0742 -10.9258 -23.5059t-26.4746 -26.0234t-32.3574 -23.0859q-16.8086 -10.4932 -29.416 -16.3691q-15.1279 -5.03711 -38.2402 -10.9131q-23.1133 -5.87695 -43.2832 -5.87695
q-16.8096 0 -27.7354 2.93848t-10.9258 18.8877q0 7.55566 5.04199 11.7529q5.04297 4.19727 12.6074 6.2959t15.5479 2.51855q7.98438 0.419922 13.0273 1.25977h4.20215q21.0117 0 41.6025 10.0732q20.5908 10.0742 38.6611 23.5059q18.0693 13.4316 32.7773 25.1836
q14.708 11.7529 23.9531 15.9502q2.52148 0.839844 7.14355 1.67871q4.62305 0.839844 8.8252 0.839844q10.0859 0 11.7666 -5.03711z" />
    <glyph glyph-name="idieresis" unicode="&#xef;" horiz-adv-x="260" 
d="M-108 510q-5 0 -12 0.5t-13 3t-10.5 8.5t-4.5 17q0 33 18 47.5t42 14.5q17 -2 24.5 -15t7.5 -26q0 -11 -1 -20t-6.5 -15.5t-16 -10.5t-28.5 -4zM42 513q-5 0 -12 0.5t-13 3t-10.5 8.5t-4.5 17q0 33 18 47.5t42 14.5q17 -2 24.5 -15t7.5 -26q0 -11 -1 -20t-6.5 -15.5
t-16 -10.5t-28.5 -4zM-59 268q-4 18 -6.5 32t-2.5 25q0 19 11 27.5t42 8.5q16 0 25 -22.5t16 -56.5t14 -73t17.5 -73t26.5 -56.5t43 -22.5q24 0 40.5 10t28 25t19.5 33t15.5 33t16.5 25t23 10q13 -13 15 -22t2 -22q-6 -30 -19.5 -57.5t-33.5 -48t-47 -33t-60 -12.5
q-27 0 -52.5 7.5t-45.5 27.5q-20 24 -35.5 63.5t-27.5 77.5q-14 45 -25 94z" />
    <glyph glyph-name="caron" unicode="&#x2c7;" horiz-adv-x="399" 
d="M357 685l3 -1q9 0 9 -8v-4q0 -9 -10 -24.5t-25.5 -34t-35 -38t-39 -35t-37.5 -25.5t-30 -10h-4q-20 2 -43 18t-45.5 39t-44 49t-38.5 49l-7 9q0 4 1.5 8.5t8.5 4.5h9q0 -1 1 -1t1 -0.5t2 -0.5q7 -4 27 -21.5t44 -36.5t47.5 -34.5t37.5 -15.5q21 4 47 22t50 38t42.5 36
t25.5 16z" />
    <glyph glyph-name="breve" unicode="&#x2d8;" horiz-adv-x="392" 
d="M357 685l3 -1q9 0 9 -8v-4q0 -13 -13 -41t-36 -56t-55.5 -49t-72.5 -21h-4q-34 0 -66.5 20.5t-58 47.5t-41 54t-15.5 41q0 5 2.5 9.5t10.5 4.5q12 0 26.5 -17t34 -38t46 -38t62.5 -17q37 0 63.5 17.5t45.5 38.5t32 38.5t24 17.5z" />
    <glyph glyph-name="ring" unicode="&#x2da;" horiz-adv-x="268" 
d="M2 591q-1 9 -1 17v16q0 52 29 79t76 27q42 -1 69 -9.5t43 -23t22 -35.5t6 -47q0 -30 -10 -53.5t-26.5 -40t-38.5 -25t-46 -8.5q-20 0 -41 6t-39 19t-30 32.5t-13 45.5zM63 607q0 -26 17 -43t43 -17t43.5 17t17.5 43t-17.5 43.5t-43.5 17.5t-43 -17.5t-17 -43.5z" />
    <glyph glyph-name="aring" unicode="&#xe5;" 
d="M546 146q0 -9 -11 -27t-27 -36t-33 -31t-29 -13q-31 0 -55 18.5t-42.5 46t-32.5 60t-24.5 60t-18 46t-14.5 18.5l9 -71q0 -88 -27.5 -134t-87.5 -53q-34 0 -73 25t-78 73q-19 18 -31 36t-19 38t-9.5 43t-2.5 51q0 43 18.5 78t45 60t55.5 39.5t49 17.5h7q8 0 23.5 -2.5
t36 -12.5t45.5 -30t51 -54t53 -85.5t51 -124.5q14 -41 28 -61t33 -20q7 0 17.5 12.5t21 28.5t19.5 31.5t14 21.5q10 9 22 9q13 0 20.5 -10t7.5 -23q0 -7 -2.5 -13.5t-9.5 -11.5zM189 119q8 27 12.5 48t4.5 50q0 39 -4 77.5t-24 71.5q-7 13 -17 24q-8 9 -20 16.5t-27 8.5
q-23 -3 -43.5 -15.5t-35.5 -30.5t-24 -39.5t-9 -41.5q0 -44 20 -80t45.5 -61.5t50.5 -40t35 -14.5q13 0 20.5 6.5t15.5 20.5zM-21 619q-1 9 -1 17v16q0 52 29 79t76 27q42 -1 69 -9.5t43 -23t22 -35.5t6 -47q0 -30 -10 -53.5t-26.5 -40t-38.5 -25t-46 -8.5q-20 0 -41 6
t-39 19t-30 32.5t-13 45.5zM40 635q0 -26 17 -43t43 -17t43.5 17t17.5 43t-17.5 43.5t-43.5 17.5t-43 -17.5t-17 -43.5z" />
    <glyph glyph-name="ydieresis" unicode="&#xff;" horiz-adv-x="598" 
d="M38 152q-11 -19 -15 -33.5t-3 -29.5l2 -47q2 -21 12.5 -38.5t26 -30t34 -19.5t38.5 -7t41 8q33 31 54 64t33 69t17 75.5t5 84.5v23q0 12 10.5 20t21.5 8q3 0 4 -0.5t2 -0.5q9 -5 12.5 -7t5.5 -6.5t3 -13t5 -24.5q1 -60 5 -113.5t10 -104.5q44 54 96.5 95t131.5 70
q9 0 19 -1.5t10 -7.5v-5q0 -5 -1 -10t-4 -7q-70 -32 -126 -91.5t-115 -135.5q6 -52 10.5 -102t4.5 -104q0 -57 -5.5 -126t-19 -139t-37.5 -136t-61.5 -116.5t-89 -81.5t-121.5 -31q-33 0 -64 9.5t-55 30t-38.5 53t-14.5 77.5q0 64 24.5 127t63 123t87 118t95.5 112.5
t88 106.5t66 100l-4 32t-4 33q-11 -21 -27 -44.5t-37 -44t-46.5 -33.5t-56.5 -13q-30 0 -59.5 11t-53.5 30.5t-40.5 46t-20.5 57.5q0 15 0.5 43t5.5 55.5t15.5 48t31.5 20.5q11 0 20.5 -8.5t9.5 -22.5q0 -4 -0.5 -7.5t-1.5 -8.5zM204 -283q-74 -92 -122 -161t-76.5 -119.5
t-40 -83.5t-11.5 -52q0 -39 7 -65t20 -42.5t29.5 -23.5t36.5 -7q30 0 63 14t61 35q54 42 84.5 108t45 142t17.5 153.5t3 141.5q0 26 -1.5 51.5t-3.5 51.5q-26 -34 -53.5 -69.5t-58.5 -73.5zM86 392q-5 0 -12 0.5t-13 3t-10.5 8.5t-4.5 17q0 33 18 47.5t42 14.5
q17 -2 24.5 -15t7.5 -26q0 -11 -1 -20t-6.5 -15.5t-16 -10.5t-28.5 -4zM236 395q-5 0 -12 0.5t-13 3t-10.5 8.5t-4.5 17q0 33 18 47.5t42 14.5q17 -2 24.5 -15t7.5 -26q0 -11 -1 -20t-6.5 -15.5t-16 -10.5t-28.5 -4z" />
    <glyph glyph-name="yacute" unicode="&#xfd;" horiz-adv-x="598" 
d="M38 152q-11 -19 -15 -33.5t-3 -29.5l2 -47q2 -21 12.5 -38.5t26 -30t34 -19.5t38.5 -7t41 8q33 31 54 64t33 69t17 75.5t5 84.5v23q0 12 10.5 20t21.5 8q3 0 4 -0.5t2 -0.5q9 -5 12.5 -7t5.5 -6.5t3 -13t5 -24.5q1 -60 5 -113.5t10 -104.5q44 54 96.5 95t131.5 70
q9 0 19 -1.5t10 -7.5v-5q0 -5 -1 -10t-4 -7q-70 -32 -126 -91.5t-115 -135.5q6 -52 10.5 -102t4.5 -104q0 -57 -5.5 -126t-19 -139t-37.5 -136t-61.5 -116.5t-89 -81.5t-121.5 -31q-33 0 -64 9.5t-55 30t-38.5 53t-14.5 77.5q0 64 24.5 127t63 123t87 118t95.5 112.5
t88 106.5t66 100l-4 32t-4 33q-11 -21 -27 -44.5t-37 -44t-46.5 -33.5t-56.5 -13q-30 0 -59.5 11t-53.5 30.5t-40.5 46t-20.5 57.5q0 15 0.5 43t5.5 55.5t15.5 48t31.5 20.5q11 0 20.5 -8.5t9.5 -22.5q0 -4 -0.5 -7.5t-1.5 -8.5zM204 -283q-74 -92 -122 -161t-76.5 -119.5
t-40 -83.5t-11.5 -52q0 -39 7 -65t20 -42.5t29.5 -23.5t36.5 -7q30 0 63 14t61 35q54 42 84.5 108t45 142t17.5 153.5t3 141.5q0 26 -1.5 51.5t-3.5 51.5q-26 -34 -53.5 -69.5t-58.5 -73.5zM319 511q5 -5 5 -12q0 -12 -13 -28t-31.5 -31t-38.5 -27.5t-35 -19.5
q-18 -6 -45.5 -13t-51.5 -7q-20 0 -33 3.5t-13 22.5q0 9 6 14t15 7.5t18.5 3t15.5 1.5h5q25 0 49.5 12t46 28t39 30t28.5 19q3 1 8.5 2t10.5 1q12 0 14 -6z" />
    <glyph glyph-name="circumflex" unicode="&#x2c6;" horiz-adv-x="395" 
d="M22 505l-3 1q-9 0 -9 8v4q0 9 10 24.5t25.5 34t35 38t39 35t37.5 25.5t30 10h4q20 -2 43 -18t45.5 -39t44 -49.5t38.5 -48.5l7 -9q0 -5 -1.5 -9t-8.5 -4h-9q0 1 -1 1q-2 0 -3 1q-7 4 -27 21.5t-44 36.5t-47.5 34.5t-37.5 15.5q-22 -4 -47.5 -22t-49.5 -38t-42.5 -36
t-25.5 -16z" />
    <glyph glyph-name="acircumflex" unicode="&#xe2;" 
d="M546 146q0 -9 -11 -27t-27 -36t-33 -31t-29 -13q-31 0 -55 18.5t-42.5 46t-32.5 60t-24.5 60t-18 46t-14.5 18.5l9 -71q0 -88 -27.5 -134t-87.5 -53q-34 0 -73 25t-78 73q-19 18 -31 36t-19 38t-9.5 43t-2.5 51q0 43 18.5 78t45 60t55.5 39.5t49 17.5h7q8 0 23.5 -2.5
t36 -12.5t45.5 -30t51 -54t53 -85.5t51 -124.5q14 -41 28 -61t33 -20q7 0 17.5 12.5t21 28.5t19.5 31.5t14 21.5q10 9 22 9q13 0 20.5 -10t7.5 -23q0 -7 -2.5 -13.5t-9.5 -11.5zM189 119q8 27 12.5 48t4.5 50q0 39 -4 77.5t-24 71.5q-7 13 -17 24q-8 9 -20 16.5t-27 8.5
q-23 -3 -43.5 -15.5t-35.5 -30.5t-24 -39.5t-9 -41.5q0 -44 20 -80t45.5 -61.5t50.5 -40t35 -14.5q13 0 20.5 6.5t15.5 20.5zM-48 512l-3 1q-9 0 -9 8v4q0 9 10 24.5t25.5 34t35 38t39 35t37.5 25.5t30 10h4q20 -2 43 -18t45.5 -39t44 -49.5t38.5 -48.5l7 -9q0 -5 -1.5 -9
t-8.5 -4h-9q0 1 -1 1q-2 0 -3 1q-7 4 -27 21.5t-44 36.5t-47.5 34.5t-37.5 15.5q-22 -4 -47.5 -22t-49.5 -38t-42.5 -36t-25.5 -16z" />
    <glyph glyph-name="ae" unicode="&#xe6;" horiz-adv-x="653" 
d="M279 222l-11 -5q0 -88 -27.5 -134t-87.5 -53q-34 0 -73 25t-78 73q-19 18 -31 36t-19 38t-9.5 43t-2.5 51q0 43 18.5 78t45 60t55.5 39.5t49 17.5q40 -10 68 -29.5t53 -54.5t51.5 -89t63.5 -133zM191 126l2 6q5 17 9 36.5t4 48.5q0 27 -4.5 58t-15 57.5t-28 44
t-42.5 17.5q-23 0 -44 -9t-36.5 -24t-24.5 -34t-9 -39q0 -44 20 -80t45.5 -61.5t50.5 -40t35 -14.5q13 0 20.5 6.5t15.5 20.5zM416 426q-23 0 -38.5 -19.5t-25 -45t-13.5 -50t-4 -34.5q0 -35 7 -56.5t20 -41.5q17 16 31.5 40t25.5 50t17.5 51.5t6.5 45.5v17q-16 43 -27 43z
M668 139q-24 -30 -65 -56t-90 -37h-35q-18 0 -39 3.5t-41 11.5q-32 22 -45 31.5t-17.5 13t-6 6.5t-11.5 13q-26 26 -35.5 60t-9.5 73q0 37 10 77.5t28.5 74.5t45 56.5t59.5 22.5q10 0 26.5 -8.5t32 -25t27 -41.5t11.5 -58q-6 -54 -33 -112t-73 -119q13 -6 32 -11.5t39 -5.5
h35q30 9 44.5 15.5t24 14.5t18 19t26.5 30q9 12 24 12q12 0 22 -7.5t10 -21.5t-14 -31z" />
    <glyph glyph-name="ecircumflex" unicode="&#xea;" horiz-adv-x="326" 
d="M88 433q-23 0 -38.5 -19.5t-25 -45t-13.5 -50t-4 -34.5q0 -35 7 -56.5t20 -41.5q17 16 31.5 40t25.5 50t17.5 51.5t6.5 45.5v17q-16 43 -27 43zM340 146q-24 -30 -65 -56t-90 -37h-35q-18 0 -39 3.5t-41 11.5q-32 22 -45 31.5t-17.5 13t-6 6.5t-11.5 13q-26 26 -35.5 60
t-9.5 73q0 37 10 77.5t28.5 74.5t45 56.5t59.5 22.5q10 0 26.5 -8.5t32 -25t27 -41.5t11.5 -58q-6 -54 -33 -112t-73 -119q13 -6 32 -11.5t39 -5.5h35q30 9 44.5 15.5t24 14.5t18 19t26.5 30q9 12 24 12q12 0 22 -7.5t10 -21.5t-14 -31zM-87 478l-3 1q-9 0 -9 8v4
q0 9 10 24.5t25.5 34t35 38t39 35t37.5 25.5t30 10h4q20 -2 43 -18t45.5 -39t44 -49.5t38.5 -48.5l7 -9q0 -5 -1.5 -9t-8.5 -4h-9q0 1 -1 1q-2 0 -3 1q-7 4 -27 21.5t-44 36.5t-47.5 34.5t-37.5 15.5q-22 -4 -47.5 -22t-49.5 -38t-42.5 -36t-25.5 -16z" />
    <glyph glyph-name="ocircumflex" unicode="&#xf4;" horiz-adv-x="483" 
d="M478 194q6 2 9 2q10 0 16.5 -9.5t6.5 -20.5q0 -16 -20 -26.5t-44.5 -17t-47 -9.5t-27.5 -3q-15 0 -34 3q-2 -4 -3 -8.5t-3 -9.5q-26 -68 -65.5 -99.5t-93.5 -31.5q-24 0 -51.5 6.5t-57.5 17.5q-52 20 -74 60.5t-22 87.5q0 49 14.5 89t38.5 67.5t54.5 42.5t62.5 15
q17 0 38 -3.5t40 -10.5t32.5 -16t15.5 -20q40 -20 58.5 -57t20.5 -77q7 -1 12.5 -1h10.5q13 0 24 2t23.5 5.5t28 9t37.5 12.5zM36 202q-13 -33 -13 -64q0 -35 16.5 -57t40 -35.5t49 -18.5t43.5 -5q34 0 58 21t44 72q2 6 2 11q-18 5 -46 13t-55 20.5t-46.5 30.5t-19.5 42
q0 13 5 22t12 18q-12 -6 -23.5 -8t-23 -7t-22.5 -17t-21 -38zM229 257q-13 5 -26 5q-16 0 -25.5 -6.5t-12.5 -14.5v-3q0 -9 15 -18.5t35 -17.5t40.5 -13.5t32.5 -8.5q-5 24 -19 45.5t-40 31.5zM-16 389l-3 1q-9 0 -9 8v4q0 9 10 24.5t25.5 34t35 38t39 35t37.5 25.5t30 10h4
q20 -2 43 -18t45.5 -39t44 -49.5t38.5 -48.5l7 -9q0 -5 -1.5 -9t-8.5 -4h-9q0 1 -1 1q-2 0 -3 1q-7 4 -27 21.5t-44 36.5t-47.5 34.5t-37.5 15.5q-22 -4 -47.5 -22t-49.5 -38t-42.5 -36t-25.5 -16z" />
    <glyph glyph-name="ucircumflex" unicode="&#xfb;" horiz-adv-x="560" 
d="M-24 244q0 4 8 8t19 7t21.5 5t15.5 2q8 0 8 -7q0 -39 -3 -69t-3 -58q0 -44 7 -66t33 -22q12 0 25.5 4t25 11.5t20.5 17.5t12 22q4 18 10.5 41t15 43t18.5 34t22 14q13 0 23 -9t12 -26q2 -25 4.5 -57.5t9.5 -62t20.5 -49.5t37.5 -20q15 0 29.5 7t25.5 15q8 6 29 26
t44 44.5t42 47.5t22 34q3 13 17 17t25 4q28 0 28 -36q0 -15 -22.5 -44.5t-54 -60.5t-66 -58.5t-58.5 -39.5q-17 -8 -34 -13.5t-34 -5.5q-15 0 -32 5.5t-34 18t-31.5 33t-23.5 51.5q-9 -15 -23.5 -26.5t-32.5 -19.5t-38 -12.5t-39 -4.5q-60 0 -83 34.5t-23 98.5q0 51 2 78
t3 44zM-32 351l-3 1q-9 0 -9 8v4q0 9 10 24.5t25.5 34t35 38t39 35t37.5 25.5t30 10h4q20 -2 43 -18t45.5 -39t44 -49.5t38.5 -48.5l7 -9q0 -5 -1.5 -9t-8.5 -4h-9q0 1 -1 1q-2 0 -3 1q-7 4 -27 21.5t-44 36.5t-47.5 34.5t-37.5 15.5q-22 -4 -47.5 -22t-49.5 -38t-42.5 -36
t-25.5 -16z" />
    <glyph glyph-name="oe" unicode="&#x153;" horiz-adv-x="739" 
d="M478 194q6 2 9 2q10 0 16.5 -9.5t6.5 -20.5q0 -16 -20 -26.5t-44.5 -17t-47 -9.5t-27.5 -3q-15 0 -34 3q-2 -4 -3 -8.5t-3 -9.5q-26 -68 -65.5 -99.5t-93.5 -31.5q-24 0 -51.5 6.5t-57.5 17.5q-52 20 -74 60.5t-22 87.5q0 49 14.5 89t38.5 67.5t54.5 42.5t62.5 15
q17 0 38 -3.5t40 -10.5t32.5 -16t15.5 -20q40 -20 58.5 -57t20.5 -77q7 -1 12.5 -1h10.5q13 0 24 2t23.5 5.5t28 9t37.5 12.5zM36 202q-13 -33 -13 -64q0 -35 16.5 -57t40 -35.5t49 -18.5t43.5 -5q34 0 58 21t44 72q2 6 2 11q-18 5 -46 13t-55 20.5t-46.5 30.5t-19.5 42
q0 13 5 22t12 18q-12 -6 -23.5 -8t-23 -7t-22.5 -17t-21 -38zM229 257q-13 5 -26 5q-16 0 -25.5 -6.5t-12.5 -14.5v-3q0 -9 15 -18.5t35 -17.5t40.5 -13.5t32.5 -8.5q-5 24 -19 45.5t-40 31.5zM510 437q-23 0 -38.5 -19.5t-25 -45t-13.5 -50t-4 -34.5q0 -35 7 -56.5
t20 -41.5q17 16 31.5 40t25.5 50t17.5 51.5t6.5 45.5v17q-16 43 -27 43zM762 150q-24 -30 -65 -56t-90 -37h-35q-18 0 -39 3.5t-41 11.5q-32 22 -45 31.5t-17.5 13t-6 6.5t-11.5 13q-26 26 -35.5 60t-9.5 73q0 37 10 77.5t28.5 74.5t45 56.5t59.5 22.5q10 0 26.5 -8.5
t32 -25t27 -41.5t11.5 -58q-6 -54 -33 -112t-73 -119q13 -6 32 -11.5t39 -5.5h35q30 9 44.5 15.5t24 14.5t18 19t26.5 30q9 12 24 12q12 0 22 -7.5t10 -21.5t-14 -31z" />
    <glyph glyph-name="scaron" unicode="&#x161;" horiz-adv-x="466" 
d="M180 18q47 0 70.5 20t37.5 61q-41 -14 -70.5 -34.5t-37.5 -46.5zM452 133q-20 -3 -45 -6t-57 -11q-29 -160 -160 -160q-14 0 -28 1t-34 7q-10 0 -15.5 4.5t-8 10.5t-3 12t-0.5 10q13 37 29 61.5t38.5 42.5t53 32.5t74.5 31.5l9 36q0 41 -6.5 81t-20.5 87
q-23 -29 -54.5 -58.5t-67 -59t-72.5 -60.5t-72 -63q-22 -15 -37 -15q-20 0 -20 25q0 13 6.5 27.5t19.5 25.5q29 26 62 57t65.5 61.5t63.5 59t56 50.5t43 35t25 13q13 0 25 -33t21.5 -78.5t15 -93t5.5 -77.5q17 8 30 10t23 2q12 0 19.5 -1.5t12.5 -1.5h3q19 -2 28 -11t9 -20
t-9 -21.5t-27 -12.5zM400 685l3 -1q9 0 9 -8v-4q0 -9 -10 -24.5t-25.5 -34t-35 -38t-39 -35t-37.5 -25.5t-30 -10h-4q-20 2 -43 18t-45.5 39t-44 49t-38.5 49l-7 9q0 4 1.5 8.5t8.5 4.5h9q0 -1 1 -1t1 -0.5t2 -0.5q7 -4 27 -21.5t44 -36.5t47.5 -34.5t37.5 -15.5q21 4 47 22
t50 38t42.5 36t25.5 16z" />
    <glyph glyph-name="fi" unicode="&#xfb01;" horiz-adv-x="668" 
d="M449 158q-16 -27 -44 -74t-62 -104.5t-70.5 -120t-69.5 -119t-59 -102t-39 -69.5q3 -27 6 -54.5t5 -55.5q4 -48 11.5 -104t7.5 -113q0 -21 -3 -51t-10 -57t-19.5 -46t-31.5 -19q-20 0 -42 18.5t-41.5 50t-32 74t-12.5 90.5q0 33 8 69.5t21 73.5t30.5 74t36.5 72
q-11 90 -23 178.5t-23 163t-19 127.5t-11 71q-9 59 -17 105t-15 85t-13 75.5t-10 77t-6 88t-2 108.5q0 25 1 56.5t5 64t13 64t25 56t40 39.5t58 15q36 0 58 -28t35 -67.5t19 -82t9 -71.5l1 -9q0 -56 -2.5 -107t-5.5 -91.5t-5.5 -68.5t-2.5 -38q-18 -107 -50 -175t-74 -110
q14 -109 32.5 -218.5t34.5 -222.5q20 31 46.5 78t56 100t61 108t62 102t59.5 82t53 49q3 1 7 1q10 0 14.5 -4t4.5 -17q0 -8 -6 -17zM82 396q9 48 11.5 123.5t2.5 166.5q0 60 -6 110.5t-20 81.5l-5 5q-8 7 -13.5 11t-12.5 4q-27 0 -42 -27t-22 -64t-8.5 -75.5t-1.5 -61.5
q0 -82 4 -138.5t10.5 -106t15 -99.5t18.5 -119q15 23 35.5 72.5t33.5 116.5zM13 -683q-2 -14 -3 -25t-1 -22q0 -33 11.5 -57t39.5 -56q4 14 5.5 36t1.5 50q0 44 -3.5 100.5t-10.5 119.5q-14 -35 -24.5 -71.5t-15.5 -74.5zM405 540q-7 0 -14 1.5t-13 8t-9.5 19.5t-3.5 37
q7 32 30 51t51 19q11 -1 17.5 -7.5t10.5 -16.5t5 -20.5t1 -18.5q0 -14 -3.5 -27t-12 -23t-23 -16.5t-36.5 -6.5zM348 280q-4 18 -6.5 32t-2.5 25q0 19 11 27.5t42 8.5q16 0 25 -22.5t16 -56.5t14 -73t17.5 -73t26.5 -56.5t43 -22.5q24 0 40.5 10t28 25t19.5 33t15.5 33
t16.5 25t23 10q13 -13 15 -22t2 -22q-6 -30 -19.5 -57.5t-33.5 -48t-47 -33t-60 -12.5q-27 0 -52.5 7.5t-45.5 27.5q-20 24 -35.5 63.5t-27.5 77.5q-14 45 -25 94z" />
    <glyph glyph-name="fl" unicode="&#xfb02;" horiz-adv-x="871" 
d="M449 158q-16 -27 -44 -74t-62 -104.5t-70.5 -120t-69.5 -119t-59 -102t-39 -69.5q3 -27 6 -54.5t5 -55.5q4 -48 11.5 -104t7.5 -113q0 -21 -3 -51t-10 -57t-19.5 -46t-31.5 -19q-20 0 -42 18.5t-41.5 50t-32 74t-12.5 90.5q0 33 8 69.5t21 73.5t30.5 74t36.5 72
q-11 90 -23 178.5t-23 163t-19 127.5t-11 71q-9 59 -17 105t-15 85t-13 75.5t-10 77t-6 88t-2 108.5q0 25 1 56.5t5 64t13 64t25 56t40 39.5t58 15q36 0 58 -28t35 -67.5t19 -82t9 -71.5l1 -9q0 -56 -2.5 -107t-5.5 -91.5t-5.5 -68.5t-2.5 -38q-18 -107 -50 -175t-74 -110
q14 -109 32.5 -218.5t34.5 -222.5q20 31 46.5 78t56 100t61 108t62 102t59.5 82t53 49q3 1 7 1q10 0 14.5 -4t4.5 -17q0 -8 -6 -17zM82 396q9 48 11.5 123.5t2.5 166.5q0 60 -6 110.5t-20 81.5l-5 5q-8 7 -13.5 11t-12.5 4q-27 0 -42 -27t-22 -64t-8.5 -75.5t-1.5 -61.5
q0 -82 4 -138.5t10.5 -106t15 -99.5t18.5 -119q15 23 35.5 72.5t33.5 116.5zM13 -683q-2 -14 -3 -25t-1 -22q0 -33 11.5 -57t39.5 -56q4 14 5.5 36t1.5 50q0 44 -3.5 100.5t-10.5 119.5q-14 -35 -24.5 -71.5t-15.5 -74.5zM341.309 215.973
q-15.4727 42.4863 -30.4902 87.1846q-15.0176 44.6992 -28.2148 90.7266q-13.1973 46.0264 -22.7539 91.6113q-9.55664 45.584 -12.2871 88.9551q0 40.7168 3.18555 98.25t14.5625 117.28q11.377 59.7461 33.6758 114.182t60.5254 89.8408q9.10156 7.96582 20.0234 7.96582
q10.0117 0 18.2031 -6.6377q8.19141 -6.63867 12.7422 -19.0303q20.0234 -85.8584 34.1309 -190.746q14.1074 -104.889 14.1074 -216.415q0 -91.1689 -11.832 -179.682t-40.0469 -169.945q16.3828 -57.5332 33.2207 -100.463q16.8379 -42.9287 37.7715 -71.2529
t50.0586 -42.0439q29.125 -13.7188 70.082 -13.7188q45.5078 0 77.8184 12.3916t54.6094 32.3076q22.2988 19.915 35.9512 43.3711t23.209 46.0264q9.55664 22.5713 15.4727 40.2734q5.91602 17.7031 12.2871 25.6689q8.19141 10.6221 20.9336 10.6221t20.0234 -6.19629
q7.28125 -6.19531 7.28125 -23.0127q0 -30.9805 -17.748 -73.0234q-17.748 -42.0439 -50.5137 -79.6621t-79.6387 -63.7295t-105.123 -26.1113q-46.418 0.884766 -85.0996 11.5068q-38.6816 10.6211 -70.9922 41.1582t-60.5254 86.3008q-28.2148 55.7627 -54.6094 146.047z
M395.008 558.519q0 93.8232 -10.0117 181.895q-10.0117 88.0703 -25.4844 159.766q-16.3828 -31.8643 -26.3945 -72.5801q-10.0117 -40.7168 -15.4727 -83.6455t-7.28125 -85.415t-1.82031 -77.0068q0 -67.2695 18.6582 -136.31q18.6582 -69.041 42.3223 -134.54
q13.6523 60.1885 19.5684 122.591q5.91602 62.4014 5.91602 125.246z" />
    <glyph glyph-name="zcaron" unicode="&#x17e;" horiz-adv-x="515" 
d="M538 146q-20 -15 -40 -34.5t-45 -27.5q-34 0 -61 9t-49.5 23.5t-41.5 31.5t-35 34l-35 45q-66 -68 -81 -108l-17 -87q0 -14 -2.5 -20.5t-16.5 -6.5q-9 0 -17 2t-14 8.5t-9 19t-3 32.5t5 38.5t13 32.5l25 187q7 53 13 94t6 74q-7 6 -23.5 7t-30.5 1q8 -26 13.5 -54.5
t5.5 -69.5q0 -82 -23 -141.5t-65 -90.5q-6 -3 -12 -3q-11 0 -19.5 10t-8.5 21q0 12 8 19q24 20 40.5 64.5t16.5 120.5q0 33 -4 59t-9.5 47t-9.5 38t-4 34q7 7 14 8t13 1h63q16 0 33 -2t31.5 -7t23.5 -13.5t9 -21.5q0 -41 -6.5 -110.5t-20.5 -155.5l27 44l27 8q3 0 11.5 -4
t18.5 -11t21 -16.5t20 -20.5l44 -54q23 -29 46 -41.5t43 -12.5q16 2 34 12t38 41q6 7 16 7q13 0 24.5 -11t11.5 -25q0 -12 -12 -24zM258 808l3 -1q9 0 9 -8v-4q0 -9 -10 -24.5t-25.5 -34t-35 -38t-39 -35t-37.5 -25.5t-30 -10h-4q-20 2 -43 18t-45.5 39t-44 49t-38.5 49
l-7 9q0 4 1.5 8.5t8.5 4.5h9q0 -1 1 -1t1 -0.5t2 -0.5q7 -4 27 -21.5t44 -36.5t47.5 -34.5t37.5 -15.5q21 4 47 22t50 38t42.5 36t25.5 16z" />
    <glyph glyph-name="quotedbl" unicode="&#x22;" horiz-adv-x="327" 
d="M56 664l14 52q6 32 17 55.5t30 23.5l6 -1q13 -8 16.5 -15.5t3.5 -14.5t-1 -8.5t-3 -9.5q-2 -11 -2 -20t-2 -18q-8 -32 -11 -42.5t-4 -10.5v7q-5 -9 -6.5 -22.5t-3.5 -24.5l-7 -34q-5 -4 -11 -7q-5 -2 -11.5 -4t-12.5 -2l-6 1q-8 2 -13 10t-5 25q0 11 2 23.5t10 36.5z
M166 664l14 52q6 32 17 55.5t30 23.5l6 -1q13 -8 16.5 -15.5t3.5 -14.5t-1 -8.5t-3 -9.5q-2 -11 -2 -20t-2 -18q-8 -32 -11 -42.5t-4 -10.5v7q-5 -9 -6.5 -22.5t-3.5 -24.5l-7 -34q-5 -4 -11 -7q-5 -2 -11.5 -4t-12.5 -2l-6 1q-8 2 -13 10t-5 25q0 11 2 23.5t10 36.5z" />
    <glyph glyph-name="equal" unicode="=" horiz-adv-x="487" 
d="M308 269q-30 0 -46 0.5t-25 1t-13.5 1t-10.5 0.5h-58q-17 0 -33 1.5t-28 5.5t-19.5 11t-7.5 18q8 20 18.5 23.5t17.5 3.5q1 -1 8 -1q11 0 20 2t18 2l62 -3q25 -1 32 -1.5t14.5 -1t25 -0.5h62.5h35q6 -6 10 -12q4 -5 7 -11.5t3 -13.5q0 -11 -12.5 -19.5t-47.5 -8.5
q-6 0 -13.5 0.5t-18.5 1.5zM159 206q30 0 46 -0.5t25 -1t13.5 -1t10.5 -0.5h58q17 0 33 -1.5t28 -5.5t19.5 -11t7.5 -18q-8 -20 -18.5 -23.5t-17.5 -3.5q-1 1 -8 1q-11 0 -20 -2t-18 -2l-62 3q-25 1 -32 1.5t-14.5 1t-25 0.5h-62.5h-35q-6 6 -10 12q-4 5 -7 11.5t-3 13.5
q0 11 12.5 19.5t47.5 8.5q6 0 13.5 -0.5t18.5 -1.5z" />
    <glyph glyph-name="underscore" unicode="_" horiz-adv-x="734" 
d="M179 -74q-90 3 -126 10.5t-36 29.5q8 20 18.5 23.5t17.5 3.5q1 -1 8 -1q11 0 20 2t18 2l62 -3q15 -1 44 -1.5t67 -0.5h82h88h238q6 -6 10 -12q4 -5 7 -11.5t3 -13.5q0 -11 -12.5 -19.5t-47.5 -8.5h-461z" />
    <glyph glyph-name="bar" unicode="|" horiz-adv-x="462" 
d="M190 -390q-2 -39 -5.5 -49t-10.5 -10l-10 1q-14 0 -26 19.5t-12 61.5l-13 318q-1 11 -1 21v21q0 70 6.5 130t6.5 120q0 31 -0.5 55t-0.5 49t-0.5 54t-0.5 70v279q0 32 -0.5 46.5t-1.5 21t-1.5 10t-0.5 13.5q0 13 1 34t4.5 40.5t9.5 34t16 14.5q5 0 11 -1t11 -5t8.5 -12
t5.5 -22q2 -21 4 -38t3.5 -44.5t2.5 -71.5t1 -119q0 -98 1.5 -194.5t1.5 -175.5q0 -41 -1 -76t-2 -61l-1 -23q-1 -14 -2 -27.5t-1 -26.5q0 -63 1.5 -113t3.5 -87z" />
    <glyph glyph-name="backslash" unicode="\" horiz-adv-x="451" 
d="M274 -125q-4 15 -9 30t-10 33q-11 35 -22 82t-30 95l-8 22q-13 36 -29.5 89t-35 116t-38.5 133t-41 140t-33 112t-19 68.5t-10 43t-7 37.5q-3 10 -3 19q0 16 7 22t14 9l3 1q7 0 15.5 -12t16.5 -29.5t14.5 -35.5t9.5 -30q3 -10 3.5 -13.5t2 -10t5 -20t12.5 -43.5l80 -263
q12 -39 19.5 -66.5t14.5 -51t13.5 -46.5t15.5 -52q17 -56 39.5 -110.5t42.5 -120.5l91 -344q8 -29 8 -47q0 -35 -15 -42l-11 -6q-6 0 -11 10t-16 42z" />
    <glyph glyph-name="endash" unicode="&#x2013;" horiz-adv-x="585" 
d="M358 219q-60 0 -96.5 1t-48.5 2h-58q-17 0 -33 1.5t-28 5.5t-19.5 11t-7.5 18q8 20 18.5 23.5t17.5 3.5q1 -1 8 -1q11 0 20 2t18 2l62 -3q60 -2 102.5 -2.5t81.5 -0.5h35q6 -6 10 -12q4 -5 7 -11.5t3 -13.5q0 -11 -12.5 -19.5t-47.5 -8.5q-6 0 -13.5 0.5t-18.5 1.5z" />
    <glyph glyph-name="emdash" unicode="&#x2014;" horiz-adv-x="731" 
d="M508 219h-48.5t-59.5 0.5t-63 0.5t-58 0.5t-44 1t-22 0.5h-58q-17 0 -33 1.5t-28 5.5t-19.5 11t-7.5 18q8 20 18.5 23.5t17.5 3.5q1 -1 8 -1q11 0 20 2t18 2l62 -3q30 -1 78.5 -1.5t99 -1t93.5 -0.5h63h35q6 -6 10 -12q4 -5 7 -11.5t3 -13.5q0 -11 -12.5 -19.5
t-47.5 -8.5q-6 0 -13.5 0.5t-18.5 1.5z" />
    <glyph glyph-name="tilde" unicode="&#x2dc;" horiz-adv-x="417" 
d="M31 629q1 0 6.5 6t14.5 13t22 13t29 6h10q20 -3 38.5 -13t36.5 -21.5t34.5 -20.5t32.5 -9q23 0 35.5 11t22 24t20.5 24t32 11q14 0 17.5 -5t3.5 -13q0 -23 -12 -44t-30.5 -37.5t-41 -26t-43.5 -9.5t-41.5 10t-39.5 22.5t-35.5 23.5t-29.5 13l-5 1q-9 0 -17 -5.5t-15 -12
t-13.5 -12t-12.5 -5.5q-10 0 -20 7.5t-10 30.5q0 7 2 12.5t9 5.5z" />
    <glyph glyph-name="atilde" unicode="&#xe3;" 
d="M546 146q0 -9 -11 -27t-27 -36t-33 -31t-29 -13q-31 0 -55 18.5t-42.5 46t-32.5 60t-24.5 60t-18 46t-14.5 18.5l9 -71q0 -88 -27.5 -134t-87.5 -53q-34 0 -73 25t-78 73q-19 18 -31 36t-19 38t-9.5 43t-2.5 51q0 43 18.5 78t45 60t55.5 39.5t49 17.5h7q8 0 23.5 -2.5
t36 -12.5t45.5 -30t51 -54t53 -85.5t51 -124.5q14 -41 28 -61t33 -20q7 0 17.5 12.5t21 28.5t19.5 31.5t14 21.5q10 9 22 9q13 0 20.5 -10t7.5 -23q0 -7 -2.5 -13.5t-9.5 -11.5zM189 119q8 27 12.5 48t4.5 50q0 39 -4 77.5t-24 71.5q-7 13 -17 24q-8 9 -20 16.5t-27 8.5
q-23 -3 -43.5 -15.5t-35.5 -30.5t-24 -39.5t-9 -41.5q0 -44 20 -80t45.5 -61.5t50.5 -40t35 -14.5q13 0 20.5 6.5t15.5 20.5zM-52 632q1 0 6.5 6t14.5 13t22 13t29 6h10q20 -3 38.5 -13t36.5 -21.5t34.5 -20.5t32.5 -9q23 0 35.5 11t22 24t20.5 24t32 11q14 0 17.5 -5
t3.5 -13q0 -23 -12 -44t-30.5 -37.5t-41 -26t-43.5 -9.5t-41.5 10t-39.5 22.5t-35.5 23.5t-29.5 13l-5 1q-9 0 -17 -5.5t-15 -12t-13.5 -12t-12.5 -5.5q-10 0 -20 7.5t-10 30.5q0 7 2 12.5t9 5.5z" />
    <glyph glyph-name="ntilde" unicode="&#xf1;" horiz-adv-x="905" 
d="M896 209q13 11 19 11q8 0 10.5 -9.5t2.5 -23.5q0 -49 -15 -84t-34.5 -57t-40 -32t-30.5 -10q-45 0 -74.5 18.5t-51.5 46t-39 60t-35.5 60t-42.5 46t-60 18.5q-27 0 -42 -17.5t-25.5 -43t-18 -56t-18 -56t-27.5 -43t-46 -17.5q-14 0 -24.5 11.5t-10.5 25.5l9 115
q0 80 -19 115.5t-52 35.5q-9 0 -33 -21t-55 -50t-62.5 -59.5t-55.5 -48.5q-3 -2 -7 -4q-8 -4 -16 -4t-20 9t-12 26q0 10 6 18q3 4 7 7q13 9 34.5 27t46.5 39t51 43t49 40t41 29.5t26 11.5q40 0 64 -14t37 -36.5t17.5 -51t4.5 -58.5q41 47 80.5 68t79.5 21q54 0 94.5 -23.5
t75.5 -84.5l52 -97q21 -21 30.5 -33t25.5 -12q4 0 17 15t28.5 36.5t31.5 46.5t27 46zM218 560q1 0 6.5 6t14.5 13t22 13t29 6h10q20 -3 38.5 -13t36.5 -21.5t34.5 -20.5t32.5 -9q23 0 35.5 11t22 24t20.5 24t32 11q14 0 17.5 -5t3.5 -13q0 -23 -12 -44t-30.5 -37.5t-41 -26
t-43.5 -9.5t-41.5 10t-39.5 22.5t-35.5 23.5t-29.5 13l-5 1q-9 0 -17 -5.5t-15 -12t-13.5 -12t-12.5 -5.5q-10 0 -20 7.5t-10 30.5q0 7 2 12.5t9 5.5z" />
    <glyph glyph-name="otilde" unicode="&#xf5;" horiz-adv-x="483" 
d="M478 194q6 2 9 2q10 0 16.5 -9.5t6.5 -20.5q0 -16 -20 -26.5t-44.5 -17t-47 -9.5t-27.5 -3q-15 0 -34 3q-2 -4 -3 -8.5t-3 -9.5q-26 -68 -65.5 -99.5t-93.5 -31.5q-24 0 -51.5 6.5t-57.5 17.5q-52 20 -74 60.5t-22 87.5q0 49 14.5 89t38.5 67.5t54.5 42.5t62.5 15
q17 0 38 -3.5t40 -10.5t32.5 -16t15.5 -20q40 -20 58.5 -57t20.5 -77q7 -1 12.5 -1h10.5q13 0 24 2t23.5 5.5t28 9t37.5 12.5zM36 202q-13 -33 -13 -64q0 -35 16.5 -57t40 -35.5t49 -18.5t43.5 -5q34 0 58 21t44 72q2 6 2 11q-18 5 -46 13t-55 20.5t-46.5 30.5t-19.5 42
q0 13 5 22t12 18q-12 -6 -23.5 -8t-23 -7t-22.5 -17t-21 -38zM229 257q-13 5 -26 5q-16 0 -25.5 -6.5t-12.5 -14.5v-3q0 -9 15 -18.5t35 -17.5t40.5 -13.5t32.5 -8.5q-5 24 -19 45.5t-40 31.5zM-6 523q1 0 6.5 6t14.5 13t22 13t29 6h10q20 -3 38.5 -13t36.5 -21.5
t34.5 -20.5t32.5 -9q23 0 35.5 11t22 24t20.5 24t32 11q14 0 17.5 -5t3.5 -13q0 -23 -12 -44t-30.5 -37.5t-41 -26t-43.5 -9.5t-41.5 10t-39.5 22.5t-35.5 23.5t-29.5 13l-5 1q-9 0 -17 -5.5t-15 -12t-13.5 -12t-12.5 -5.5q-10 0 -20 7.5t-10 30.5q0 7 2 12.5t9 5.5z" />
    <glyph glyph-name="divide" unicode="&#xf7;" horiz-adv-x="542" 
d="M317 232q-60 0 -96.5 1t-48.5 2h-58q-17 0 -33 1.5t-28 5.5t-19.5 11t-7.5 18q8 20 18.5 23.5t17.5 3.5q1 -1 8 -1q11 0 20 2t18 2l62 -3q60 -2 102.5 -2.5t81.5 -0.5h35q6 -6 10 -12q4 -5 7 -11.5t3 -13.5q0 -11 -12.5 -19.5t-47.5 -8.5q-6 0 -13.5 0.5t-18.5 1.5z
M214 34q-8 0 -16.5 1t-16 6.5t-12 17t-4.5 32.5q7 32 27 45.5t48 13.5q22 -2 31 -18.5t9 -33.5q0 -14 -1.5 -25.5t-7.5 -20t-18.5 -13.5t-34.5 -5h-4zM214 384q-7 0 -15.5 0.5t-16.5 4t-13.5 11t-5.5 21.5q0 44 23.5 61.5t53.5 17.5q22 -2 31 -18.5t9 -33.5
q0 -14 -1.5 -25.5t-7.5 -20t-18.5 -13.5t-34.5 -5h-4z" />
    <glyph glyph-name="icircumflex" unicode="&#xee;" horiz-adv-x="261" 
d="M-191 488l-3 1q-9 0 -9 8v4q0 9 10 24.5t25.5 34t35 38t39 35t37.5 25.5t30 10h4q20 -2 43 -18t45.5 -39t44 -49.5t38.5 -48.5l7 -9q0 -5 -1.5 -9t-8.5 -4h-9q0 1 -1 1q-2 0 -3 1q-7 4 -27 21.5t-44 36.5t-47.5 34.5t-37.5 15.5q-22 -4 -47.5 -22t-49.5 -38t-42.5 -36
t-25.5 -16zM-59 268q-4 18 -6.5 32t-2.5 25q0 19 11 27.5t42 8.5q16 0 25 -22.5t16 -56.5t14 -73t17.5 -73t26.5 -56.5t43 -22.5q24 0 40.5 10t28 25t19.5 33t15.5 33t16.5 25t23 10q13 -13 15 -22t2 -22q-6 -30 -19.5 -57.5t-33.5 -48t-47 -33t-60 -12.5q-27 0 -52.5 7.5
t-45.5 27.5q-20 24 -35.5 63.5t-27.5 77.5q-14 45 -25 94z" />
    <glyph glyph-name="quoteleft" unicode="&#x2018;" horiz-adv-x="287" 
d="M108 673q1 -1 1 -6q0 -8 -2 -21.5t-4 -30.5t-4 -35.5t-2 -34.5q0 -22 4.5 -35t4.5 -24q0 -16 -10.5 -25.5t-30.5 -9.5q-11 0 -17 8t-8.5 19t-3 22.5t-0.5 19.5q0 12 6 38.5t15 54.5t19.5 49t20.5 21q7 0 11 -10z" />
    <glyph glyph-name="quoteright" unicode="&#x2019;" horiz-adv-x="281" 
d="M36 461q-1 1 -1 6q0 7 2 21t4 31t4 35t2 35q0 22 -4.5 35t-4.5 24q0 16 10.5 25.5t30.5 9.5q11 0 17 -8t8.5 -19t3 -23t0.5 -19q0 -12 -6 -38.5t-15 -54.5t-19.5 -49t-20.5 -21q-7 0 -11 10z" />
    <glyph glyph-name="quotedblleft" unicode="&#x201c;" horiz-adv-x="384" 
d="M108 673q1 -1 1 -6q0 -8 -2 -21.5t-4 -30.5t-4 -35.5t-2 -34.5q0 -22 4.5 -35t4.5 -24q0 -16 -10.5 -25.5t-30.5 -9.5q-11 0 -17 8t-8.5 19t-3 22.5t-0.5 19.5q0 12 6 38.5t15 54.5t19.5 49t20.5 21q7 0 11 -10zM208 693q1 -1 1 -6q0 -8 -2 -21.5t-4 -30.5t-4 -35.5
t-2 -34.5q0 -22 4.5 -35t4.5 -24q0 -16 -10.5 -25.5t-30.5 -9.5q-11 0 -17 8t-8.5 19t-3 22.5t-0.5 19.5q0 12 6 38.5t15 54.5t19.5 49t20.5 21q7 0 11 -10z" />
    <glyph glyph-name="quotedblright" unicode="&#x201d;" horiz-adv-x="371" 
d="M36 461q-1 1 -1 6q0 7 2 21t4 31t4 35t2 35q0 22 -4.5 35t-4.5 24q0 16 10.5 25.5t30.5 9.5q11 0 17 -8t8.5 -19t3 -23t0.5 -19q0 -12 -6 -38.5t-15 -54.5t-19.5 -49t-20.5 -21q-7 0 -11 10zM137 481q-1 1 -1 6q0 7 2 21t4 31t4 35t2 35q0 22 -4.5 35t-4.5 24
q0 16 10.5 25.5t30.5 9.5q11 0 17 -8t8.5 -19t3 -23t0.5 -19q0 -12 -6 -38.5t-15 -54.5t-19.5 -49t-20.5 -21q-7 0 -11 10z" />
    <glyph glyph-name="quotedblbase" unicode="&#x201e;" horiz-adv-x="248" 
d="M36 -239q-1 1 -1 6q0 7 2 21t4 31t4 35t2 35q0 22 -4.5 35t-4.5 24q0 16 10.5 25.5t30.5 9.5q11 0 17 -8t8.5 -19t3 -23t0.5 -19q0 -12 -6 -38.5t-15 -54.5t-19.5 -49t-20.5 -21q-7 0 -11 10zM137 -219q-1 1 -1 6q0 7 2 21t4 31t4 35t2 35q0 22 -4.5 35t-4.5 24
q0 16 10.5 25.5t30.5 9.5q11 0 17 -8t8.5 -19t3 -23t0.5 -19q0 -12 -6 -38.5t-15 -54.5t-19.5 -49t-20.5 -21q-7 0 -11 10z" />
    <glyph glyph-name="quotesinglbase" unicode="&#x201a;" horiz-adv-x="154" 
d="M36 -269q-1 1 -1 6q0 7 2 21t4 31t4 35t2 35q0 22 -4.5 35t-4.5 24q0 16 10.5 25.5t30.5 9.5q11 0 17 -8t8.5 -19t3 -23t0.5 -19q0 -12 -6 -38.5t-15 -54.5t-19.5 -49t-20.5 -21q-7 0 -11 10z" />
    <glyph glyph-name="multiply" unicode="&#xd7;" horiz-adv-x="579" 
d="M399 339l-46 -56q-8 -11 -17 -20.5t-18 -20.5l21 -21q23 -23 37 -35.5t16 -18.5q3 -8 6.5 -24t3.5 -23v-2q-1 -1 -4 -7.5t-14 -6.5q-13 -2 -38 18l-15 11q-13 9 -26 24t-29 29l-7 8q-32 -27 -50.5 -48t-26.5 -26l-1 -1q-8 -3 -23.5 -6t-22.5 -3h-3l-8 5q-5 5 -5 13
q0 6 3.5 15t13.5 22l12 16q10 13 24.5 26.5t28.5 29.5l8 8q-2 1 -4 3l-29 29q-5 6 -8.5 9.5t-5.5 6.5l-4 4q-23 23 -36.5 38.5t-13.5 28.5q0 14 10 20t17 6q10 0 16.5 -4.5t6.5 -7.5l62 -50q10 -8 20 -17l20 -18l51 51q14 9 23.5 18.5l16.5 16.5t13 11.5t15 4.5q8 0 15 -7
l3 -2q8 -8 8 -18q0 -8 -4.5 -16t-8.5 -8z" />
    <glyph glyph-name="exclam" unicode="!" horiz-adv-x="369" 
d="M178 179q-2 -18 -2.5 -29.5t-1 -18t-1 -8.5t-3.5 -2l-11 1q-13 1 -23.5 18.5t-10.5 53.5l14 239q-1 5 -1 9v9v12t1 12v13q8 78 14 132.5t9.5 92t5.5 60t2.5 36t0.5 20.5v14v32q0 16 1.5 33t4 31t4 22.5t1.5 6.5q0 2 -0.5 2.5t-0.5 1.5q0 2 3 2q11 -1 21.5 -7t12.5 -35
q1 -10 1.5 -13t1.5 -3l4 3q1 0 1 -11v1q-5 -92 -9 -167q-2 -32 -4 -63.5t-3.5 -58t-3 -44.5t-2.5 -24l-2 -23q-4 -21 -5.5 -43t-1.5 -33q0 -12 1.5 -15t1.5 -13q0 -23 -2 -42.5t-2 -37.5zM139 -62q-7 0 -15.5 0.5t-16.5 4t-13.5 11t-5.5 21.5q0 44 23.5 61.5t53.5 17.5
q22 -2 31 -18.5t9 -33.5q0 -14 -1.5 -25.5t-7.5 -20t-18.5 -13.5t-34.5 -5h-4z" />
    <glyph glyph-name="fraction" unicode="&#x2044;" horiz-adv-x="451" 
d="M69 -146q-10 -24 -15 -31.5t-11 -7.5l-9 5q-5 2 -9.5 9t-4.5 18v4q0 8 2 16.5t5 18.5l83 258q16 49 37.5 89.5t37.5 82.5q8 22 14 39t12 34.5t13.5 38.5t18.5 50l73 196q8 22 11.5 32.5t4.5 15t1.5 7t3.5 10.5q3 9 9 22.5t13 26.5t14.5 22t14.5 9l3 -1q6 -2 12.5 -6.5
t6.5 -16.5q0 -5 -3 -14q-4 -15 -7 -28t-9 -32.5t-17 -51t-30 -83.5q-19 -53 -37.5 -105t-35.5 -99.5t-31.5 -87t-26.5 -66.5l-7 -16q-18 -35 -27.5 -70.5t-20.5 -62.5q-5 -14 -10 -25t-7 -22z" />
    <glyph glyph-name="R" unicode="R" horiz-adv-x="503" 
d="M-32 176q5 25 7.5 47t2.5 42q0 19 -3 35t-9 32.5t-15 34.5t-22 40l-3 4q-3 6 -3 13q0 11 9 19t20 8h2q15 0 22 -13q24 -41 57.5 -65t75.5 -24h11q14 14 26 20t22 6q11 0 18.5 -6.5t7.5 -17.5t-8 -24t-25 -27q-9 -32 -14.5 -61.5t-5.5 -57.5q0 -51 22.5 -94.5t79.5 -78.5
q14 -8 28 -8q27 0 54 18.5t54.5 46t55 60t55.5 60.5q4 10 17 10q11 0 20 -6t9 -15q0 -5 -3 -9q-21 -41 -50 -83t-62.5 -76t-70.5 -55t-74 -21q-20 0 -40.5 7.5t-38.5 24.5q-59 54 -85 106.5t-26 115.5q0 25 4 52t11 56q-35 1 -67 15q3 -13 4 -24.5t1 -23.5q0 -22 -2.5 -45.5
t-7.5 -52.5q-2 -11 -12 -17t-21 -6t-20 6t-9 18l1 6v8z" />
    <glyph glyph-name="E" unicode="E" horiz-adv-x="511" 
d="M-46 257q0 63 12.5 115.5t39.5 90t69 58t101 20.5q21 -3 32 -16.5t15.5 -28.5t5 -28t0.5 -15q0 -39 -14 -85.5t-39.5 -90t-62 -78t-80.5 -48.5q16 -38 35.5 -58t40.5 -29t42.5 -10.5t42.5 -1.5h5q38 0 76 13t75 33.5t71.5 46t64.5 50.5q2 1 6 2q3 1 7 2t9 1
q12 0 23.5 -10t11.5 -24q0 -5 -1 -9t-2 -7q-2 -4 -3 -7q-36 -27 -76 -54t-82.5 -48.5t-86.5 -35t-88 -13.5q-30 0 -56 2.5t-51.5 12.5t-51 30.5t-53.5 56.5q-2 4 -8.5 15t-13 30t-11.5 48t-5 70zM156 467q-5 1 -9 1.5t-9 0.5q-27 0 -50 -15.5t-40 -43t-26.5 -65.5t-9.5 -83
q0 -15 1 -29.5t4 -28.5q34 16 63 44.5t50 61.5t33 65.5t12 55.5q0 30 -19 36z" />
    <glyph glyph-name="L" unicode="L" horiz-adv-x="373" 
d="M39 -125q-37 102 -60.5 200t-36.5 188.5t-17.5 170t-4.5 143.5q0 52 3 106.5t11 117.5q3 26 11 57.5t21 58.5t31 45t41 18q5 0 11.5 -2t14.5 -5q30 -16 44.5 -38.5t21 -50.5t8 -60t4.5 -67q2 -29 2.5 -57t0.5 -55q0 -71 -7.5 -134.5t-22 -124.5t-35 -123t-46.5 -129
q7 -45 16.5 -87.5t20 -75t21 -53t18.5 -22.5q59 0 94.5 26t59.5 67t44 92t48 102q4 8 10.5 10.5t13.5 2.5q10 0 18.5 -6.5t8.5 -17.5q0 -4 -3 -11q-34 -59 -59 -117t-53.5 -104.5t-67 -75.5t-100.5 -29q-56 0 -85 40zM-1 795q-8 -62 -11.5 -115.5t-3.5 -104.5
q0 -75 7.5 -149t21.5 -162q33 94 52 184.5t19 197.5q0 73 -3 122t-8.5 78t-12.5 41t-15 12t-16.5 -12.5t-15 -29t-10.5 -33t-4 -25.5v-4z" />
    <glyph glyph-name="I" unicode="I" horiz-adv-x="391" 
d="M-24 180q10 15 13.5 26t3.5 21q0 11 -2.5 22.5t-2.5 27.5q0 22 10.5 33t24.5 11q12 0 20 -7t14 -17.5t11 -23t11 -24.5q12 -24 22.5 -47t24.5 -44t34 -41t51 -38q16 -12 35 -12q22 0 42 16.5t36 37t27 40t17 25.5q10 10 23 10q10 0 17.5 -6.5t7.5 -17.5q0 -14 -14 -43
t-38 -58.5t-55.5 -51.5t-66.5 -22q-32 0 -64 17.5t-61.5 43.5t-53 56t-36.5 56q-3 -6 -7 -13t-9 -13.5t-11.5 -11t-13.5 -4.5q-14 0 -18 8t-4 21q0 11 12 23zM-5 531q4 7 12 15.5t19 8.5q9 0 18 -6t16 -14.5t11 -18t4 -17.5q0 -18 -10.5 -33.5t-28.5 -15.5q-9 0 -18.5 4
t-18 10t-13.5 14t-5 16q0 14 13 34z" />
    <glyph glyph-name="O" unicode="O" horiz-adv-x="518" 
d="M326 199q19 3 37 4t35 1q35 -1 56 -1.5t33 -0.5t17.5 -0.5t10.5 -0.5q16 0 23 -9t7 -20q0 -13 -8 -23.5t-22 -10.5q-24 2 -51 2.5t-59 0.5q-16 0 -32.5 -1t-35.5 -3q1 -7 1 -13.5v-13.5q0 -37 -13 -80t-37 -79.5t-59 -61t-80 -24.5t-79 21t-57.5 57.5t-35 86t-11.5 107.5
q0 44 7.5 88t25 78.5t44.5 56t66 21.5q34 0 61 -8t48.5 -20.5t38 -29t28.5 -33.5q28 -40 41 -91zM54 22q-1 -4 -1 -12q0 -14 8 -30t21 -29.5t29.5 -22.5t34.5 -9q31 0 56 19.5t41.5 48t25.5 61t9 59.5v10t-1 10q-39 -8 -77 -18t-69 -23t-51.5 -29t-25.5 -35zM81 130
q35 17 83 32t101 26q-7 21 -18 42.5t-27 38.5t-37 28t-48 11l-12 -1q-30 -3 -48.5 -16t-29 -34t-14 -49t-3.5 -59q0 -28 3 -55q19 19 50 36z" />
    <glyph glyph-name="Q" unicode="Q" horiz-adv-x="437" 
d="M423 -842q0 -12 -8 -18.5t-17 -6.5q-11 0 -18.5 6.5t-7.5 18.5q0 129 -21.5 238.5t-49 211t-53 201t-34.5 209.5q-22 -16 -52.5 -20t-55.5 -4q-38 0 -64 8.5t-42.5 24t-23.5 37t-7 47.5q0 49 16 94.5t44 80t67 55t85 20.5q72 0 106.5 -37.5t34.5 -120.5
q13 -10 29.5 -18.5t30.5 -8.5q9 0 16.5 3.5t14 8t13.5 8t15 3.5q12 0 20 -10.5t8 -20.5q0 -12 -10.5 -21.5t-25 -16t-29.5 -10t-24 -3.5q-18 0 -36 9.5t-32 17.5q-13 -43 -38 -74q0 -79 11 -151.5t27.5 -143t36 -141.5t36 -146t27.5 -156.5t11 -173.5zM31 150q0 -23 8.5 -39
t23 -27t32.5 -16t38 -5q58 0 85 34.5t27 92.5q0 24 -4 51t-12 55q-11 7 -28 11t-34 4q-22 0 -39.5 -7t-31 -18.5t-24 -26t-17.5 -29.5q-18 -35 -24 -80z" />
    <glyph glyph-name="bullet" unicode="&#x2022;" horiz-adv-x="442" 
d="M183 103q-20 0 -45 3t-47.5 16.5t-38 42.5t-15.5 82q9 41 23 68.5t34.5 44t48 23.5t62.5 7q27 -2 51 -14t41.5 -30t27.5 -39.5t10 -42.5v-11q0 -32 -2.5 -59.5t-16.5 -47.5t-45 -31.5t-88 -11.5z" />
    <glyph glyph-name="question" unicode="?" horiz-adv-x="593" 
d="M232 331q-23 -46 -39.5 -76.5t-26.5 -55t-14.5 -47.5t-4.5 -54v-10q-1 -17 -11.5 -26.5t-23.5 -9.5t-23 10t-10 31q2 52 12.5 91t26.5 73t36.5 68t43.5 76l59 110q2 8 4 12q21 57 38 106t17 92q0 38 -15.5 71.5t-50.5 62.5q-32 -5 -57 -11t-42.5 -16.5t-27 -26
t-9.5 -39.5q0 -15 3.5 -33t11.5 -40q3 -11 3 -19q0 -15 -8.5 -24.5t-19.5 -9.5q-15 0 -25.5 15t-17.5 36.5t-10 45t-3 39.5q0 40 17.5 68.5t45.5 47t62 27t66 8.5q31 0 53.5 -12.5t39 -31.5t27 -42.5t16 -46t8 -40.5t2.5 -27q0 -38 -9.5 -77.5t-25.5 -80t-36.5 -81.5
t-42.5 -82zM109 -122q-7 0 -15.5 0.5t-16.5 4t-13.5 11t-5.5 21.5q0 44 23.5 61.5t53.5 17.5q22 -2 31 -18.5t9 -33.5q0 -14 -1.5 -25.5t-7.5 -20t-18.5 -13.5t-34.5 -5h-4z" />
    <glyph glyph-name="K" unicode="K" horiz-adv-x="569" 
d="M381 480q-56 -30 -97.5 -62.5t-77 -68t-69 -73t-73.5 -77.5q24 -11 46 -30.5t42.5 -42t40.5 -46t41.5 -42t45 -30.5t49.5 -12q30 0 61 25t61 59t56 68.5t45 53.5q8 7 17 7q11 0 18 -10t7 -24q0 -15 -8 -26l-8 -12q-18 -25 -45.5 -60t-60 -66.5t-69.5 -54t-74 -22.5
q-38 0 -68 13t-54.5 33t-45.5 44.5t-41.5 47.5t-42.5 41.5t-48 26.5q-4 -77 -6.5 -158.5t-2.5 -178.5q0 -34 1 -57t9 -49q1 -3 1 -9q0 -15 -9.5 -23t-20.5 -8q-15 0 -23.5 18.5t-12.5 42.5t-5 48.5t-1 36.5q0 102 2.5 186.5t7.5 165.5q-8 8 -8 19t10 26l4 70q5 85 8 176.5
t3 201.5q0 69 -1.5 126t-3 112t-2.5 114t-1 131q0 17 9.5 25t20.5 8t21 -8t10 -25q0 -72 1 -131t2.5 -114t3 -112t1.5 -126q0 -114 -3.5 -207.5t-8.5 -181.5q38 37 70 74t67 72t76.5 67.5t97.5 60.5q9 3 17 3q16 0 25.5 -9.5t9.5 -21.5q0 -17 -17 -25z" />
    <glyph glyph-name="at" unicode="@" horiz-adv-x="921" 
d="M563 121q30 0 59.5 11.5t52 33t36.5 51.5t14 67q0 44 -27 91.5t-69 86.5t-94 64.5t-101 25.5q-57 0 -111 -28t-96.5 -73.5t-68.5 -103.5t-26 -118q0 -69 32 -128t84 -102.5t117 -68.5t131 -25q32 0 62 6t60 22q3 2 6 2h5q11 0 19 -5.5t8 -14.5q0 -15 -19.5 -25.5
t-46.5 -18t-55.5 -11t-46.5 -3.5q-83 0 -159 28t-134.5 79t-93.5 123t-35 159q0 46 15 91t41.5 86t62 76.5t77 61t86.5 40t90 14.5q61 0 123 -29.5t112.5 -76.5t82.5 -106t32 -119q0 -52 -19 -94.5t-50 -72.5t-71.5 -46.5t-83.5 -16.5h-15q-20 0 -33 7t-23 18
q-17 -20 -39.5 -34t-49.5 -19q-7 0 -15.5 1t-13.5 7q-23 15 -36 34t-20 41t-9 45.5t-2 49.5q0 24 4 43.5t14 33t27 21t43 7.5q59 0 100 -33q1 2 4 5q2 2 5 3.5t8 1.5q6 -1 9.5 -15t5 -32t1.5 -34.5v-22.5q0 -21 -4 -36q3 -11 9 -17.5t16 -6.5zM406 241q-20 0 -27 -7.5
t-7 -20.5q0 -15 1 -31.5t4 -32.5t9 -30t15 -24q20 5 35 19.5t23 33.5l2 15q1 8 2 15.5t1 13.5q0 20 -14 34.5t-44 14.5z" />
    <glyph glyph-name="F" unicode="F" horiz-adv-x="522" 
d="M-17 519v134q0 39 2 75t8.5 72t17.5 73t29 76q10 27 27.5 52t40 43.5t47.5 30t50 11.5q26 0 49 -13q60 -42 84.5 -99t24.5 -123q0 -46 -10 -94.5t-25.5 -98t-35.5 -99t-40 -95.5q-23 -53 -47.5 -96.5t-51 -82.5t-54 -74t-55.5 -69q0 -71 -1.5 -117t-4 -78.5t-5 -56.5
t-4.5 -49q58 60 112.5 106t111.5 85.5t120.5 76.5t140.5 80q7 5 15 5q11 0 17.5 -9t6.5 -19q0 -8 -4 -14t-13 -8q-81 -50 -145 -92.5t-123 -88t-118 -99t-131 -125.5q-11 -92 -27 -190t-42 -207q0 -17 -9 -25.5t-21 -8.5q-14 0 -26 12q-39 31 -56.5 69.5t-17.5 82.5
q0 35 10 71.5t27 73t40.5 71.5t50.5 67zM187 486q18 46 37.5 91.5t36 90t27 87t10.5 83.5q0 50 -19.5 92.5t-67.5 75.5q-14 9 -25 9q-13 0 -24 -8.5t-21 -22t-18 -29.5l-15 -30q-26 -55 -36 -103t-13 -95.5t-2.5 -97.5t-3.5 -110q-5 -76 -6.5 -145.5t-2.5 -135.5
q39 54 74.5 113t68.5 135zM-103 -564q10 48 17.5 93t14.5 89q-20 -34 -31.5 -67t-11.5 -64q0 -26 11 -51z" />
    <glyph glyph-name="A" unicode="A" horiz-adv-x="606" 
d="M-17 185q19 17 31 40.5t29 41.5q-5 18 -7 35.5t-2 37.5q0 19 5 49.5t14.5 59t22 49t27.5 20.5q7 0 15 -6q20 18 43.5 28.5t46.5 10.5q40 0 73 -27t56.5 -66t36.5 -81.5t13 -73.5q0 -37 -1 -55.5t-3 -26.5q0 -20 8.5 -40.5t23 -37t32 -26.5t35.5 -10q22 0 37 13t28 29
t25.5 29t29.5 13q13 0 20 -7.5t7 -17.5q0 -16 -14 -24q-30 -48 -63 -70.5t-84 -22.5h-7q-15 0 -34.5 9.5t-38.5 24t-34 30.5t-21 29q-17 -9 -30 -18t-26.5 -16t-29 -11t-36.5 -4q-22 0 -43 9t-39 23t-33 32.5t-25 37.5q-6 -9 -15 -19t-19 -19t-20 -14.5t-18 -5.5
q-11 0 -19.5 8.5t-8.5 19.5q0 9 12 20zM98 345q0 -19 7.5 -50t23 -61t38 -51.5t52.5 -21.5q25 0 44 10t31.5 26.5t18.5 37.5t6 43q0 23 -6.5 59t-21 70.5t-36.5 59t-53 24.5q-24 0 -43 -15t-32.5 -37t-21 -47.5t-7.5 -46.5z" />
    <glyph glyph-name="C" unicode="C" horiz-adv-x="469" 
d="M-33 180q16 25 31 52t28 49t22.5 37t14.5 18q8 33 24 63.5t40.5 53.5t56.5 36.5t73 13.5q46 0 83.5 -27t55.5 -74q4 -7 4 -15q0 -11 -9 -18t-20 -7q-9 0 -18 5t-14 16q-13 25 -38.5 42.5t-52.5 17.5q-36 0 -61.5 -15.5t-41.5 -39t-23.5 -52t-7.5 -54.5q0 -39 9.5 -77.5
t29.5 -69t52 -49t77 -18.5q28 0 51 9t42 25t34 36.5t26 44.5q5 9 12 13.5t15 4.5q13 0 24 -10t11 -27q0 -10 -4 -19q-31 -65 -84 -105.5t-128 -40.5q-48 0 -86 17.5t-65.5 47t-45 67.5t-24.5 79q-2 -4 -8.5 -16.5t-16 -26t-21 -24t-24.5 -10.5q-12 0 -20.5 8.5t-8.5 20.5v5
q0 5 6 13z" />
    <glyph glyph-name="B" unicode="B" horiz-adv-x="502" 
d="M-31 176q-5 30 -7.5 61t-2.5 63q0 61 7.5 124.5t19.5 124t27.5 116.5t32.5 103q9 25 19.5 59.5t24 71.5t30.5 73t38 64.5t47 46t57 17.5q28 0 46.5 -20t29.5 -50.5t16 -65.5t7 -65.5t1.5 -51l-0.5 -20.5q0 -112 -25 -210.5t-68.5 -183t-103.5 -155t-130 -127.5
q8 -32 21 -60.5t28.5 -50t33.5 -34t36 -12.5q23 0 48 19q34 25 51.5 52t25 53t8 49.5t1.5 41t5 28t18 10.5q10 0 21 -4q7 -3 24 -9t37 -13t40.5 -12t35.5 -5q14 0 20 4.5t14 4.5q14 0 23.5 -10.5t9.5 -24.5t-12.5 -25.5t-43.5 -11.5l-13 1q-27 2 -57 10.5t-56 17.5
q-2 -38 -7 -64.5t-17.5 -49t-34 -43.5t-55.5 -48q-41 -32 -84 -32q-32 0 -58.5 14.5t-48.5 39.5t-38.5 57.5t-26.5 68.5zM232 499q15 31 27.5 71t21 84t13 91t4.5 93q0 35 -3 71t-9 65.5t-14.5 48t-19.5 18.5q-12 0 -25.5 -17t-27.5 -43t-27.5 -58.5t-25 -64t-20.5 -58
t-14 -40.5l-4 -12q-17 -44 -33 -97.5t-28.5 -112t-20.5 -120t-8 -120.5q0 -20 1 -39.5t3 -39.5q67 59 120.5 128.5t89.5 151.5z" />
    <glyph glyph-name="D" unicode="D" horiz-adv-x="544" 
d="M320 1204q17 -88 26 -182.5t9 -191.5t-10 -192t-32 -182q-3 -11 -6 -29t-6 -40.5t-5 -48t-2 -51.5q3 -33 9.5 -70t18.5 -68t30 -51.5t44 -20.5t48 18.5t40 40.5t32.5 40.5t26.5 18.5t21.5 -9.5t9.5 -23.5q0 -9 -4 -16q-14 -20 -34 -44t-44.5 -45t-51.5 -35t-53 -14
q-16 0 -31.5 8.5t-29.5 22t-26.5 31.5t-22.5 36q-14 -21 -34 -35.5t-42.5 -23.5t-46.5 -12.5t-46 -3.5q-9 0 -15 6q-43 35 -70 92t-27 122q0 34 6.5 65t21.5 54t38.5 36.5t56.5 13.5q28 0 61 -12.5t59 -41.5q5 62 12 106q23 85 33 174.5t10 183.5q0 93 -9 185t-25 180
q-1 2 -1 7q0 12 10 19.5t22 7.5q10 0 18.5 -5.5t10.5 -19.5zM230 159q10 21 10 50q0 30 -10 57t-27 48t-39 33t-45 12q-19 0 -31.5 -10t-19.5 -26.5t-9.5 -37.5t-2.5 -44q0 -45 18 -79.5t54 -66.5q16 0 32 3t30 10t24.5 19.5t15.5 31.5z" />
    <glyph glyph-name="G" unicode="G" horiz-adv-x="536" 
d="M237 479q50 -107 82 -222t32 -236v-22t-1 -22l3 -59q44 67 84 131t71 126q4 11 10.5 15.5t13.5 4.5q11 0 21 -9.5t10 -22.5q0 -7 -4 -14q-50 -91 -101 -173.5t-100 -159.5l29 -612q0 -35 -7 -68.5t-21 -60t-35.5 -43t-51.5 -16.5q-44 0 -82 23.5t-65.5 59t-43 76.5
t-15.5 76q0 76 19.5 150.5t51.5 147.5t73.5 143.5t85.5 139.5q-4 110 -6 220l-2 29q-22 -41 -57 -66t-76 -25q-14 0 -30.5 3.5t-28.5 11.5q-26 1 -48 17t-40 40t-30.5 51.5t-18.5 51.5v11q0 32 13.5 69t38 69t58 53t73.5 21t77 -24l4 -3q-4 11 -11 25t-13.5 29t-11.5 28.5
t-5 22.5q0 13 9.5 21t20.5 8q16 0 25 -16zM123 -706q0 -39 11.5 -76.5t29.5 -67t41.5 -47t47.5 -17.5q5 0 16.5 3t23 17t20.5 42t9 78q0 126 -8 251t-13 250q-38 -61 -70.5 -118t-56.5 -111t-37.5 -104.5t-13.5 -99.5zM29 183q-1 -5 -1 -14q0 -27 11 -50t28 -39.5t39 -26
t45 -9.5q20 0 38.5 8t33 25.5t23 45.5t8.5 68q0 16 -6.5 38.5t-20 43.5t-34.5 36t-50 15q-21 0 -42 -10t-38 -27.5t-28 -41t-12 -51.5q5 -5 6 -11z" />
    <glyph glyph-name="H" unicode="H" horiz-adv-x="507" 
d="M-17 -3q-4 50 -6 78.5t-3 42.5t-1 18.5v6.5q0 49 4 94t8.5 88.5t8.5 87t4 88.5l18 532q1 17 10 26t22 9q12 0 22 -8.5t10 -25.5v-15q-5 -161 -12 -285t-7 -231q0 -6 -1 -17.5t-2.5 -24t-3 -24.5t-1.5 -18q8 19 25.5 39t40 37t46.5 28t46 11q44 0 90 -28
q45 -29 67.5 -63.5t32 -69.5t11 -68.5t5 -59.5t13.5 -41.5t37 -15.5h6q8 1 19 3t23 2q13 0 21 -10.5t8 -23.5t-8 -20t-20 -10.5t-25 -4.5t-23 -1q-38 0 -61 14.5t-37 38.5t-21.5 54.5t-13.5 62.5t-13 63.5t-20.5 56.5t-36.5 41.5t-60 19.5h-5q-27 0 -50 -19t-41.5 -49.5
t-32 -68.5t-23 -75t-14 -70t-4.5 -54q0 -60 12 -123q0 -2 0.5 -4t0.5 -4q0 -16 -11 -24t-24 -8q-11 0 -19 5.5t-11 16.5z" />
    <glyph glyph-name="N" unicode="N" horiz-adv-x="714" 
d="M-7 139q-8 2 -15.5 7t-7.5 13l1 5q0 1 4 7t8.5 13.5t8 14.5t4.5 10q8 33 23.5 66t36.5 60t47.5 45.5t56.5 21.5h9q44 0 72 -34.5t42 -83.5q35 72 69 104.5t61 32.5q24 0 44.5 -19.5t39 -49t35 -64t33.5 -64t35 -49t39 -19.5q10 0 17 3t14 8.5t14.5 11.5t19.5 12q3 1 8 1
q11 0 20 -8t9 -19q0 -9 -8 -17q-25 -23 -48.5 -35t-49.5 -12q-28 0 -51 16t-42 40t-35 53t-31 55.5t-29.5 46.5t-29.5 26q-3 0 -8.5 -2t-12.5 -5t-12.5 -6.5t-8.5 -6.5q-18 -24 -30 -44t-20 -40t-11.5 -41.5t-3.5 -48.5q-4 -36 -15.5 -45t-25.5 -9q-11 0 -18.5 7.5
t-7.5 21.5v55q0 26 -4 52.5t-12.5 48.5t-21 35.5t-29.5 13.5q-29 -6 -49 -22t-34 -36.5t-24.5 -42.5t-21.5 -40.5t-23.5 -31t-30.5 -12.5z" />
    <glyph glyph-name="S" unicode="S" horiz-adv-x="810" 
d="M261 563q-12 -47 -32.5 -95t-46 -95t-55.5 -92.5t-62 -86.5l-47 -60q-9 -10 -24 -10q-14 0 -26.5 9t-12.5 23q0 9 8 20l38 48q31 39 63 81.5t59 87t47.5 89.5t29.5 90q13 34 21.5 46t25.5 14h4q65 -27 114.5 -73.5t83 -100.5t50.5 -109t17 -98q29 -6 56 -16.5t52.5 -21
t50.5 -18.5t50 -8q32 7 49.5 10.5t26.5 4.5t12.5 0.5t7.5 0.5h5q11 0 14 -5t5 -13q0 -26 -12 -40.5t-29.5 -21t-36.5 -8t-34 -1.5q-30 0 -59 8.5t-57 19.5t-55.5 22t-55.5 16q-5 -40 -22 -71q-14 -26 -41 -48t-73 -22h-10q-13 0 -30 9.5t-32.5 25t-26 37t-10.5 45.5
q0 5 0.5 9t1.5 9q21 28 41.5 45t42.5 26t46 11.5t51 2.5q1 3 1 11q0 26 -14 67.5t-38.5 85t-58.5 82t-73 58.5zM422 185q-24 -3 -41 -12.5t-39 -28.5q11 -21 23.5 -29t20.5 -8q23 2 36.5 26t18.5 53h-9.5t-9.5 -1z" />
    <glyph glyph-name="T" unicode="T" horiz-adv-x="475" 
d="M198 616q-30 0 -52.5 -1.5t-43 -3.5t-41 -5t-47.5 -6q-28 0 -53 3v-36l-6 -108q5 -61 18.5 -126t39.5 -118t65.5 -87.5t96.5 -34.5q40 0 76.5 11.5t72 27.5t70.5 33t73 29q7 4 14 4q12 0 19.5 -10.5t7.5 -23.5q0 -22 -21 -29q-39 -14 -77.5 -32.5t-77.5 -36t-79.5 -29.5
t-84.5 -12q-29 0 -55.5 6.5t-49.5 23.5q-55 34 -89 87.5t-53 114t-25.5 121t-6.5 108.5q0 11 0.5 18.5t1 19.5t1 32t0.5 57q-14 2 -32 2.5t-34 3t-27 10.5t-11 25q0 13 7 24t22 11q20 0 38.5 -2t36.5 -5v262h-5q-1 0 -1 1q0 14 9.5 21t21.5 7q14 0 26 -9.5t12 -29.5v-262
q17 -2 31 -2.5t28 -0.5l250 20q14 -4 21.5 -15t7.5 -24q0 -15 -10 -22t-25 -10t-31.5 -2.5t-28.5 0.5z" />
    <glyph glyph-name="U" unicode="U" horiz-adv-x="696" 
d="M-29 264q-1 10 -1 19.5v18.5q0 38 2.5 69.5t2.5 59.5t-4 48q0 14 7.5 26.5t21.5 12.5q8 0 20 -12.5t19 -26.5v-49l-9 -157q0 -33 4.5 -65t16 -59.5t32.5 -48.5t54 -32l39 -10q40 0 72 29.5t55 73.5t37 95.5t19 95.5q-6 25 -6 49q0 11 1.5 23t5.5 22t11.5 16.5t20.5 6.5
q7 0 12.5 -4.5t9 -11t5.5 -13t2 -10.5q0 -56 10 -114.5t30 -106.5t49 -79t67 -31q7 0 20 7t26.5 18.5t25.5 25.5t18 28q4 7 12 12.5t19 5.5q12 0 22.5 -7t10.5 -22q0 -17 -14.5 -39t-36 -41.5t-47 -33.5t-47.5 -14q-52 0 -85 22t-63 73q-3 5 -9 16t-13 25.5t-12.5 32
t-6.5 35.5q-13 -44 -33.5 -88t-47.5 -79.5t-61.5 -58t-76.5 -22.5q-31 0 -70 14q-44 15 -71 41t-41.5 60t-19.5 73.5t-5 80.5z" />
    <glyph glyph-name="V" unicode="V" horiz-adv-x="811" 
d="M-20 192q22 19 37.5 45.5t30.5 51.5t31.5 42.5t40.5 17.5q21 0 40 -9t33.5 -29t23 -52t8.5 -77q0 -33 -7.5 -79.5t-7.5 -94.5q0 -38 10 -68t26 -51t36 -32t41 -11q34 0 61.5 23.5t46.5 61t29 85t10 94.5q0 42 -8.5 80t-26.5 67q-7 11 -7 20q0 23 17 29.5t60 6.5
q36 0 68 -21t60.5 -46t55 -46t52.5 -21q6 0 14 3.5t17 7l18 7t18 3.5q14 0 23.5 -5t9.5 -22q0 -24 -29 -41.5t-73 -17.5q-29 0 -61.5 9.5t-64.5 32.5l-108 93q22 -53 22 -121q0 -60 -16 -122t-44.5 -112.5t-67 -82t-83.5 -31.5q-33 0 -65 17t-59 55q-26 35 -34.5 72t-8.5 76
q0 45 6.5 90t6.5 89q0 12 -1 27t-4.5 29t-10.5 23.5t-19 9.5q-13 0 -27.5 -16t-29 -37t-28 -41t-24.5 -27q-12 -9 -23 -9t-18.5 7.5t-7.5 20.5q0 6 2.5 13t8.5 13z" />
    <glyph glyph-name="J" unicode="J" horiz-adv-x="198" 
d="M37 250q5 -38 10 -76.5t10 -78.5q42 42 80 67t67 25q24 0 24 -16q0 -9 -19.5 -27t-46 -40.5t-53.5 -46t-42 -41.5q8 -73 13 -147t5 -149t-6.5 -148t-22 -143t-41 -136.5t-63.5 -126.5q-20 -31 -44 -50.5t-51 -19.5q-15 0 -37.5 14t-43.5 40.5t-36 65t-15 88.5
q0 44 11.5 89t27.5 89.5t32.5 88t26.5 85.5q3 11 10.5 16.5t15.5 5.5q11 0 19.5 -8t8.5 -23q0 -6 -1 -9q-8 -36 -22.5 -76.5t-29 -83.5t-25.5 -87t-11 -85q0 -35 9 -62.5t21.5 -47t24.5 -30t18 -10.5q11 0 21 12t20 31q29 43 48 97.5t30.5 116t16 127t4.5 130.5
q0 103 -4 193t-8.5 156t-8 103.5l-3.5 37.5q-2 16 -6.5 45.5t-11.5 91.5l-1 10q0 16 6.5 23t16.5 7q14 0 28 -11t22 -29zM-3 442q-4 -4 -8 -7t-8 -3h-22q-8 0 -12 2.5t-4 18.5v17q5 19 18.5 30t30.5 11q11 -12 16 -18t5 -19q0 -3 -6 -15t-10 -17z" />
    <glyph glyph-name="W" unicode="W" horiz-adv-x="808" 
d="M-6 135q-14 0 -19.5 6.5t-5.5 16.5q0 11 11.5 24t27.5 24t31.5 18.5t24.5 8.5h6q25 0 40 -17t23.5 -44.5t11.5 -60.5t4 -65.5t1 -59.5t2 -42q7 -33 17 -63.5t36 -50.5q6 -7 17 -12.5t18 -5.5q20 0 39 14.5t37 37.5t33.5 51t27 55.5t19.5 51t10 36.5q6 40 12 75.5t6 82.5
q0 26 26 26q14 0 24.5 -6.5t10.5 -19.5q0 -18 1.5 -49t5.5 -68t10 -77t14.5 -75.5t20.5 -62t27 -37.5h9q6 0 11 4.5t9.5 10.5t8 12t6.5 9q13 23 18 46.5t6.5 48.5t3 52t7.5 57q3 23 7.5 39.5t14.5 28t27.5 18.5t47.5 10q6 0 28 4.5t42 4.5q13 0 19.5 -5.5t6.5 -12.5
q0 -12 -17 -21t-39.5 -16.5t-44 -13.5t-31.5 -10q-6 -89 -13.5 -146t-19 -92t-29 -52.5t-43.5 -27.5q-7 -7 -17.5 -8t-17.5 -1q-23 0 -41 17.5t-32 43t-24 54.5t-17 52v17q-10 -30 -29 -67.5t-45.5 -71.5t-58.5 -57t-68 -23q-20 0 -39.5 7.5t-39.5 27.5q-33 24 -49.5 57
t-23 70t-7 75t-1 72t-5.5 61t-20 42h-8q-14 0 -28.5 -7.5t-27.5 -20.5h-6z" />
    <glyph glyph-name="X" unicode="X" horiz-adv-x="388" 
d="M24 392q-5 -3 -10 -3q-14 0 -24.5 10.5t-10.5 27.5q11 35 18.5 44.5t16.5 9.5q12 0 25.5 -11.5t26.5 -29t25.5 -37t21.5 -36.5t14.5 -28t5.5 -10q26 45 38 77.5t17.5 55t7.5 36.5t8 23q11 16 27 17q11 0 22 -11t11 -21v-8q-6 -36 -20 -71.5t-30 -65t-29.5 -50.5
t-18.5 -27q9 -12 18.5 -26t20.5 -25q33 -30 73.5 -40.5t73.5 -15.5l6 -1q2 9 8.5 15t14.5 6q11 0 23.5 -10.5t12.5 -27.5q0 -21 -19.5 -30.5t-39.5 -9.5q-22 0 -50 5.5t-55.5 16t-51.5 24.5t-37 31l-36 41q-14 -13 -31.5 -30.5t-35.5 -33t-34.5 -26.5t-26.5 -11
q-11 0 -21.5 7t-10.5 21v6t1 5q32 30 63.5 57t58.5 56l-8 13q-6 10 -20.5 31t-38.5 60z" />
    <glyph glyph-name="Y" unicode="Y" horiz-adv-x="409" 
d="M26 162q0 -17 5 -35t14.5 -32t23 -23t29.5 -9q20 0 42.5 16.5t48.5 55.5q11 16 21 39.5t18 47t13 44.5t5 34q0 14 7.5 21t17.5 7q12 0 22.5 -9.5t10.5 -26.5q-26 -167 -52.5 -329.5t-38.5 -329.5q0 -19 -4 -64t-12 -101q82 23 163 44t157 56q7 3 13 3q12 0 20 -9t8 -20
q0 -7 -4 -13.5t-12 -10.5q-42 -22 -86.5 -38t-89.5 -29.5t-91 -25.5t-91 -26q-9 -43 -22.5 -84t-31.5 -72.5t-40.5 -51t-50.5 -19.5h-8q-21 3 -35.5 16t-23 31t-12 38.5t-3.5 38.5q3 30 14 50.5t26.5 34.5t33.5 24t36 19l5 3q15 6 30.5 11.5t30.5 10.5q9 52 13.5 101t7.5 83
q8 111 23 220t33 219q-24 -29 -53.5 -47.5t-65.5 -18.5q-33 0 -56 12.5t-37.5 32t-21 44.5t-6.5 50q0 24 5 46t14 39.5t21 28t26 10.5q6 0 14 -3.5t16 -9t13.5 -12.5t5.5 -14q0 -11 -10 -19t-23 -8q-8 0 -15 3q-11 -19 -11 -44zM98 -631q-35 -14 -58.5 -34.5t-23.5 -52.5
q0 -8 2 -17t5 -17t8 -13.5t11 -5.5q12 0 23 13.5t21 34.5t18.5 47.5t14.5 52.5q-5 -2 -10.5 -4t-10.5 -4z" />
    <glyph glyph-name="Z" unicode="Z" horiz-adv-x="681" 
d="M173 238q17 15 37 23.5t41 14.5q-9 51 -23 89q-22 -22 -47.5 -39.5t-51.5 -31t-52 -24t-48 -18.5q5 -9 9.5 -18.5t6.5 -23.5q-1 -12 -2.5 -24t-6.5 -22.5t-13.5 -17t-23.5 -6.5q-11 0 -19 11t-8 21q0 9 3 14.5t7 9.5t7.5 8t5.5 11q0 9 -4 16t-9 13.5t-9 12.5t-4 14
q0 13 7.5 23.5t19.5 14.5q65 18 118.5 49.5t81.5 87.5q9 14 28 14q13 0 26 -15.5t24 -39t19.5 -52t14.5 -55.5q6 3 17.5 6.5t25.5 7t28.5 6t25.5 2.5q14 0 14 -7q0 -4 -3 -10t-13.5 -15.5t-30.5 -24t-53 -35.5q2 -20 3.5 -41t1.5 -41q34 6 68 6q19 0 42 -3.5t45.5 -7t42 -7
t32.5 -3.5q36 0 54.5 9t30 20.5l21.5 21.5t29 12q18 0 18 -31v-5q0 -10 -14 -26t-35 -31t-45 -26t-44 -11q-25 0 -46.5 3.5t-42 8t-41 8.5t-42.5 4q-37 0 -77 -6q-4 -38 -13 -75t-25.5 -66t-41 -47t-60.5 -18q-23 0 -38.5 11t-25 27t-13.5 34.5t-4 33.5q0 32 12.5 56
t34.5 42t52 31t64 23q0 25 -0.5 41.5t-2.5 31.5q-14 -5 -28 -11t-25 -6q-17 0 -29.5 9t-12.5 21q0 9 9 18zM164 6q-5 -10 -5 -23q0 -15 6.5 -28t19.5 -13q11 0 21.5 10.5t20 28t17 39.5t11.5 46q-29 -11 -53.5 -25.5t-37.5 -34.5z" />
    <glyph glyph-name="periodcentered" unicode="&#xb7;" horiz-adv-x="403" 
d="M177 185q-10 0 -22.5 1t-23.5 8t-18.5 21t-7.5 40q8 41 28 56t55 15q13 -1 25 -7t20.5 -15t13.5 -19.5t5 -20.5v-6q0 -16 -1 -29.5t-8 -23t-22.5 -15t-43.5 -5.5z" />
    <glyph glyph-name="Zcaron" unicode="&#x17d;" horiz-adv-x="681" 
d="M173 238q17 15 37 23.5t41 14.5q-9 51 -23 89q-22 -22 -47.5 -39.5t-51.5 -31t-52 -24t-48 -18.5q5 -9 9.5 -18.5t6.5 -23.5q-1 -12 -2.5 -24t-6.5 -22.5t-13.5 -17t-23.5 -6.5q-11 0 -19 11t-8 21q0 9 3 14.5t7 9.5t7.5 8t5.5 11q0 9 -4 16t-9 13.5t-9 12.5t-4 14
q0 13 7.5 23.5t19.5 14.5q65 18 118.5 49.5t81.5 87.5q9 14 28 14q13 0 26 -15.5t24 -39t19.5 -52t14.5 -55.5q6 3 17.5 6.5t25.5 7t28.5 6t25.5 2.5q14 0 14 -7q0 -4 -3 -10t-13.5 -15.5t-30.5 -24t-53 -35.5q2 -20 3.5 -41t1.5 -41q34 6 68 6q19 0 42 -3.5t45.5 -7t42 -7
t32.5 -3.5q36 0 54.5 9t30 20.5l21.5 21.5t29 12q18 0 18 -31v-5q0 -10 -14 -26t-35 -31t-45 -26t-44 -11q-25 0 -46.5 3.5t-42 8t-41 8.5t-42.5 4q-37 0 -77 -6q-4 -38 -13 -75t-25.5 -66t-41 -47t-60.5 -18q-23 0 -38.5 11t-25 27t-13.5 34.5t-4 33.5q0 32 12.5 56
t34.5 42t52 31t64 23q0 25 -0.5 41.5t-2.5 31.5q-14 -5 -28 -11t-25 -6q-17 0 -29.5 9t-12.5 21q0 9 9 18zM164 6q-5 -10 -5 -23q0 -15 6.5 -28t19.5 -13q11 0 21.5 10.5t20 28t17 39.5t11.5 46q-29 -11 -53.5 -25.5t-37.5 -34.5zM508 1399l3 -1q9 0 9 -8v-4q0 -9 -10 -24.5
t-25.5 -34t-35 -38t-39 -35t-37.5 -25.5t-30 -10h-4q-20 2 -43 18t-45.5 39t-44 49t-38.5 49l-7 9q0 4 1.5 8.5t8.5 4.5h9q0 -1 1 -1t1 -0.5t2 -0.5q7 -4 27 -21.5t44 -36.5t47.5 -34.5t37.5 -15.5q21 4 47 22t50 38t42.5 36t25.5 16zM317 687l3 -1q9 0 9 -8v-4
q0 -9 -10 -24.5t-25.5 -34t-35 -38t-39 -35t-37.5 -25.5t-30 -10h-4q-20 2 -43 18t-45.5 39t-44 49t-38.5 49l-7 9q0 4 1.5 8.5t8.5 4.5h9q0 -1 1 -1t1 -0.5t2 -0.5q7 -4 27 -21.5t44 -36.5t47.5 -34.5t37.5 -15.5q21 4 47 22t50 38t42.5 36t25.5 16z" />
    <glyph glyph-name="less" unicode="&#x3c;" horiz-adv-x="621" 
d="M460 407q-50 -14 -90 -30t-76 -35.5t-71 -41t-75 -45.5q23 -9 45 -16t49 -14q40 -15 70.5 -30t57.5 -31.5t53 -35.5t58 -43q12 -9 12 -22q0 -10 -6.5 -18t-17.5 -8q-9 0 -16 6l-21 15q-26 19 -49.5 34t-47.5 28t-50 24.5t-57 23.5q-24 9 -54.5 19t-58.5 20.5t-47 22
t-19 23.5q0 8 7.5 14.5t24.5 14.5q52 27 94.5 52t84 47t86 41.5t100.5 34.5q4 2 12 2q11 0 17 -7.5t6 -16.5q0 -19 -21 -28z" />
    <glyph glyph-name="greater" unicode="&#x3e;" horiz-adv-x="645" 
d="M111 424q61 -14 109.5 -29t94 -33t94 -39t109.5 -47q21 -6 21 -20q0 -8 -7 -15q-32 -39 -65 -65t-68 -46t-73.5 -39.5t-80.5 -45.5q-6 -3 -12 -3q-11 0 -18 9t-7 19q0 12 8 17q38 21 71.5 37.5t64.5 33t59 36.5t55 48q-51 21 -94.5 39.5t-86 35t-87.5 31.5t-100 27
q-11 2 -16 9.5t-5 15.5q0 10 6 18t17 8q3 0 11 -2z" />
    <glyph glyph-name="bracketleft" unicode="[" horiz-adv-x="673" 
d="M487 1056q-23 -8 -46 -8q-15 0 -27.5 2t-20.5 2h-24t-22.5 0.5t-30.5 0.5h-48q-14 0 -15 -4q-11 -25 -15 -59t-4 -75q0 -54 5.5 -114.5t12 -119.5t12 -112t5.5 -92v-18q-7 -90 -17 -193t-19.5 -212t-16 -220t-6.5 -215q0 -52 1.5 -101.5t6.5 -95.5q58 4 108.5 9t112.5 19
q3 1 9 1q12 0 18.5 -7.5t6.5 -16.5q0 -8 -4.5 -14t-14.5 -8q-38 -9 -69.5 -16.5t-62 -13t-62 -10t-69.5 -7.5q-11 0 -17.5 7t-13.5 24q-7 51 -9.5 107.5t-2.5 116.5q0 104 6.5 215.5t16 221.5t19 214.5t15.5 194.5q1 8 1 16v17q0 42 -4.5 95t-9.5 110.5t-9.5 116t-4.5 111.5
q0 40 2.5 74.5t11.5 60t26.5 40.5t47.5 15q13 -3 28.5 -4t32.5 -1h121q9 0 19.5 2.5t20.5 2.5t17 -5.5t7 -23.5q0 -10 -6 -18.5t-19 -11.5z" />
    <glyph glyph-name="bracketright" unicode="]" horiz-adv-x="597" 
d="M123 1048q40 9 73.5 15t64.5 12t62.5 12t69.5 15q23 0 31 -10.5t8 -27.5q-9 -42 -15.5 -92.5t-10 -100.5t-5 -95.5t-1.5 -77.5q0 -74 4.5 -151t4.5 -173v-814q-7 -17 -18.5 -23.5t-28.5 -6.5q-23 3 -42 3q-26 0 -49 -4.5t-46.5 -10.5t-48 -11.5t-53.5 -7.5
q-15 0 -23.5 9.5t-8.5 20.5t7.5 19.5t24.5 10.5q32 3 59 8.5t52 11t50.5 9t54.5 3.5v783q6 10 7 19.5t1 19.5q0 85 -3 154t-3 138q0 29 1 71.5t3 89t6.5 92.5t10.5 82q-58 -11 -109 -23t-114 -23q-17 0 -26 11t-9 22q0 8 4.5 14.5t14.5 6.5z" />
    <glyph glyph-name="asciicircum" unicode="^" horiz-adv-x="655" 
d="M430 339q-14 50 -30 90t-35.5 76t-41 71t-45.5 75q-9 -23 -16 -45t-14 -49q-15 -40 -30 -70.5t-31.5 -57.5t-35.5 -53.5t-43 -57.5q-9 -12 -22 -12q-10 0 -18 6.5t-8 17.5q0 8 6 16l15 21q19 26 34 49.5t28 47.5t24.5 50t23.5 57q9 24 19 54.5t20.5 58.5t22 47t23.5 19
q8 0 14.5 -8t14.5 -24q27 -52 52 -94.5t47 -84t41.5 -86t34.5 -100.5q2 -4 2 -12q0 -11 -7.5 -17t-16.5 -6q-19 0 -28 21z" />
    <glyph glyph-name="ogonek" unicode="&#x2db;" horiz-adv-x="833" 
d="M208 23q8 0 16.5 1t18.5 1q8 0 17.5 -1.5t9.5 -11.5t-4.5 -25t-9.5 -32t-10 -34.5t-6 -33.5q0 -12 5.5 -27.5t14 -29t18.5 -23t21 -9.5q39 0 79 7t78 26q6 2 8 2q8 0 14.5 -7t6.5 -21q0 -24 -15 -38t-41 -21.5t-60.5 -9.5t-74.5 -3q-20 1 -42.5 15.5t-42 36.5t-32.5 47
t-13 47q0 17 6 41.5t14 47.5t15 39t9 16z" />
    <glyph glyph-name="florin" unicode="&#x192;" horiz-adv-x="426" 
d="M449 158q-16 -27 -44 -74t-62 -104.5t-70.5 -120t-69.5 -119t-59 -102t-39 -69.5q3 -27 6 -54.5t5 -55.5q4 -48 11.5 -104t7.5 -113q0 -21 -3 -51t-10 -57t-19.5 -46t-31.5 -19q-20 0 -42 18.5t-41.5 50t-32 74t-12.5 90.5q0 33 8 69.5t21 73.5t30.5 74t36.5 72
q-11 90 -23 178.5t-23 163t-19 127.5t-11 71q-9 59 -17 105t-15 85t-13 75.5t-10 77t-6 88t-2 108.5q0 25 1 56.5t5 64t13 64t25 56t40 39.5t58 15q36 0 58 -28t35 -67.5t19 -82t9 -71.5l1 -9q0 -56 -2.5 -107t-5.5 -91.5t-5.5 -68.5t-2.5 -38q-18 -107 -50 -175t-74 -110
q14 -109 32.5 -218.5t34.5 -222.5q20 31 46.5 78t56 100t61 108t62 102t59.5 82t53 49q3 1 7 1q10 0 14.5 -4t4.5 -17q0 -8 -6 -17zM82 396q9 48 11.5 123.5t2.5 166.5q0 60 -6 110.5t-20 81.5l-5 5q-8 7 -13.5 11t-12.5 4q-27 0 -42 -27t-22 -64t-8.5 -75.5t-1.5 -61.5
q0 -82 4 -138.5t10.5 -106t15 -99.5t18.5 -119q15 23 35.5 72.5t33.5 116.5zM13 -683q-2 -14 -3 -25t-1 -22q0 -33 11.5 -57t39.5 -56q4 14 5.5 36t1.5 50q0 44 -3.5 100.5t-10.5 119.5q-14 -35 -24.5 -71.5t-15.5 -74.5z" />
    <glyph glyph-name="asciitilde" unicode="~" horiz-adv-x="662" 
d="M141 259q1 0 6.5 6t14.5 13t22 13t29 6h10q20 -3 38.5 -13t36.5 -21.5t34.5 -20.5t32.5 -9q23 0 35.5 11t22 24t20.5 24t32 11q14 0 17.5 -5t3.5 -13q0 -23 -12 -44t-30.5 -37.5t-41 -26t-43.5 -9.5t-41.5 10t-39.5 22.5t-35.5 23.5t-29.5 13l-5 1q-9 0 -17 -5.5t-15 -12
t-13.5 -12t-12.5 -5.5q-10 0 -20 7.5t-10 30.5q0 7 2 12.5t9 5.5z" />
    <glyph glyph-name="dagger" unicode="&#x2020;" horiz-adv-x="411" 
d="M220 219h-31q0 -22 -0.5 -40.5t-1.5 -34.5l-1 -23q-1 -14 -2 -27.5t-1 -26.5q0 -63 1.5 -113t3.5 -87l-8 -257q-2 -39 -5.5 -49t-10.5 -10l-10 1q-14 0 -26 19.5t-12 61.5l-13 318q-1 11 -1 21v21q0 64 5.5 119.5t7.5 109.5h-48q-17 0 -33 1.5t-28 5.5t-19.5 11t-7.5 18
q8 20 18.5 23.5t17.5 3.5q1 -1 8 -1q11 0 20 2t18 2l54 -3q0 21 -0.5 40t-1 40.5t-0.5 47v58.5v279q0 32 -0.5 46.5t-1.5 21t-1.5 10t-0.5 13.5q0 13 1 34t4.5 40.5t9.5 34t16 14.5q5 0 11 -1t11 -5t8.5 -12t5.5 -22q2 -21 4 -38t3.5 -44.5t2.5 -71.5t1 -119q0 -98 1.5 -194
t1.5 -175h102q6 -6 10 -12q4 -5 7 -11.5t3 -13.5q0 -11 -12.5 -19.5t-47.5 -8.5q-6 0 -13.5 0.5t-18.5 1.5z" />
    <glyph glyph-name="daggerdbl" unicode="&#x2021;" horiz-adv-x="498" 
d="M145 206h43q0 9 0.5 18t0.5 19v29h-48q-17 0 -33 1.5t-28 5.5t-19.5 11t-7.5 18q8 20 18.5 23.5t17.5 3.5q1 -1 8 -1q11 0 20 2t18 2l53 -3q0 27 -0.5 58t-0.5 78v279q0 32 -0.5 46.5t-1.5 21t-1.5 10t-0.5 13.5q0 13 1 34t4.5 40.5t9.5 34t16 14.5q5 0 11 -1t11 -5
t8.5 -12t5.5 -22q2 -21 4 -38t3.5 -44.5t2.5 -71.5t1 -119q0 -83 1 -165t2 -154h102q6 -6 10 -12q4 -5 7 -11.5t3 -13.5q0 -11 -12.5 -19.5t-47.5 -8.5q-6 -1 -13.5 0.5t-18.5 1.5h-30v-34.5t-1 -31.5h35q17 0 33 -1.5t28 -5.5t19.5 -11t7.5 -18q-8 -20 -18.5 -23.5
t-17.5 -3.5q-1 1 -8 1q-11 0 -20 -2t-18 -2l-43 2l-1 -18q-1 -14 -2 -27.5t-1 -26.5q0 -63 1.5 -113t3.5 -87l-8 -257q-2 -39 -5.5 -49t-10.5 -10l-10 1q-14 0 -26 19.5t-12 61.5l-13 318q-1 11 -1 21v21q0 41 2.5 78t5.5 72h-111q-6 6 -10 12q-4 5 -7 11.5t-3 13.5
q0 11 12.5 19.5t47.5 8.5q6 0 13.5 -0.5t18.5 -1.5z" />
    <glyph glyph-name="asterisk" unicode="*" horiz-adv-x="534" 
d="M413 292q-5 -18 -25 -18h-9q-25 0 -43.5 -9.5t-41.5 -16.5q6 -2 18 -12.5t25.5 -23.5t25 -25.5t17.5 -18.5q9 -6 9 -18q0 -11 -10 -21.5t-26 -10.5q-6 0 -16 7.5t-22 18.5t-24.5 23t-23.5 21v-5q0 -8 1.5 -14t1.5 -11v-23q0 -9 -2 -22t-6.5 -24.5t-12 -20t-19.5 -8.5
t-19.5 8.5t-7.5 19.5q0 14 5.5 23t5.5 26l-1 12q-2 12 -2 21v18l2 28q-17 -8 -30 -17.5t-30 -18.5l-17 -9q-8 -5 -11 -8t-11 -3q-18 0 -28.5 9.5t-10.5 26.5q0 6 2.5 14.5t15.5 15.5l11 6q1 1 2.5 2t8.5 4q9 5 15 8.5t11.5 6.5t11.5 6t15 7q-22 16 -40 35l-13 13
q-10 10 -10 22v4q7 23 31 23q11 0 22.5 -7.5t23 -17t21 -19.5t16.5 -15q2 10 2.5 22t2.5 23v68q6 21 28 21q6 0 17 -7t15 -31q-1 -20 -2 -32.5t-2 -22t-2 -17.5t-1 -19q26 8 48 18.5t48 10.5q22 0 31.5 -12.5t9.5 -24.5q0 -6 -1 -9z" />
    <glyph glyph-name="plus" unicode="+" horiz-adv-x="577" 
d="M298 406l7 -72q2 -13 2.5 -26t1.5 -27h30q18 0 32 0.5t24 0.5t20.5 -3.5t19.5 -9.5t15.5 -13t8.5 -13q0 -8 -8 -15t-37 -12l-19 -3q-16 -2 -35.5 -1.5t-40.5 -0.5l-11 1q-1 -12 -1 -22.5v-20.5q0 -16 0.5 -28t0.5 -20q0 -7 -3.5 -17.5t-9 -20t-12.5 -16t-14 -6.5
q-9 0 -15.5 8t-11.5 36l-3 19q-3 17 -2 36.5t0 40.5v11h-46q-8 1 -12.5 1h-8.5h-6q-42 0 -65 3.5t-25 24.5q0 17 9.5 23.5t17.5 7.5q2 0 3.5 -0.5t2.5 -0.5l79 8q13 2 26 2.5t27 1.5v72q1 3 1 9q0 36 3.5 58.5t23.5 22.5q17 0 23.5 -9.5t7.5 -17.5q0 -2 -0.5 -3.5t-0.5 -2.5
z" />
    <glyph glyph-name="comma" unicode="," horiz-adv-x="192" 
d="M45 -106q-1 1 -1 6q0 7 2 21t4 31t4 35t2 35q0 22 -4.5 35t-4.5 24q0 16 10.5 25.5t30.5 9.5q11 0 17 -8t8.5 -19t3 -23t0.5 -19q0 -12 -6 -38.5t-15 -54.5t-19.5 -49t-20.5 -21q-7 0 -11 10z" />
    <glyph glyph-name="hyphen" unicode="-" horiz-adv-x="516" 
d="M308 219q-30 0 -46 0.5t-25 1t-13.5 1t-10.5 0.5h-58q-17 0 -33 1.5t-28 5.5t-19.5 11t-7.5 18q8 20 18.5 23.5t17.5 3.5q1 -1 8 -1q11 0 20 2t18 2l62 -3q25 -1 32 -1.5t14.5 -1t25 -0.5h62.5h35q6 -6 10 -12q4 -5 7 -11.5t3 -13.5q0 -11 -12.5 -19.5t-47.5 -8.5
q-6 0 -13.5 0.5t-18.5 1.5z" />
    <glyph glyph-name="period" unicode="." horiz-adv-x="212" 
d="M68 -2q-8 0 -16.5 1t-16 6.5t-12 17t-4.5 32.5q7 32 27 45.5t48 13.5q22 -2 31 -18.5t9 -33.5q0 -14 -1.5 -25.5t-7.5 -20t-18.5 -13.5t-34.5 -5h-4z" />
    <glyph glyph-name="slash" unicode="/" horiz-adv-x="571" 
d="M33 -364q-11 -32 -16 -42t-11 -10l-11 6q-15 7 -15 42q0 18 8 47l91 344q19 66 42 120.5t40 110.5q9 29 15.5 52t13 46.5t14.5 51t20 66.5l80 263q9 30 12.5 43.5t5 20t2 10t3.5 13.5q3 12 9.5 30t14.5 35.5t16.5 29.5t15.5 12l3 -1q7 -3 14 -9t7 -22q0 -9 -3 -19
q-4 -21 -7.5 -37.5t-10 -43t-18.5 -68.5t-33 -112t-41 -140t-38.5 -133.5t-35 -116t-29.5 -88.5l-8 -22q-17 -48 -29.5 -95t-22.5 -82q-5 -18 -10.5 -33t-8.5 -30z" />
    <glyph glyph-name="zero" unicode="0" horiz-adv-x="852" 
d="M293 919q8 1 17 1h17q112 0 188.5 -45.5t123.5 -121.5t68 -174.5t21 -203.5q0 -56 -11 -112.5t-33.5 -109t-55 -98.5t-75 -79.5t-95.5 -53t-115 -19.5q-79 0 -134 29t-92.5 76t-59 108t-33 125.5t-14.5 127t-3 113.5q0 94 12 167t44 127t87.5 89.5t142.5 53.5zM359 851
q-96 -3 -153 -28t-86 -71t-37.5 -113.5t-8.5 -156.5q0 -53 2.5 -112t11.5 -116t26.5 -109t47.5 -91.5t75 -63t108 -23.5q81 0 140.5 38t98.5 98t58 133.5t19 144.5q0 53 -5.5 108t-19.5 106t-36 96.5t-55 80t-77.5 55.5t-103.5 24h-5z" />
    <glyph glyph-name="one" unicode="1" horiz-adv-x="485" 
d="M193 826q-15 -25 -39 -66.5t-54 -82t-63.5 -70t-65.5 -29.5h-7q-16 4 -23.5 14.5t-7.5 21.5q0 12 8 21.5t23 9.5q6 0 10 -1q20 6 42.5 33t45.5 64t46 79t44.5 77t41 58t35.5 23q13 0 21.5 -9.5t8.5 -28.5l36 -870l89 4q14 1 20.5 -10.5t6.5 -22.5q0 -14 -7 -26t-22 -13
l-267 -10q-18 0 -26 12t-8 27q0 13 11 24.5t29 11.5h118z" />
    <glyph glyph-name="two" unicode="2" horiz-adv-x="496" 
d="M83 807q4 -7 4 -14q0 -15 -15.5 -23t-32.5 -8q-15 0 -26.5 6t-11.5 19q0 8 6 20q12 28 34 60t51.5 59t64.5 45t73 18q35 0 61 -16t42.5 -45t24.5 -69t8 -88q0 -23 -4 -49t-10 -50t-14.5 -44.5t-17.5 -32.5q-18 -39 -31 -75t-25.5 -71t-26 -70.5t-31.5 -74.5
q-11 -33 -20.5 -63.5t-21 -61t-26.5 -61t-37 -62.5q28 4 64 11t69 13.5t56.5 11.5t25.5 5q12 0 21 -11t9 -25q0 -13 -10 -25.5t-34 -18.5l-235 -30q-21 0 -33.5 7t-12.5 25q0 14 8 34.5t26 50.5q35 50 54 105.5t41 113.5q29 78 57 161t58 161q10 21 14 49.5t4 59.5
q0 82 -12.5 127t-43.5 45q-19 0 -41 -13t-42.5 -32t-37 -39t-23.5 -35z" />
    <glyph glyph-name="three" unicode="3" horiz-adv-x="631" 
d="M290 803q0 -43 -22 -87.5t-58 -81.5q35 -8 72 -25.5t71.5 -42t65.5 -55.5t54 -65t36.5 -71t13.5 -74q0 -57 -29 -107.5t-74.5 -88t-102.5 -59t-112 -21.5q-35 0 -67.5 6t-67.5 14q-12 3 -18 11.5t-6 19.5q0 13 9 24t25 11q31 -9 64.5 -16t66.5 -7q42 0 86 19t81 49.5
t60.5 68t23.5 73.5q0 34 -16 68t-42.5 65t-60 57.5t-68 45.5t-67.5 30t-58 11q-21 0 -32 -7l-1 1q-12 -5 -19 -5q-15 0 -24 9.5t-9 20.5q0 25 40 38q22 13 43 32t38 41t27.5 45.5t10.5 45.5q0 32 -28 56t-98 29q-19 0 -26.5 7.5t-7.5 17.5q0 18 15 33.5t30 15.5q12 0 23 -9
q43 -7 73 -21t49 -32.5t27.5 -41.5t8.5 -48z" />
    <glyph glyph-name="four" unicode="4" horiz-adv-x="562" 
d="M275 -144q7 -5 10 -15t3 -22q0 -20 -8 -37.5t-23 -17.5q-11 0 -20 7.5t-15 19.5t-9.5 26.5t-3.5 29.5q0 29 0.5 69.5t1.5 86.5t1.5 94t0.5 92q0 39 -0.5 72t-2.5 56q-13 -1 -27.5 -1.5t-31.5 -0.5q-31 0 -57.5 2.5t-46 8.5t-30.5 17t-11 28l21 171q4 20 8 49.5t9.5 62.5
t12 66.5t15.5 60t20.5 43t26.5 16.5q13 0 22 -9.5t9 -21.5t-9 -21q-5 -7 -10 -26.5t-10 -46t-10 -55.5t-9 -55.5t-6 -46t-2 -26.5q-8 -37 -10 -72.5t-9 -71.5q9 0 21.5 -2t27 -4l29 -4t26.5 -2t20 2.5t10 9.5q5 25 5.5 57.5t4 61.5t14.5 48.5t36 19.5q15 0 25 -11t10 -25
q0 -18 -20 -27q0 -3 -0.5 -15t-1.5 -29.5t-2.5 -37.5t-2.5 -39l102 7q2 0 4 0.5t4 0.5q17 0 25 -11t8 -25t-9 -25t-27 -11q-20 2 -34.5 2h-25.5q-21 0 -30.5 -1t-17.5 -3z" />
    <glyph glyph-name="five" unicode="5" horiz-adv-x="585" 
d="M145 1002q16 0 25 -11t9 -25q0 -11 -5.5 -19.5t-18.5 -11.5l-76 -1h-32q-5 -39 -5.5 -81t-0.5 -79q37 6 70 6q88 0 144.5 -38t89 -102.5t45 -148.5t12.5 -175q0 -78 -10.5 -138t-37 -106t-72.5 -81t-117 -63q-22 -8 -47.5 -15.5t-48.5 -7.5q-11 0 -23 3t-22.5 10.5
t-17.5 20t-7 30.5q0 12 10 19t22 7q8 0 13 -4t8.5 -8.5t8.5 -8t13 -3.5q19 0 46.5 10t54 23t47.5 26.5t28 19.5q28 25 45 55.5t26 65t11.5 73.5t2.5 82q0 40 -1 82t-7.5 83t-20 79.5t-38.5 70.5q-34 43 -59 57.5t-57 14.5q-31 0 -74 -6q-11 0 -31 -4.5t-38 -4.5
q-15 0 -25 5.5t-10 22.5v15q0 13 -0.5 33t-0.5 45q0 31 1 64.5t5 63.5q-15 5 -29.5 14.5t-14.5 26.5q0 9 5 17t12 14.5t15 10.5t13 4q11 0 22 -11q8 13 20 13q1 0 13.5 -5.5t30 -11.5t37 -11.5t33.5 -5.5h9z" />
    <glyph glyph-name="six" unicode="6" horiz-adv-x="428" 
d="M350 126q1 -5 1 -10v-10q0 -41 -11.5 -74t-31 -56.5t-44.5 -36.5t-52 -13q-29 0 -57.5 17t-51 53.5t-36.5 94t-14 139.5q0 35 3 76v1q-21 10 -21 29q0 15 6.5 24.5t17.5 14.5q6 69 19.5 137.5t30.5 138.5q17 77 35 160t55 161q5 11 13.5 15.5t17.5 4.5q14 0 24.5 -9.5
t10.5 -26.5q0 -8 -1 -12q-35 -71 -54 -149.5t-41 -163.5q-12 -68 -26 -134t-19 -138q38 -15 75.5 -34t68.5 -46t53 -64.5t29 -88.5zM167 20q24 -28 46 -28q16 0 29.5 13.5t22.5 32.5t14 40.5t5 37.5q-5 44 -23 73.5t-42.5 48.5t-53 30.5t-54.5 19.5q0 -36 1 -72.5t6 -71.5
t16.5 -67t32.5 -57z" />
    <glyph glyph-name="seven" unicode="7" horiz-adv-x="454" 
d="M379 383q-7 -11 -23.5 -20.5t-38 -17.5t-47.5 -13t-53 -7q-9 -46 -14.5 -96.5t-8.5 -101.5t-4 -102t-1 -98v-39q0 -18 -10.5 -26.5t-22.5 -8.5q-13 0 -23 8.5t-10 26.5q0 101 7 200.5t18 200.5q1 9 1.5 18t2.5 18q-19 2 -36.5 7t-31.5 13t-22.5 19t-8.5 26q0 14 10 22.5
t23 8.5q10 0 16 -6t13 -13.5t17.5 -13.5t29.5 -6q11 56 23.5 113t23.5 117q14 78 29 151.5t37 152.5q-9 0 -30.5 0.5t-49 2t-57 5.5t-53.5 11t-40 17.5t-16 26.5q0 10 5 18t12.5 13.5t16.5 8.5t16 3q15 0 27.5 -7.5t16.5 -18.5q33 -7 72.5 -7.5t74.5 -2.5t58.5 -10.5
t23.5 -30.5q0 -6 -1 -10q-29 -80 -44.5 -163.5t-31.5 -169.5q-11 -55 -21.5 -107t-22.5 -103q40 9 78.5 20.5t61.5 11.5q20 0 20 -13q0 -10 -12 -28z" />
    <glyph glyph-name="Euro" unicode="&#x20ac;" horiz-adv-x="878" 
d="M20 438h28q-2 17 -2 33.5t-1 32.5h-29q-17 0 -33 1.5t-28 5.5t-19.5 11t-7.5 18q8 20 18.5 23.5t17.5 3.5q1 -1 8 -1q11 0 20 2t18 2l35 -2q1 90 13.5 160.5t45 122.5t87.5 86t140 52q8 1 17 1h17q75 0 133.5 -21t103 -58t75.5 -88.5t51 -111.5q1 -4 1 -10
q0 -11 -6.5 -16.5t-17.5 -5.5t-24.5 8t-21.5 25q-15 43 -38 80t-54.5 64.5t-72.5 44.5t-92 20h-5q-95 -3 -151 -27t-86 -69t-39 -110t-9 -151h129q6 -6 10 -12q4 -5 7 -11.5t3 -13.5q0 -11 -12.5 -19.5t-47.5 -8.5q-6 0 -13.5 0.5t-18.5 1.5h-57q1 -17 1 -33t2 -33h58
q17 0 33 -1.5t28 -5.5t19.5 -11t7.5 -18q-8 -20 -18.5 -23.5t-17.5 -3.5q-1 1 -8 1q-11 0 -20 -2t-18 -2l-59 3q7 -64 22.5 -124.5t46 -107t77.5 -75t117 -28.5q59 0 106.5 20.5t83.5 56t62 82t41 98.5q5 14 13.5 20t16.5 6q13 0 23 -11t10 -30v-8q-8 -63 -39 -117.5
t-78.5 -94.5t-109.5 -63t-131 -23q-88 0 -147.5 36t-97 93.5t-56.5 129t-27 143.5h-105q-6 6 -10 12q-4 5 -7 11.5t-3 13.5q0 11 12.5 19.5t47.5 8.5q6 0 13.5 -0.5t18.5 -1.5z" />
    <glyph glyph-name="parenleft" unicode="(" horiz-adv-x="585" 
d="M445 1131q-59 -108 -103.5 -209t-74.5 -199.5t-45 -197.5t-15 -202q0 -97 13.5 -199t39.5 -216q15 -67 35.5 -120.5t48.5 -103t65 -99t86 -108.5l7 -8q15 -15 15 -28q0 -14 -11 -25t-25 -11q-9 0 -24 11t-30.5 26t-30 31t-22.5 26q-37 52 -65 97t-50.5 90t-39.5 94.5
t-31 110.5q-26 109 -38 208t-12 193q0 110 17 215.5t50 211t82.5 214t114.5 225.5q6 10 17 10q10 0 19 -7.5t9 -19.5q0 -2 -2 -10z" />
    <glyph glyph-name="parenright" unicode=")" horiz-adv-x="596" 
d="M141 1181q132 -209 194.5 -419.5t62.5 -421.5q0 -249 -81 -497.5t-234 -501.5q-5 -8 -11.5 -11t-14.5 -3q-13 0 -24 8.5t-11 22.5q0 12 10 25q150 245 230.5 486t80.5 484q0 199 -58.5 397t-182.5 397q-4 7 -4 14q0 11 8.5 19t19.5 8q9 0 15 -7z" />
    <glyph glyph-name="quotesingle" unicode="'" horiz-adv-x="203" 
d="M56 664l14 52q6 32 17 55t30 23q8 0 13 -4.5t8 -9.5t4 -10.5t1 -6.5q0 -2 -0.5 -8.5t-2 -15l-3 -17t-2.5 -14.5q-8 -32 -11.5 -42.5t-4.5 -10.5v1q0 2 0.5 4.5t0.5 3.5t-2 -8.5t-8 -40.5l-7 -34q-5 -4 -11 -7q-5 -2 -11.5 -4t-12.5 -2q-9 0 -16.5 7t-7.5 29q0 11 2 23.5
t10 36.5z" />
    <glyph glyph-name="ampersand" unicode="&#x26;" horiz-adv-x="897" 
d="M762 405q0 -25 -4.5 -56.5t-13.5 -64t-21.5 -64.5t-28.5 -57l135 -129v-8q0 -6 -1 -11t-8 -5q-37 0 -77.5 21.5t-84.5 59.5q-34 -64 -67.5 -112t-74.5 -79.5t-93.5 -47.5t-125.5 -16q-60 0 -109.5 13.5t-85 39.5t-55 63.5t-19.5 85.5q0 88 27 160t66.5 136.5t84.5 125.5
t81 127q-51 90 -85.5 162.5t-43.5 110.5q0 35 12 68.5t33 60t50 43t64 16.5q24 -3 43 -23t32 -45.5t20 -49.5t7 -36v-31q1 -5 1 -10v-10q0 -78 -17.5 -141.5t-46.5 -119.5q43 -69 91.5 -138.5t95.5 -134.5l103 -100q11 36 21.5 75.5t20 72t20 54t21.5 21.5q5 0 11 -4.5
t11 -9.5q5 -6 11 -13zM324 523q-35 -59 -74 -113.5t-71.5 -112.5t-54 -122.5t-21.5 -143.5q0 -35 16 -59.5t42.5 -40t60 -23t68.5 -7.5q68 5 117 23t85.5 47.5t65 70.5t54.5 92q-38 38 -76 84t-75 96.5t-71.5 103.5t-65.5 105zM356 834q0 45 -5.5 73.5t-14.5 44t-21 21
t-25 5.5q-29 0 -45.5 -26t-16.5 -73v-4q1 -44 25.5 -102.5t62.5 -125.5q18 42 29 88t11 99z" />
    <glyph glyph-name="dollar" unicode="$" horiz-adv-x="727" 
d="M352 1006q2 -34 4.5 -58t4 -45t2.5 -42t1 -50q14 5 28 7.5t27 2.5q54 0 98 -44v1q9 -9 9 -24q0 -12 -8.5 -20.5t-19.5 -8.5q-14 0 -25 11h1q-27 24 -58 24q-26 0 -55 -18q0 -35 -1 -60.5t-2 -46.5t-2.5 -40t-2.5 -40q47 -6 85.5 -22t65.5 -42t42 -63t15 -85t-16 -92.5
t-44 -82t-67 -65.5t-85 -43q1 -24 2 -39.5t2.5 -33.5t5 -44.5t9.5 -72.5q0 -10 2 -18t2 -18t-11 -15.5t-19 -5.5t-16 6t-9 20q-6 46 -9.5 77t-6 53.5t-4.5 40t-5 37.5q-5 -1 -12 -1.5t-13 -0.5q-36 0 -62.5 12.5t-46.5 31.5t-35.5 42.5t-28.5 46.5v-1q-6 10 -11.5 19.5
t-10.5 17.5v2q-5 5 -9 12.5t-4 12.5q0 9 7 15.5t17 6.5q9 0 16.5 -5.5t14 -13.5t12 -17t10.5 -15q15 -21 29 -39.5t31.5 -32t38.5 -22t50 -9.5q-2 22 -2.5 48.5t-1 69.5t-0.5 109.5v168.5h-1q-12 2 -34.5 6t-44.5 10.5t-38.5 16t-16.5 23.5q0 25 11.5 50.5t29.5 49.5
t39.5 45.5t41.5 40.5h-1l24 24v61t-0.5 47.5t-1 47.5t-1.5 62v7q0 17 10.5 25.5t23.5 8.5q10 0 18 -5.5t12 -18.5zM494 363q0 28 -12.5 51.5t-32.5 41.5t-45.5 28.5t-50.5 11.5q0 -45 -0.5 -72t-1 -46.5t-1.5 -37t-1.5 -44t-1 -67t-0.5 -105.5q33 14 60 37.5t46.5 53.5
t30 64.5t10.5 69.5v14zM282 670q-19 -20 -35.5 -41.5t-21.5 -44.5q14 -5 28 -8l28 -6q2 32 4 54.5t4 53.5q-5 -5 -7 -8z" />
    <glyph glyph-name="numbersign" unicode="#" horiz-adv-x="699" 
d="M516 687q-13 -61 -22 -115t-17 -105q28 2 58.5 5.5t63.5 3.5q11 0 16.5 -7.5t5.5 -17.5t-7 -18.5t-22 -8.5q-34 -3 -64 -6.5t-59 -8.5l-14 -109q13 -2 34.5 -6.5t41.5 -11t35 -15.5t15 -21q0 -13 -9 -24t-23 -11q-5 0 -7 1q-53 21 -97 27q-11 -65 -25.5 -133.5
t-38.5 -148.5q-5 -13 -14.5 -18.5t-19.5 -5.5q-14 0 -25 9t-11 25q0 5 1 8q26 76 42.5 141t27.5 127q-33 -2 -65.5 -7t-67.5 -13q-14 -51 -27.5 -105.5t-27.5 -117.5q-5 -13 -14.5 -19t-19.5 -6q-14 0 -24.5 9t-10.5 24q0 5 1 8q14 53 26.5 100t26.5 91q-17 -4 -34 -7
t-36 -6l-8 -1q-18 0 -27 11t-9 25q0 11 6.5 21t20.5 12q29 4 56.5 8.5t53.5 9.5q8 24 15 47l14 46q-34 -4 -69.5 -6t-77.5 -2q-17 0 -24.5 10t-7.5 23t7.5 23.5t24.5 10.5q48 0 89 2t79 6q22 75 41.5 156.5t36.5 183.5q0 11 7 16.5t15 5.5q11 0 20.5 -8t9.5 -22q0 -5 -1 -8
q-16 -94 -33 -170t-36 -147q26 3 51.5 6.5t51.5 6.5q8 56 18 115.5t25 128.5q2 11 10.5 16.5t19.5 5.5t21 -6.5t10 -19.5q0 -6 -3 -13zM269 293q32 5 62.5 8.5t60.5 3.5q4 23 7.5 46.5t7.5 47.5l-113 -19z" />
    <glyph glyph-name="hungarumlaut" unicode="&#x2dd;" horiz-adv-x="418" 
d="M227 681q4 -6 4 -12q0 -13 -11 -28.5t-26 -31t-32 -28.5t-29 -20q-15 -6 -38 -13t-43 -7q-17 0 -28 3.5t-11 22.5q0 9 5 14.5t12.5 8t15.5 3t13 1.5h4q22 0 42.5 12t38 28t32 30.5t23.5 19.5q3 1 7 2t9 1q10 0 12 -6zM385 671q4 -6 4 -12q0 -13 -11 -29t-26.5 -31
t-32.5 -28t-29 -20q-15 -6 -38 -13t-43 -7q-16 0 -27 3.5t-11 22.5q0 9 5 14.5t12.5 8t15.5 3t13 1.5h4q21 0 41.5 12.5t38.5 28t32.5 30t23.5 19.5q3 1 7 2t9 1q10 0 12 -6z" />
    <glyph glyph-name="minus" unicode="&#x2212;" horiz-adv-x="461" 
d="M266 219q-30 0 -46 0.5t-25 1t-13.5 1t-10.5 0.5h-58q-17 0 -33 1.5t-28 5.5t-19.5 11t-7.5 18q8 20 18.5 23.5t17.5 3.5q1 -1 8 -1q11 0 20 2t18 2l62 -3q25 -1 32 -1.5t14.5 -1t25 -0.5h62.5h35q6 -6 10 -12q4 -5 7 -11.5t3 -13.5q0 -11 -12.5 -19.5t-47.5 -8.5
q-6 0 -13.5 0.5t-18.5 1.5z" />
    <glyph glyph-name="guilsinglright" unicode="&#x203a;" horiz-adv-x="497" 
d="M74 6q22 23 37 37.5t28.5 28t27.5 29t34 41.5q18 23 34 40.5t30.5 34t25.5 32.5t18 36l-32 46q-25 31 -47 55t-43 46t-41.5 44.5t-42.5 50.5q-9 12 -9 23q0 14 10.5 24t22.5 10q14 0 21 -11q25 -31 46 -55t41 -46t40.5 -45t46.5 -52q8 -10 18.5 -19t20 -18.5t16 -20
t6.5 -22.5q0 -6 -1 -9q-8 -31 -23 -52.5t-33 -40.5t-38 -38t-39 -44q-21 -28 -35.5 -45t-28 -31t-29.5 -29t-38 -37q-9 -12 -21 -12q-11 0 -20.5 9.5t-9.5 21.5q0 10 7 18z" />
    <glyph glyph-name="guillemotright" unicode="&#xbb;" horiz-adv-x="632" 
d="M74 6q22 23 37 37.5t28.5 28t27.5 29t34 41.5q18 23 34 40.5t30.5 34t25.5 32.5t18 36l-32 46q-25 31 -47 55t-43 46t-41.5 44.5t-42.5 50.5q-9 12 -9 23q0 14 10.5 24t22.5 10q14 0 21 -11q25 -31 46 -55t41 -46t40.5 -45t46.5 -52q8 -10 18.5 -19t20 -18.5t16 -20
t6.5 -22.5q0 -6 -1 -9q-8 -31 -23 -52.5t-33 -40.5t-38 -38t-39 -44q-21 -28 -35.5 -45t-28 -31t-29.5 -29t-38 -37q-9 -12 -21 -12q-11 0 -20.5 9.5t-9.5 21.5q0 10 7 18zM215 6q22 23 37 37.5t28.5 28t27.5 29t34 41.5q18 23 34 40.5t30.5 34t25.5 32.5t18 36l-32 46
q-25 31 -47 55t-43 46t-41.5 44.5t-42.5 50.5q-9 12 -9 23q0 14 10.5 24t22.5 10q14 0 21 -11q25 -31 46 -55t41 -46t40.5 -45t46.5 -52q8 -10 18.5 -19t20 -18.5t16 -20t6.5 -22.5q0 -6 -1 -9q-8 -31 -23 -52.5t-33 -40.5t-38 -38t-39 -44q-21 -28 -35.5 -45t-28 -31
t-29.5 -29t-38 -37q-9 -12 -21 -12q-11 0 -20.5 9.5t-9.5 21.5q0 10 7 18z" />
    <glyph glyph-name="guillemotleft" unicode="&#xab;" horiz-adv-x="664" 
d="M517 535q-22 -23 -37 -37.5t-28.5 -28t-27.5 -29.5t-34 -41q-18 -23 -34 -40.5t-30.5 -34t-25.5 -32.5t-18 -36l32 -46q25 -31 47 -55t43 -46t41.5 -44.5t42.5 -50.5q9 -12 9 -23q0 -14 -10.5 -24t-22.5 -10q-14 0 -21 11q-26 31 -46.5 55t-40.5 46t-41 45t-46 52
q-8 10 -18.5 19t-20 18.5t-16 20t-6.5 22.5q0 6 1 9q8 31 23 52.5t33 40t38 37.5t39 45q20 28 34.5 45t28.5 31t29.5 28.5t38.5 37.5q9 12 21 12q11 0 20.5 -9.5t9.5 -21.5q0 -10 -7 -18zM376 535q-22 -23 -37 -37.5t-28.5 -28t-27.5 -29.5t-34 -41q-18 -23 -34 -40.5
t-30.5 -34t-25.5 -32.5t-18 -36l32 -46q25 -31 47 -55t43 -46t41.5 -44.5t42.5 -50.5q9 -12 9 -23q0 -14 -10.5 -24t-22.5 -10q-14 0 -21 11q-26 31 -46.5 55t-40.5 46t-41 45t-46 52q-8 10 -18.5 19t-20 18.5t-16 20t-6.5 22.5q0 6 1 9q8 31 23 52.5t33 40t38 37.5t39 45
q20 28 34.5 45t28.5 31t29.5 28.5t38.5 37.5q9 12 21 12q11 0 20.5 -9.5t9.5 -21.5q0 -10 -7 -18z" />
    <glyph glyph-name="copyright" unicode="&#xa9;" horiz-adv-x="756" 
d="M630 404q34 -68 34 -150q0 -68 -22.5 -135t-62 -120t-94.5 -86t-120 -33q-64 0 -119 23t-95 63.5t-63 97t-23 123.5q0 45 16 92t43 91t63.5 83t78.5 68t86 46t87 17q22 0 47 -9.5t49.5 -30.5t49 -55.5t45.5 -84.5zM577 378q-26 79 -64 110.5t-80 31.5q-30 0 -61 -12
t-60.5 -31t-56.5 -41.5t-49 -44.5q-40 -52 -63 -100.5t-23 -105.5q0 -56 19.5 -102.5t52.5 -79.5t77.5 -51t95.5 -18q54 0 98 28t75.5 73t49 101t17.5 113q0 35 -3.5 69.5t-24.5 59.5zM422 291q2 9 5 17t4 16q-24 -3 -48 -13t-43 -25.5t-30.5 -35.5t-11.5 -41
q0 -23 10.5 -41t27 -30t37 -18t40.5 -6q15 0 29 2.5t27 8.5q7 0 13 -6t6 -12q0 -7 -11.5 -11.5t-26.5 -7.5t-30.5 -4.5t-24.5 -1.5q-25 0 -52 7t-49.5 22.5t-37.5 39.5t-15 57q0 32 18 62.5t47.5 54t66 38t73.5 14.5h9q11 0 19 -5.5t8 -21.5q0 -12 -0.5 -27.5t-3 -30
t-8.5 -24.5t-18 -10q-11 0 -20.5 7.5t-9.5 20.5v5z" />
    <glyph glyph-name="registered" unicode="&#xae;" horiz-adv-x="833" 
d="M386 -164q-53 6 -99.5 20t-85.5 38.5t-69 60t-49 84.5q-32 82 -32 155q0 82 36 156.5t105 141.5q21 37 57 62.5t74.5 41.5t73.5 22.5t56 6.5q11 0 15 -1t9 -3q10 -4 35.5 -15t54 -28t54 -39t36.5 -48q26 -51 38.5 -110t12.5 -122q0 -78 -19.5 -154.5t-56 -137t-90 -97.5
t-121.5 -37q-17 0 -35 3zM238 449q-59 -57 -91 -122t-32 -136q0 -63 25 -125q17 -43 42.5 -73.5t58.5 -50.5t73.5 -32t87.5 -19q6 -1 11 -1.5t11 -0.5h5q52 6 93.5 39t70.5 82t44.5 109.5t17.5 121.5v12q0 69 -19 133.5t-55 113.5l-67 65q-8 2 -16 2h-17q-33 0 -67.5 -8.5
t-66.5 -24t-60.5 -37.5t-48.5 -48zM372 415q8 -23 11 -42.5t3 -37.5q0 -17 -2 -36t-4 -40q6 19 15 42.5t25 43t39.5 33t58.5 13.5q23 0 31.5 -3.5t8.5 -17.5q0 -24 -26 -26q-46 0 -71 -24t-39 -62.5t-21.5 -85t-17.5 -91.5l-3 -19q-2 -13 -12 -20t-20 -7q-11 0 -20.5 9.5
t-9.5 24.5q0 1 1 3t1 5v143q0 32 3.5 56.5t3.5 48.5q0 17 -3 35t-13 41q-2 6 -2 8q0 11 10 18t22 7q9 0 17.5 -4t13.5 -15z" />
    <glyph glyph-name="ellipsis" unicode="&#x2026;" horiz-adv-x="470" 
d="M68 -2q-8 0 -16.5 1t-16 6.5t-12 17t-4.5 32.5q7 32 27 45.5t48 13.5q22 -2 31 -18.5t9 -33.5q0 -14 -1.5 -25.5t-7.5 -20t-18.5 -13.5t-34.5 -5h-4zM210 18q-8 0 -16.5 1t-16 6.5t-12 17t-4.5 32.5q7 32 27 45.5t48 13.5q22 -2 31 -18.5t9 -33.5q0 -14 -1.5 -25.5
t-7.5 -20t-18.5 -13.5t-34.5 -5h-4zM352 -12q-8 0 -16.5 1t-16 6.5t-12 17t-4.5 32.5q7 32 27 45.5t48 13.5q22 -2 31 -18.5t9 -33.5q0 -14 -1.5 -25.5t-7.5 -20t-18.5 -13.5t-34.5 -5h-4z" />
    <glyph glyph-name="trademark" unicode="&#x2122;" horiz-adv-x="759" 
d="M452 282q-6 -11 -15 -19t-18 -8q-11 5 -16.5 10.5t-5.5 18.5v29q0 10 -0.5 18.5t-1.5 16.5q-11 -18 -21 -37.5t-18.5 -37t-13.5 -29.5t-5 -15q-10 2 -17.5 5t-12.5 6l-12 8q0 38 8 61t8 37q0 15 -1.5 24.5t-5.5 17.5q-8 -1 -16 -10.5t-15.5 -21t-14 -22t-11.5 -12.5
q-8 -9 -21.5 -19t-30.5 -18.5t-36 -13.5t-39 -5h-11q-33 2 -56 24.5t-37 53t-20.5 63t-6.5 55.5v26q0 1 0.5 1t0.5 10h-16q-11 0 -17.5 8t-6.5 19q0 9 6.5 18.5t17.5 9.5h16v74q-2 4 -2 8q-1 3 -1 5q2 8 9 14.5t18 6.5q8 0 17.5 -7t9.5 -20v-89h13q20 2 44 3.5t50 4.5
q11 -4 16.5 -13t5.5 -17q0 -19 -11 -21t-28 -6h-11h-24t-24 -2l-4 -1q-3 -2 -16 -2h-8l-3 -41q2 -21 7 -43.5t13.5 -41t21 -30.5t28.5 -12q26 0 49.5 9t41.5 26l12 17q4 3 9 9t10 14q17 23 41.5 34.5t37.5 11.5q16 0 29 -17.5t20 -39.5q19 27 44 40q14 0 23.5 -12t14.5 -30
q16 32 34 54.5t40 22.5q10 0 17.5 -12t13 -30t9.5 -39t7 -40v-9q6 5 7.5 7.5t5.5 6.5l4 4q5 5 10 6.5t10 1.5q23 0 23 -23q0 -5 -9 -17q-33 -57 -64 -57q-12 0 -18.5 19t-10.5 41.5t-7.5 41.5t-10.5 19q-3 0 -10.5 -7.5t-15.5 -21t-15 -32t-11 -40.5z" />
    <glyph glyph-name="percent" horiz-adv-x="644" 
d="M37 753q2 11 6 30.5t14 29.5q7 13 21.5 31t33 33.5t38.5 26.5t37 11q36 0 60 -12.5t39 -33.5t21.5 -49t6.5 -59q0 -29 -5 -55.5t-13 -44.5l-4 -4q-9 -20 -19 -37.5t-26 -31t-40 -21.5t-60 -8q-27 0 -47.5 11.5t-35.5 30t-23 42.5t-9 49zM106 781q-5 -11 -10 -32.5
t-5 -44.5q0 -35 16 -61.5t52 -26.5q21 0 38.5 12t30 33t19 49.5t6.5 62.5q0 14 -2.5 27.5t-8.5 24.5t-16.5 18t-26.5 7q-14 0 -28 -6.5t-26.5 -16.5t-22.5 -22t-16 -24zM158 38q-11 -26 -17 -34.5t-12 -8.5l-10 5q-5 2 -10 10t-5 20v4q0 19 8 39q38 104 64 171.5t43 110.5
t27.5 68t19 45.5t17 41.5t21.5 57l69 182q9 24 12.5 35.5t4.5 16.5t2 8t4 11q4 9 10.5 24t14 29t15.5 24t16 10l3 -1q7 -2 14 -7t7 -18q0 -6 -3 -15q-4 -17 -5.5 -26t-6 -24t-15 -44.5t-31.5 -86.5zM267 229q4 16 9 29.5t14 30.5q6 12 21 28.5t33.5 31.5t38 25t36.5 10
q35 0 59 -11.5t39 -31.5t21.5 -46.5t6.5 -56.5q0 -32 -6.5 -61.5t-16.5 -49.5l-3 -4q-10 -20 -20 -36.5t-25.5 -29t-39 -19.5t-60.5 -7q-28 0 -49 12t-35.5 31.5t-21.5 44.5t-7 50zM338 255q-7 -12 -12.5 -35.5t-5.5 -48.5q0 -16 3.5 -31t11.5 -27t20 -19t30 -7
q21 0 39.5 12.5t32 34t21 51t7.5 63.5q0 28 -12.5 50t-42.5 22q-14 0 -28 -6t-26 -15.5t-22 -21t-16 -22.5z" />
    <glyph glyph-name="Agrave" unicode="&#xc0;" horiz-adv-x="606" 
d="M-17 185q19 17 31 40.5t29 41.5q-5 18 -7 35.5t-2 37.5q0 19 5 49.5t14.5 59t22 49t27.5 20.5q7 0 15 -6q20 18 43.5 28.5t46.5 10.5q40 0 73 -27t56.5 -66t36.5 -81.5t13 -73.5q0 -37 -1 -55.5t-3 -26.5q0 -20 8.5 -40.5t23 -37t32 -26.5t35.5 -10q22 0 37 13t28 29
t25.5 29t29.5 13q13 0 20 -7.5t7 -17.5q0 -16 -14 -24q-30 -48 -63 -70.5t-84 -22.5h-7q-15 0 -34.5 9.5t-38.5 24t-34 30.5t-21 29q-17 -9 -30 -18t-26.5 -16t-29 -11t-36.5 -4q-22 0 -43 9t-39 23t-33 32.5t-25 37.5q-6 -9 -15 -19t-19 -19t-20 -14.5t-18 -5.5
q-11 0 -19.5 8.5t-8.5 19.5q0 9 12 20zM98 345q0 -19 7.5 -50t23 -61t38 -51.5t52.5 -21.5q25 0 44 10t31.5 26.5t18.5 37.5t6 43q0 23 -6.5 59t-21 70.5t-36.5 59t-53 24.5q-24 0 -43 -15t-32.5 -37t-21 -47.5t-7.5 -46.5zM54.874 718.857
q0.831055 5.02734 11.6396 5.02734q4.15723 0 8.72949 -0.837891q4.57324 -0.837891 7.06738 -1.67578q9.14551 -4.18945 23.2803 -15.9189q14.1338 -11.7295 32.0098 -25.1348q17.875 -13.4053 38.2451 -23.459q20.3691 -10.0537 41.9863 -10.0537h4.15723
q4.98828 -0.837891 12.8867 -1.25684q7.89941 -0.418945 15.3818 -2.51367t12.4707 -6.28418q4.98926 -4.18848 4.98926 -11.7295q0 -15.918 -10.8086 -18.8506t-27.4365 -2.93262q-19.9551 0 -42.8184 5.86523q-22.8643 5.86426 -37.8301 10.8916
q-12.4707 5.86426 -29.0996 16.3379q-16.6289 10.4727 -32.0098 23.04t-26.1895 25.9727t-10.8086 23.459q0 5.86523 4.15723 10.0537z" />
    <glyph glyph-name="Egrave" unicode="&#xc8;" horiz-adv-x="511" 
d="M-46 257q0 63 12.5 115.5t39.5 90t69 58t101 20.5q21 -3 32 -16.5t15.5 -28.5t5 -28t0.5 -15q0 -39 -14 -85.5t-39.5 -90t-62 -78t-80.5 -48.5q16 -38 35.5 -58t40.5 -29t42.5 -10.5t42.5 -1.5h5q38 0 76 13t75 33.5t71.5 46t64.5 50.5q2 1 6 2q3 1 7 2t9 1
q12 0 23.5 -10t11.5 -24q0 -5 -1 -9t-2 -7q-2 -4 -3 -7q-36 -27 -76 -54t-82.5 -48.5t-86.5 -35t-88 -13.5q-30 0 -56 2.5t-51.5 12.5t-51 30.5t-53.5 56.5q-2 4 -8.5 15t-13 30t-11.5 48t-5 70zM156 467q-5 1 -9 1.5t-9 0.5q-27 0 -50 -15.5t-40 -43t-26.5 -65.5t-9.5 -83
q0 -15 1 -29.5t4 -28.5q34 16 63 44.5t50 61.5t33 65.5t12 55.5q0 30 -19 36zM-59.2129 791.789q1.07617 6.44629 15.0723 6.44629q5.38281 0 11.3047 -1.07422q5.9209 -1.07422 9.15039 -2.14941q11.8428 -5.37109 30.1455 -20.4121q18.3018 -15.041 41.4482 -32.2305
q23.1475 -17.1895 49.5244 -30.0811q26.376 -12.8926 54.3682 -12.8926h5.38281q6.45898 -1.07422 16.6875 -1.61133q10.2275 -0.537109 19.917 -3.22266q9.68945 -2.68652 16.1484 -8.05762q6.45996 -5.37207 6.45996 -15.041q0 -20.4121 -13.9961 -24.1729
q-13.9951 -3.75977 -35.5273 -3.75977q-25.8389 0 -55.4453 7.52051t-48.9854 13.9658q-16.1484 7.52051 -37.6807 20.9502q-21.5322 13.4287 -41.4492 29.5439t-33.9131 33.3047q-13.9951 17.1895 -13.9951 30.082q0 7.52051 5.38281 12.8916z" />
    <glyph glyph-name="Igrave" unicode="&#xcc;" horiz-adv-x="391" 
d="M-24 180q10 15 13.5 26t3.5 21q0 11 -2.5 22.5t-2.5 27.5q0 22 10.5 33t24.5 11q12 0 20 -7t14 -17.5t11 -23t11 -24.5q12 -24 22.5 -47t24.5 -44t34 -41t51 -38q16 -12 35 -12q22 0 42 16.5t36 37t27 40t17 25.5q10 10 23 10q10 0 17.5 -6.5t7.5 -17.5q0 -14 -14 -43
t-38 -58.5t-55.5 -51.5t-66.5 -22q-32 0 -64 17.5t-61.5 43.5t-53 56t-36.5 56q-3 -6 -7 -13t-9 -13.5t-11.5 -11t-13.5 -4.5q-14 0 -18 8t-4 21q0 11 12 23zM-163 583q1 7 12 7q5 0 9 -1t7 -2q9 -5 23.5 -21t32 -33t38 -30.5t41.5 -13.5h4q6 -1 13.5 -1.5t15 -3.5t12.5 -8
t5 -15q0 -21 -11 -25t-27 -4q-20 0 -43 7.5t-38 14.5q-12 7 -29 21t-32 30.5t-26 33.5t-11 31q0 7 4 13z" />
    <glyph glyph-name="Ograve" unicode="&#xd2;" horiz-adv-x="518" 
d="M326 199q19 3 37 4t35 1q35 -1 56 -1.5t33 -0.5t17.5 -0.5t10.5 -0.5q16 0 23 -9t7 -20q0 -13 -8 -23.5t-22 -10.5q-24 2 -51 2.5t-59 0.5q-16 0 -32.5 -1t-35.5 -3q1 -7 1 -13.5v-13.5q0 -37 -13 -80t-37 -79.5t-59 -61t-80 -24.5t-79 21t-57.5 57.5t-35 86t-11.5 107.5
q0 44 7.5 88t25 78.5t44.5 56t66 21.5q34 0 61 -8t48.5 -20.5t38 -29t28.5 -33.5q28 -40 41 -91zM54 22q-1 -4 -1 -12q0 -14 8 -30t21 -29.5t29.5 -22.5t34.5 -9q31 0 56 19.5t41.5 48t25.5 61t9 59.5v10t-1 10q-39 -8 -77 -18t-69 -23t-51.5 -29t-25.5 -35zM81 130
q35 17 83 32t101 26q-7 21 -18 42.5t-27 38.5t-37 28t-48 11l-12 -1q-30 -3 -48.5 -16t-29 -34t-14 -49t-3.5 -59q0 -28 3 -55q19 19 50 36zM-31.5938 580.616q0.831055 5.02637 11.6396 5.02637q4.15723 0 8.72949 -0.837891q4.57324 -0.837891 7.06738 -1.67578
q9.14551 -4.18848 23.2803 -15.918q14.1338 -11.7295 32.0098 -25.1348q17.875 -13.4053 38.2451 -23.46q20.3701 -10.0537 41.9863 -10.0537h4.15723q4.98828 -0.837891 12.8867 -1.25684t15.3818 -2.51367q7.48242 -2.09473 12.4717 -6.2832
q4.98828 -4.18945 4.98828 -11.7295q0 -15.9189 -10.8086 -18.8516t-27.4375 -2.93262q-19.9531 0 -42.8174 5.86523q-22.8643 5.86426 -37.8301 10.8916q-12.4717 5.86523 -29.0996 16.3379t-32.0098 23.04q-15.3809 12.5674 -26.1895 25.9727t-10.8086 23.459
q0 5.86523 4.15723 10.0547z" />
    <glyph glyph-name="Ugrave" unicode="&#xd9;" horiz-adv-x="696" 
d="M-29 264q-1 10 -1 19.5v18.5q0 38 2.5 69.5t2.5 59.5t-4 48q0 14 7.5 26.5t21.5 12.5q8 0 20 -12.5t19 -26.5v-49l-9 -157q0 -33 4.5 -65t16 -59.5t32.5 -48.5t54 -32l39 -10q40 0 72 29.5t55 73.5t37 95.5t19 95.5q-6 25 -6 49q0 11 1.5 23t5.5 22t11.5 16.5t20.5 6.5
q7 0 12.5 -4.5t9 -11t5.5 -13t2 -10.5q0 -56 10 -114.5t30 -106.5t49 -79t67 -31q7 0 20 7t26.5 18.5t25.5 25.5t18 28q4 7 12 12.5t19 5.5q12 0 22.5 -7t10.5 -22q0 -17 -14.5 -39t-36 -41.5t-47 -33.5t-47.5 -14q-52 0 -85 22t-63 73q-3 5 -9 16t-13 25.5t-12.5 32
t-6.5 35.5q-13 -44 -33.5 -88t-47.5 -79.5t-61.5 -58t-76.5 -22.5q-31 0 -70 14q-44 15 -71 41t-41.5 60t-19.5 73.5t-5 80.5zM50.207 736.62q0.896484 6.40527 12.5508 6.40527q4.4834 0 9.41406 -1.06738t7.62109 -2.13477q9.86133 -5.33789 25.1025 -20.2842
q15.2412 -14.9453 34.5176 -32.0264q19.2754 -17.0811 41.2412 -29.8916q21.9648 -12.8115 45.2754 -12.8115h4.48242q5.37891 -1.06738 13.8965 -1.60156q8.51758 -0.533203 16.5859 -3.20215q8.06934 -2.66895 13.4482 -8.00684q5.37988 -5.33789 5.37988 -14.9463
q0 -20.2832 -11.6553 -24.0195t-29.5859 -3.73633q-21.5176 0 -46.1729 7.47266q-24.6543 7.47266 -40.792 13.8779q-13.4482 7.47363 -31.3799 20.8174q-17.9307 13.3447 -34.5166 29.3584t-28.2412 33.0947t-11.6553 29.8916q0 7.47266 4.4834 12.8105z" />
    <glyph glyph-name="Aacute" unicode="&#xc1;" horiz-adv-x="606" 
d="M-17 185q19 17 31 40.5t29 41.5q-5 18 -7 35.5t-2 37.5q0 19 5 49.5t14.5 59t22 49t27.5 20.5q7 0 15 -6q20 18 43.5 28.5t46.5 10.5q40 0 73 -27t56.5 -66t36.5 -81.5t13 -73.5q0 -37 -1 -55.5t-3 -26.5q0 -20 8.5 -40.5t23 -37t32 -26.5t35.5 -10q22 0 37 13t28 29
t25.5 29t29.5 13q13 0 20 -7.5t7 -17.5q0 -16 -14 -24q-30 -48 -63 -70.5t-84 -22.5h-7q-15 0 -34.5 9.5t-38.5 24t-34 30.5t-21 29q-17 -9 -30 -18t-26.5 -16t-29 -11t-36.5 -4q-22 0 -43 9t-39 23t-33 32.5t-25 37.5q-6 -9 -15 -19t-19 -19t-20 -14.5t-18 -5.5
q-11 0 -19.5 8.5t-8.5 19.5q0 9 12 20zM98 345q0 -19 7.5 -50t23 -61t38 -51.5t52.5 -21.5q25 0 44 10t31.5 26.5t18.5 37.5t6 43q0 23 -6.5 59t-21 70.5t-36.5 59t-53 24.5q-24 0 -43 -15t-32.5 -37t-21 -47.5t-7.5 -46.5zM436.518 747.452
q5.80469 -5.97949 5.80469 -14.3516q0 -14.3506 -15.0928 -33.4854t-36.5703 -37.0742q-21.4775 -17.9385 -44.6963 -32.8877t-40.6328 -23.3203q-20.8975 -7.17578 -52.8232 -15.5469q-31.9268 -8.37207 -59.7891 -8.37207q-23.2188 0 -38.3115 4.18652
q-15.0918 4.18555 -15.0918 26.9082q0 10.7627 6.96484 16.7422q6.96582 5.97949 17.415 8.96973q10.4482 2.99023 21.4775 3.58789q11.0283 0.597656 17.9941 1.79395h5.80469q29.0244 0 57.4668 14.3506q28.4434 14.3516 53.4043 33.4863q24.96 19.1348 45.2773 35.8779
q20.3164 16.7422 33.0869 22.7217q3.48242 1.19629 9.86816 2.39258q6.38477 1.19531 12.1895 1.19531q13.9316 0 16.2539 -7.1748z" />
    <glyph glyph-name="Eacute" unicode="&#xc9;" horiz-adv-x="511" 
d="M-46 257q0 63 12.5 115.5t39.5 90t69 58t101 20.5q21 -3 32 -16.5t15.5 -28.5t5 -28t0.5 -15q0 -39 -14 -85.5t-39.5 -90t-62 -78t-80.5 -48.5q16 -38 35.5 -58t40.5 -29t42.5 -10.5t42.5 -1.5h5q38 0 76 13t75 33.5t71.5 46t64.5 50.5q2 1 6 2q3 1 7 2t9 1
q12 0 23.5 -10t11.5 -24q0 -5 -1 -9t-2 -7q-2 -4 -3 -7q-36 -27 -76 -54t-82.5 -48.5t-86.5 -35t-88 -13.5q-30 0 -56 2.5t-51.5 12.5t-51 30.5t-53.5 56.5q-2 4 -8.5 15t-13 30t-11.5 48t-5 70zM156 467q-5 1 -9 1.5t-9 0.5q-27 0 -50 -15.5t-40 -43t-26.5 -65.5t-9.5 -83
q0 -15 1 -29.5t4 -28.5q34 16 63 44.5t50 61.5t33 65.5t12 55.5q0 30 -19 36zM352.929 743.864q5.80469 -5.97949 5.80469 -14.3516q0 -14.3506 -15.0928 -33.4854q-15.0918 -19.1348 -36.5693 -37.0742q-21.4775 -17.9385 -44.6963 -32.8877
q-23.2197 -14.9492 -40.6338 -23.3203q-20.8965 -7.17578 -52.8232 -15.5469q-31.9258 -8.37207 -59.7891 -8.37207q-23.2188 0 -38.3105 4.18652q-15.0928 4.18555 -15.0928 26.9082q0 10.7627 6.96582 16.7432q6.96582 5.97949 17.4141 8.96875
q10.4482 2.99023 21.4775 3.58789t17.9951 1.79395h5.80469q29.0234 0 57.4668 14.3506q28.4434 14.3516 53.4033 33.4863q24.9609 19.1348 45.2773 35.8779t33.0869 22.7227q3.4834 1.19531 9.86816 2.3916q6.38574 1.19531 12.1904 1.19531q13.9307 0 16.2529 -7.1748z
" />
    <glyph glyph-name="Iacute" unicode="&#xcd;" horiz-adv-x="391" 
d="M-24 180q10 15 13.5 26t3.5 21q0 11 -2.5 22.5t-2.5 27.5q0 22 10.5 33t24.5 11q12 0 20 -7t14 -17.5t11 -23t11 -24.5q12 -24 22.5 -47t24.5 -44t34 -41t51 -38q16 -12 35 -12q22 0 42 16.5t36 37t27 40t17 25.5q10 10 23 10q10 0 17.5 -6.5t7.5 -17.5q0 -14 -14 -43
t-38 -58.5t-55.5 -51.5t-66.5 -22q-32 0 -64 17.5t-61.5 43.5t-53 56t-36.5 56q-3 -6 -7 -13t-9 -13.5t-11.5 -11t-13.5 -4.5q-14 0 -18 8t-4 21q0 11 12 23zM254 604q6 -6 6 -14q0 -15 -15 -33.5t-36.5 -36.5t-45 -33.5t-40.5 -23.5q-21 -7 -53 -15.5t-60 -8.5
q-23 0 -38 4.5t-15 26.5q0 11 7 17t17.5 9t21 4t18.5 2h5q30 0 58.5 14.5t53 33t45 36t33.5 22.5q3 1 9 2.5t13 1.5q13 0 16 -8z" />
    <glyph glyph-name="Oacute" unicode="&#xd3;" horiz-adv-x="518" 
d="M326 199q19 3 37 4t35 1q35 -1 56 -1.5t33 -0.5t17.5 -0.5t10.5 -0.5q16 0 23 -9t7 -20q0 -13 -8 -23.5t-22 -10.5q-24 2 -51 2.5t-59 0.5q-16 0 -32.5 -1t-35.5 -3q1 -7 1 -13.5v-13.5q0 -37 -13 -80t-37 -79.5t-59 -61t-80 -24.5t-79 21t-57.5 57.5t-35 86t-11.5 107.5
q0 44 7.5 88t25 78.5t44.5 56t66 21.5q34 0 61 -8t48.5 -20.5t38 -29t28.5 -33.5q28 -40 41 -91zM54 22q-1 -4 -1 -12q0 -14 8 -30t21 -29.5t29.5 -22.5t34.5 -9q31 0 56 19.5t41.5 48t25.5 61t9 59.5v10t-1 10q-39 -8 -77 -18t-69 -23t-51.5 -29t-25.5 -35zM81 130
q35 17 83 32t101 26q-7 21 -18 42.5t-27 38.5t-37 28t-48 11l-12 -1q-30 -3 -48.5 -16t-29 -34t-14 -49t-3.5 -59q0 -28 3 -55q19 19 50 36zM337.836 584.807q5.80469 -5.98047 5.80469 -14.3516q0 -14.3506 -15.0918 -33.4854q-15.0928 -19.1348 -36.5703 -37.0742
q-21.4775 -17.9385 -44.6963 -32.8877t-40.6328 -23.3203q-20.8975 -7.17578 -52.8232 -15.5469q-31.9268 -8.37207 -59.7891 -8.37207q-23.2188 0 -38.3115 4.18652q-15.0928 4.18555 -15.0928 26.9082q0 10.7627 6.96582 16.7422q6.96582 5.98047 17.415 8.96973
q10.4482 2.99023 21.4775 3.58789q11.0283 0.597656 17.9941 1.79395h5.80469q29.0244 0 57.4668 14.3506q28.4434 14.3516 53.4043 33.4863q24.96 19.1348 45.2764 35.8779q20.3174 16.7422 33.0879 22.7227q3.48242 1.19531 9.86816 2.3916
q6.38477 1.19531 12.1895 1.19531q13.9316 0 16.2529 -7.1748z" />
    <glyph glyph-name="Uacute" unicode="&#xda;" horiz-adv-x="696" 
d="M-29 264q-1 10 -1 19.5v18.5q0 38 2.5 69.5t2.5 59.5t-4 48q0 14 7.5 26.5t21.5 12.5q8 0 20 -12.5t19 -26.5v-49l-9 -157q0 -33 4.5 -65t16 -59.5t32.5 -48.5t54 -32l39 -10q40 0 72 29.5t55 73.5t37 95.5t19 95.5q-6 25 -6 49q0 11 1.5 23t5.5 22t11.5 16.5t20.5 6.5
q7 0 12.5 -4.5t9 -11t5.5 -13t2 -10.5q0 -56 10 -114.5t30 -106.5t49 -79t67 -31q7 0 20 7t26.5 18.5t25.5 25.5t18 28q4 7 12 12.5t19 5.5q12 0 22.5 -7t10.5 -22q0 -17 -14.5 -39t-36 -41.5t-47 -33.5t-47.5 -14q-52 0 -85 22t-63 73q-3 5 -9 16t-13 25.5t-12.5 32
t-6.5 35.5q-13 -44 -33.5 -88t-47.5 -79.5t-61.5 -58t-76.5 -22.5q-31 0 -70 14q-44 15 -71 41t-41.5 60t-19.5 73.5t-5 80.5zM474.828 746.256q5.80469 -5.97949 5.80469 -14.3516q0 -14.3506 -15.0918 -33.4854q-15.0928 -19.1348 -36.5703 -37.0732
q-21.4775 -17.9395 -44.6963 -32.8887q-23.2188 -14.9482 -40.6338 -23.3203q-20.8965 -7.17578 -52.8223 -15.5469q-31.9268 -8.37109 -59.7891 -8.37109q-23.2197 0 -38.3115 4.18555q-15.0928 4.18555 -15.0928 26.9082q0 10.7637 6.96582 16.7432t17.4141 8.96875
q10.4492 2.99023 21.4775 3.58789q11.0293 0.598633 17.9951 1.79395h5.80469q29.0234 0 57.4668 14.3516q28.4434 14.3506 53.4043 33.4854q24.96 19.1348 45.2764 35.8779q20.3174 16.7432 33.0879 22.7227q3.48242 1.19531 9.86719 2.3916
q6.38574 1.19629 12.1904 1.19629q13.9316 0 16.2529 -7.17578z" />
    <glyph glyph-name="perthousand" unicode="&#x2030;" horiz-adv-x="993" 
d="M310 226q3 15 9 29t14 31q6 12 21 28.5t33.5 31.5t38.5 25t36 10q39 0 69 -18t44 -55q23 29 54 51t59 22q34 0 57.5 -11.5t38.5 -31.5t22 -47t7 -57q0 -32 -6.5 -61t-16.5 -49l-3 -4q-10 -19 -20 -36t-25.5 -29.5t-39 -19.5t-59.5 -7q-24 0 -53 14.5t-45 48.5
q-14 -25 -42 -44t-86 -19q-27 0 -48.5 12t-36 31.5t-22 44.5t-7.5 50zM131 639q0 5 1.5 13.5t4 17.5t5.5 16.5t8 12.5q7 13 21.5 30.5t33 33.5t38.5 26.5t37 10.5q36 0 60 -12t39 -33t21.5 -49t6.5 -60q0 -29 -5.5 -55t-13.5 -44l-3 -5q-9 -19 -19 -36.5t-26 -31t-40 -21.5
t-60 -8q-27 0 -47.5 11.5t-35.5 30t-23 42.5t-9 48zM123 179q-15 -13 -23.5 -19t-14.5 -7q-5 0 -7 1l-7 9q-4 8 -4 15q0 9 5 19l3 3q4 8 10 15t14 15q84 73 138.5 120.5t89.5 77.5t56 47.5t37.5 31.5t34.5 28.5t46 39.5l146 127q20 17 28.5 25.5t12 13t5.5 6.5t8 7t17 14
t23 17.5t23.5 14.5t19.5 6q4 0 6 -1l4 -2q9 -9 9 -22q0 -8 -4 -12.5t-8 -9.5q-12 -13 -17.5 -20t-16.5 -18.5t-34 -32.5t-69 -61zM381 252q-7 -13 -13 -36t-6 -48q0 -16 3.5 -31t11.5 -27t20.5 -19t30.5 -7q21 0 39.5 12.5t31.5 34t20.5 51t7.5 62.5q0 29 -11.5 50.5
t-42.5 21.5q-14 0 -28 -6t-26.5 -15t-22 -20.5t-15.5 -22.5zM607 252q-7 -13 -13 -36t-6 -48q0 -16 3.5 -31t11.5 -27t20.5 -19t30.5 -7q21 0 39.5 12.5t31.5 34t20.5 51t7.5 62.5q0 29 -12 50.5t-43 21.5q-14 0 -28 -6t-26 -15t-21.5 -20.5t-15.5 -22.5zM199 667
q-5 -11 -10 -33t-5 -45q0 -34 16 -60.5t52 -26.5q21 0 38.5 12t30 33t19 49.5t6.5 61.5q0 14 -2.5 28t-9 25t-17 18t-25.5 7q-14 0 -28 -6.5t-26.5 -16.5t-22.5 -22t-16 -24z" />
    <glyph glyph-name="Scaron" unicode="&#x160;" horiz-adv-x="810" 
d="M261 563q-12 -47 -32.5 -95t-46 -95t-55.5 -92.5t-62 -86.5l-47 -60q-9 -10 -24 -10q-14 0 -26.5 9t-12.5 23q0 9 8 20l38 48q31 39 63 81.5t59 87t47.5 89.5t29.5 90q13 34 21.5 46t25.5 14h4q65 -27 114.5 -73.5t83 -100.5t50.5 -109t17 -98q29 -6 56 -16.5t52.5 -21
t50.5 -18.5t50 -8q32 7 49.5 10.5t26.5 4.5t12.5 0.5t7.5 0.5h5q11 0 14 -5t5 -13q0 -26 -12 -40.5t-29.5 -21t-36.5 -8t-34 -1.5q-30 0 -59 8.5t-57 19.5t-55.5 22t-55.5 16q-5 -40 -22 -71q-14 -26 -41 -48t-73 -22h-10q-13 0 -30 9.5t-32.5 25t-26 37t-10.5 45.5
q0 5 0.5 9t1.5 9q21 28 41.5 45t42.5 26t46 11.5t51 2.5q1 3 1 11q0 26 -14 67.5t-38.5 85t-58.5 82t-73 58.5zM422 185q-24 -3 -41 -12.5t-39 -28.5q11 -21 23.5 -29t20.5 -8q23 2 36.5 26t18.5 53h-9.5t-9.5 -1zM449 904l3 -1q9 0 9 -8v-4q0 -9 -10 -24.5t-25.5 -34
t-35 -38t-39 -35t-37.5 -25.5t-30 -10h-4q-20 2 -43 18t-45.5 39t-44 49t-38.5 49l-7 9q0 4 1.5 8.5t8.5 4.5h9q0 -1 1 -1t1 -0.5t2 -0.5q7 -4 27 -21.5t44 -36.5t47.5 -34.5t37.5 -15.5q21 4 47 22t50 38t42.5 36t25.5 16z" />
    <glyph glyph-name="cent" unicode="&#xa2;" horiz-adv-x="410" 
d="M166 -99q-1 -40 -5 -50.5t-10 -10.5l-8 1q-14 0 -24.5 20t-10.5 65l-12 71q-1 11 -1 22v22q-17 6 -41 19t-46 35t-38 54.5t-19 77.5q5 37 10.5 78.5t19.5 79.5t42 68t78 42q0 17 1.5 38.5t4.5 40t8.5 31.5t14.5 13q10 0 16.5 -4.5t10 -17t6 -35t5.5 -58.5q27 0 51.5 -11
t43 -31t29.5 -48t11 -62q0 -13 -1 -30t-6 -32t-16 -25t-31 -10q-7 0 -11.5 5.5t-8.5 12.5q-4 8 -7 19q0 3 3 10.5t6.5 16.5t6.5 18t3 15q0 40 -22 64.5t-48 25.5q-1 -107 -1 -168.5v-93.5t-0.5 -43t-0.5 -18l-1 -22q5 -1 9.5 -1.5t9.5 -0.5q66 0 112.5 25t78.5 67
q12 15 29 15q12 0 21.5 -7.5t9.5 -18.5q0 -9 -5 -16q-38 -60 -96.5 -100t-131.5 -40q-19 0 -38 3zM27 264q-3 -2 -4 -9t-1 -17q0 -52 19.5 -79t55.5 -43q2 50 6 95.5t4 91.5v112q-30 -19 -55 -55.5t-25 -95.5z" />
    <glyph glyph-name="exclamdown" unicode="&#xa1;" horiz-adv-x="360" 
d="M141 352.979q-2 17.999 -2.5 29.498t-1 17.999t-1 8.49902q-0.5 2 -3.5 2l-11 -1q-13 -1 -23.5 -18.498q-10.5 -17.499 -10.5 -53.4971l14 -238.985q-1 -5 -1 -9v-8.99902v-11.999q0 -6 1 -12v-12.999q8 -77.9951 14 -132.491q6 -54.4971 9.5 -91.9951
q3.5 -37.4971 5.5 -59.9961t2.5 -35.998t0.5 -20.498v-14v-31.998q0 -15.999 1.5 -32.9971q1.5 -16.999 4 -30.999q2.5 -13.999 4 -22.498q1.5 -8.5 1.5 -6.5q0 -2 -0.5 -2.5t-0.5 -1.49902q0 -2 3 -2q11 1 21.5 6.99902q10.5 6 12.5 34.998q1 9.99902 1.5 12.999t1.5 3
l4 -3q1 0 1 11v-1q-5 91.9941 -9 166.989q-2 31.998 -4 63.4961t-3.5 57.9971q-1.5 26.498 -3 44.4971t-2.5 23.998l-2 22.999q-4 20.998 -5.5 42.9971t-1.5 32.998q0 11.999 1.5 14.999t1.5 12.999q0 22.999 -2 42.498q-2 19.498 -2 37.4971zM102 593.964q-7 0 -15.5 -0.5
t-16.5 -4t-13.5 -10.999q-5.5 -7.5 -5.5 -21.499q0 -43.9971 23.5 -61.4961t53.5 -17.499q22 2 31 18.499t9 33.498q0 13.999 -1.5 25.498q-1.5 11.5 -7.5 19.999q-6 8.5 -18.5 13.499q-12.5 5 -34.5 5h-4z" />
    <glyph glyph-name="guilsinglleft" unicode="&#x2039;" horiz-adv-x="527" 
d="M357 535q-22 -23 -37 -37.5t-28.5 -28t-27.5 -29.5t-34 -41q-18 -23 -34 -40.5t-30.5 -34t-25.5 -32.5t-18 -36l32 -46q25 -31 47 -55t43 -46t41.5 -44.5t42.5 -50.5q9 -12 9 -23q0 -14 -10.5 -24t-22.5 -10q-14 0 -21 11q-26 31 -46.5 55t-40.5 46t-41 45t-46 52
q-8 10 -18.5 19t-20 18.5t-16 20t-6.5 22.5q0 6 1 9q8 31 23 52.5t33 40t38 37.5t39 45q20 28 34.5 45t28.5 31t29.5 28.5t38.5 37.5q9 12 21 12q11 0 20.5 -9.5t9.5 -21.5q0 -10 -7 -18z" />
    <glyph glyph-name="Ydieresis" unicode="&#x178;" horiz-adv-x="496" 
d="M26 162q0 -17 5 -35t14.5 -32t23 -23t29.5 -9q20 0 42.5 16.5t48.5 55.5q11 16 21 39.5t18 47t13 44.5t5 34q0 14 7.5 21t17.5 7q12 0 22.5 -9.5t10.5 -26.5q-26 -167 -52.5 -329.5t-38.5 -329.5q0 -19 -4 -64t-12 -101q82 23 163 44t157 56q7 3 13 3q12 0 20 -9t8 -20
q0 -7 -4 -13.5t-12 -10.5q-42 -22 -86.5 -38t-89.5 -29.5t-91 -25.5t-91 -26q-9 -43 -22.5 -84t-31.5 -72.5t-40.5 -51t-50.5 -19.5h-8q-21 3 -35.5 16t-23 31t-12 38.5t-3.5 38.5q3 30 14 50.5t26.5 34.5t33.5 24t36 19l5 3q15 6 30.5 11.5t30.5 10.5q9 52 13.5 101t7.5 83
q8 111 23 220t33 219q-24 -29 -53.5 -47.5t-65.5 -18.5q-33 0 -56 12.5t-37.5 32t-21 44.5t-6.5 50q0 24 5 46t14 39.5t21 28t26 10.5q6 0 14 -3.5t16 -9t13.5 -12.5t5.5 -14q0 -11 -10 -19t-23 -8q-8 0 -15 3q-11 -19 -11 -44zM98 -631q-35 -14 -58.5 -34.5t-23.5 -52.5
q0 -8 2 -17t5 -17t8 -13.5t11 -5.5q12 0 23 13.5t21 34.5t18.5 47.5t14.5 52.5q-5 -2 -10.5 -4t-10.5 -4zM96 404q-5 0 -12 0.5t-13 3t-10.5 8.5t-4.5 17q0 33 18 47.5t42 14.5q17 -2 24.5 -15t7.5 -26q0 -11 -1 -20t-6.5 -15.5t-16 -10.5t-28.5 -4zM246 407q-5 0 -12 0.5
t-13 3t-10.5 8.5t-4.5 17q0 33 18 47.5t42 14.5q17 -2 24.5 -15t7.5 -26q0 -11 -1 -20t-6.5 -15.5t-16 -10.5t-28.5 -4z" />
    <glyph glyph-name="degree" unicode="&#xb0;" horiz-adv-x="426" 
d="M-13 753q2 11 6 30.5t14 29.5q7 13 21.5 31t33 33.5t38.5 26.5t37 11q36 0 60 -12.5t39 -33.5t21.5 -49t6.5 -59q0 -29 -5 -55.5t-13 -44.5l-4 -4q-9 -20 -19 -37.5t-26 -31t-40 -21.5t-60 -8q-27 0 -47.5 11.5t-35.5 30t-23 42.5t-9 49zM56 781q-5 -11 -10 -32.5
t-5 -44.5q0 -35 16 -61.5t52 -26.5q21 0 38.5 12t30 33t19 49.5t6.5 62.5q0 14 -2.5 27.5t-8.5 24.5t-16.5 18t-26.5 7q-14 0 -28 -6.5t-26.5 -16.5t-22.5 -22t-16 -24z" />
    <glyph glyph-name="cedilla" unicode="&#xb8;" horiz-adv-x="412" 
d="M218 33q2 0 18.5 -13t35.5 -32t34.5 -40.5t15.5 -38.5q0 -22 -13 -47t-32.5 -47t-42 -36.5t-42.5 -15.5q-80 2 -118.5 36t-38.5 82q0 14 6.5 21t14.5 7q2 0 8 -2q19 -9 33 -22.5t27.5 -26t28 -21.5t34.5 -9q10 0 20.5 9.5t19 23t14 29t5.5 27.5q-1 16 -15.5 30.5
t-31 27.5t-30 25t-13.5 22t9.5 11.5t17.5 1.5q10 0 18.5 -1t16.5 -1z" />
    <glyph glyph-name="ccedilla" unicode="&#xe7;" horiz-adv-x="410" 
d="M433 159q-39 -60 -97.5 -100t-130.5 -40q-42 0 -85 15q-45 11 -81 36q-15 10 -30.5 24.5t-27.5 34t-20.5 44t-9.5 54.5q4 28 7.5 59.5t11 62t21 58.5t36.5 49.5t57.5 34t85.5 12.5q27 0 51 -11t42 -31t29 -48t11 -62q0 -13 -1 -30t-6 -32t-16 -25t-31 -10q-7 0 -11.5 5.5
t-8.5 12.5q-4 8 -7 19q0 3 3 10.5t6.5 16.5t6.5 18t3 15q0 20 -6 36.5t-16 28.5t-23 18.5t-26 6.5q-10 0 -34 -9t-49.5 -32t-45 -62t-19.5 -100q0 -72 43 -103.5t122 -40.5q66 0 112.5 25t78.5 67q12 15 29 15q12 0 21.5 -7.5t9.5 -18.5q0 -9 -5 -16zM192 47q2 0 18.5 -13
t35.5 -32t34.5 -40.5t15.5 -38.5q0 -22 -13 -47t-32.5 -47t-42 -36.5t-42.5 -15.5q-80 2 -118.5 36t-38.5 82q0 14 6.5 21t14.5 7q2 0 8 -2q19 -9 33 -22.5t27.5 -26t28 -21.5t34.5 -9q10 0 20.5 9.5t19 23t14 29t5.5 27.5q-1 16 -15.5 30.5t-31 27.5t-30 25t-13.5 22
t9.5 11.5t17.5 1.5q10 0 18.5 -1t16.5 -1z" />
    <glyph glyph-name="Ccedilla" unicode="&#xc7;" horiz-adv-x="471" 
d="M-33 180q16 25 31 52t28 49t22.5 37t14.5 18q8 33 24 63.5t40.5 53.5t56.5 36.5t73 13.5q46 0 83.5 -27t55.5 -74q4 -7 4 -15q0 -11 -9 -18t-20 -7q-9 0 -18 5t-14 16q-13 25 -38.5 42.5t-52.5 17.5q-36 0 -61.5 -15.5t-41.5 -39t-23.5 -52t-7.5 -54.5q0 -39 9.5 -77.5
t29.5 -69t52 -49t77 -18.5q28 0 51 9t42 25t34 36.5t26 44.5q5 9 12 13.5t15 4.5q13 0 24 -10t11 -27q0 -10 -4 -19q-31 -65 -84 -105.5t-128 -40.5q-48 0 -86 17.5t-65.5 47t-45 67.5t-24.5 79q-2 -4 -8.5 -16.5t-16 -26t-21 -24t-24.5 -10.5q-12 0 -20.5 8.5t-8.5 20.5v5
q0 5 6 13zM275 33q2 0 18.5 -13t35.5 -32t34.5 -40.5t15.5 -38.5q0 -22 -13 -47t-32.5 -47t-42 -36.5t-42.5 -15.5q-80 2 -118.5 36t-38.5 82q0 14 6.5 21t14.5 7q2 0 8 -2q19 -9 33 -22.5t27.5 -26t28 -21.5t34.5 -9q10 0 20.5 9.5t19 23t14 29t5.5 27.5q-1 16 -15.5 30.5
t-31 27.5t-30 25t-13.5 22t9.5 11.5t17.5 1.5q10 0 18.5 -1t16.5 -1z" />
    <glyph glyph-name="questiondown" unicode="&#xbf;" horiz-adv-x="565" 
d="M167.99 155.99q22.998 45.9971 39.4971 76.4951q16.499 30.499 26.498 54.9971q10 24.498 14.499 47.4971q4.5 22.999 4.5 53.9971v9.99902q1 16.999 11.499 26.498q10.5 9.5 23.499 9.5t22.999 -10q9.99902 -9.99902 9.99902 -30.998q-2 -51.9961 -12.499 -90.9941
q-10.5 -38.9971 -26.499 -72.9951t-36.4971 -67.9961q-20.499 -33.998 -43.498 -75.9951l-58.9961 -109.993q-2 -8 -4 -12q-20.998 -56.9961 -37.9971 -105.993t-16.999 -91.9941q0 -37.998 15.499 -71.4961t50.4971 -62.4961q31.998 5 56.9961 10.999
q24.999 6 42.4971 16.499q17.499 10.5 26.999 25.999q9.49902 15.499 9.49902 39.4971q0 14.999 -3.5 32.998q-3.49902 17.999 -11.499 39.998q-3 10.999 -3 18.998q0 14.999 8.5 24.499q8.49902 9.49902 19.499 9.49902q14.999 0 25.498 -14.999t17.499 -36.4971
q6.99902 -21.499 9.99902 -44.998q3 -23.498 3 -39.4971q0 -39.998 -17.499 -68.4961t-45.4971 -46.9971t-61.9961 -26.998q-33.998 -8.5 -65.9961 -8.5q-30.998 0 -53.4971 12.499q-22.498 12.5 -38.9971 31.498q-16.499 18.999 -26.999 42.498
q-10.499 23.498 -15.999 45.9971q-5.49902 22.499 -7.99902 40.4971q-2.5 17.999 -2.5 26.999q0 37.9971 9.49902 77.4951q9.5 39.4971 25.499 79.9951q15.999 40.4971 36.498 81.4951q20.498 40.9971 42.4971 81.9951zM290.982 608.963q6.99902 0 15.499 -0.5
q8.49902 -0.5 16.499 -4q7.99902 -3.5 13.499 -10.999q5.5 -7.5 5.5 -21.499q0 -43.9971 -23.499 -61.4961q-23.498 -17.499 -53.4971 -17.499q-21.998 2 -30.998 18.499q-8.99902 16.499 -8.99902 33.498q0 13.999 1.5 25.498q1.5 11.5 7.49902 19.999q6 8.5 18.499 13.499
q12.499 5 34.498 5h4z" />
    <glyph glyph-name="Eth" unicode="&#xd0;" horiz-adv-x="544" 
d="M346 219h-43q5 -27 13 -52.5t19 -45.5t26 -32t35 -12q26 0 48 18.5t40 40.5t32.5 40.5t26.5 18.5t21.5 -9.5t9.5 -23.5q0 -9 -4 -16q-14 -20 -34 -44t-44.5 -45t-51.5 -35t-53 -14q-16 0 -31.5 8.5t-29.5 22t-26.5 31.5t-22.5 36q-14 -21 -34 -35.5t-42.5 -23.5
t-46.5 -12.5t-46 -3.5q-9 0 -15 6q-43 35 -70 92t-27 122q0 34 6.5 65t21.5 54t38.5 36.5t56.5 13.5q28 0 61 -12.5t59 -41.5q5 62 12 106q23 85 33 174.5t10 183.5q0 93 -9 185t-25 180q-1 2 -1 7q0 12 10 19.5t22 7.5q10 0 18.5 -5.5t10.5 -19.5q17 -88 26 -182.5
t9 -191.5t-10 -192t-32 -182q-3 -11 -6 -29t-6 -40.5t-5 -48t-2 -51.5v-5h124q6 -6 10 -12q4 -5 7 -11.5t3 -13.5q0 -11 -12.5 -19.5t-47.5 -8.5q-6 0 -13.5 0.5t-18.5 1.5zM230 159q10 21 10 50q0 8 -1 13h-46q-17 0 -33 1.5t-28 5.5t-19.5 11t-7.5 18q8 20 18.5 23.5
t17.5 3.5q1 -1 8 -1q11 0 20 2t18 2l35 -2q-19 38 -49 55.5t-54 17.5q-19 0 -31.5 -10t-19.5 -26.5t-9.5 -37.5t-2.5 -44q0 -45 18 -79.5t54 -66.5q16 0 32 3t30 10t24.5 19.5t15.5 31.5z" />
    <glyph glyph-name="Ntilde" unicode="&#xd1;" horiz-adv-x="714" 
d="M-7 139q-8 2 -15.5 7t-7.5 13l1 5q0 1 4 7t8.5 13.5t8 14.5t4.5 10q8 33 23.5 66t36.5 60t47.5 45.5t56.5 21.5h9q44 0 72 -34.5t42 -83.5q35 72 69 104.5t61 32.5q24 0 44.5 -19.5t39 -49t35 -64t33.5 -64t35 -49t39 -19.5q10 0 17 3t14 8.5t14.5 11.5t19.5 12q3 1 8 1
q11 0 20 -8t9 -19q0 -9 -8 -17q-25 -23 -48.5 -35t-49.5 -12q-28 0 -51 16t-42 40t-35 53t-31 55.5t-29.5 46.5t-29.5 26q-3 0 -8.5 -2t-12.5 -5t-12.5 -6.5t-8.5 -6.5q-18 -24 -30 -44t-20 -40t-11.5 -41.5t-3.5 -48.5q-4 -36 -15.5 -45t-25.5 -9q-11 0 -18.5 7.5
t-7.5 21.5v55q0 26 -4 52.5t-12.5 48.5t-21 35.5t-29.5 13.5q-29 -6 -49 -22t-34 -36.5t-24.5 -42.5t-21.5 -40.5t-23.5 -31t-30.5 -12.5zM95 588q1 0 6.5 6t14.5 13t22 13t29 6h10q20 -3 38.5 -13t36.5 -21.5t34.5 -20.5t32.5 -9q23 0 35.5 11t22 24t20.5 24t32 11
q14 0 17.5 -5t3.5 -13q0 -23 -12 -44t-30.5 -37.5t-41 -26t-43.5 -9.5t-41.5 10t-39.5 22.5t-35.5 23.5t-29.5 13l-5 1q-9 0 -17 -5.5t-15 -12t-13.5 -12t-12.5 -5.5q-10 0 -20 7.5t-10 30.5q0 7 2 12.5t9 5.5z" />
    <glyph glyph-name="Acircumflex" unicode="&#xc2;" horiz-adv-x="606" 
d="M-17 185q19 17 31 40.5t29 41.5q-5 18 -7 35.5t-2 37.5q0 19 5 49.5t14.5 59t22 49t27.5 20.5q7 0 15 -6q20 18 43.5 28.5t46.5 10.5q40 0 73 -27t56.5 -66t36.5 -81.5t13 -73.5q0 -37 -1 -55.5t-3 -26.5q0 -20 8.5 -40.5t23 -37t32 -26.5t35.5 -10q22 0 37 13t28 29
t25.5 29t29.5 13q13 0 20 -7.5t7 -17.5q0 -16 -14 -24q-30 -48 -63 -70.5t-84 -22.5h-7q-15 0 -34.5 9.5t-38.5 24t-34 30.5t-21 29q-17 -9 -30 -18t-26.5 -16t-29 -11t-36.5 -4q-22 0 -43 9t-39 23t-33 32.5t-25 37.5q-6 -9 -15 -19t-19 -19t-20 -14.5t-18 -5.5
q-11 0 -19.5 8.5t-8.5 19.5q0 9 12 20zM98 345q0 -19 7.5 -50t23 -61t38 -51.5t52.5 -21.5q25 0 44 10t31.5 26.5t18.5 37.5t6 43q0 23 -6.5 59t-21 70.5t-36.5 59t-53 24.5q-24 0 -43 -15t-32.5 -37t-21 -47.5t-7.5 -46.5zM34 570l-3 1q-9 0 -9 8v4q0 9 10 24.5t25.5 34
t35 38t39 35t37.5 25.5t30 10h4q20 -2 43 -18t45.5 -39t44 -49.5t38.5 -48.5l7 -9q0 -5 -1.5 -9t-8.5 -4h-9q0 1 -1 1q-2 0 -3 1q-7 4 -27 21.5t-44 36.5t-47.5 34.5t-37.5 15.5q-22 -4 -47.5 -22t-49.5 -38t-42.5 -36t-25.5 -16z" />
    <glyph glyph-name="Ecircumflex" unicode="&#xca;" horiz-adv-x="511" 
d="M-46 257q0 63 12.5 115.5t39.5 90t69 58t101 20.5q21 -3 32 -16.5t15.5 -28.5t5 -28t0.5 -15q0 -39 -14 -85.5t-39.5 -90t-62 -78t-80.5 -48.5q16 -38 35.5 -58t40.5 -29t42.5 -10.5t42.5 -1.5h5q38 0 76 13t75 33.5t71.5 46t64.5 50.5q2 1 6 2q3 1 7 2t9 1
q12 0 23.5 -10t11.5 -24q0 -5 -1 -9t-2 -7q-2 -4 -3 -7q-36 -27 -76 -54t-82.5 -48.5t-86.5 -35t-88 -13.5q-30 0 -56 2.5t-51.5 12.5t-51 30.5t-53.5 56.5q-2 4 -8.5 15t-13 30t-11.5 48t-5 70zM156 467q-5 1 -9 1.5t-9 0.5q-27 0 -50 -15.5t-40 -43t-26.5 -65.5t-9.5 -83
q0 -15 1 -29.5t4 -28.5q34 16 63 44.5t50 61.5t33 65.5t12 55.5q0 30 -19 36zM-11 556l-3 1q-9 0 -9 8v4q0 9 10 24.5t25.5 34t35 38t39 35t37.5 25.5t30 10h4q20 -2 43 -18t45.5 -39t44 -49.5t38.5 -48.5l7 -9q0 -5 -1.5 -9t-8.5 -4h-9q0 1 -1 1q-2 0 -3 1q-7 4 -27 21.5
t-44 36.5t-47.5 34.5t-37.5 15.5q-22 -4 -47.5 -22t-49.5 -38t-42.5 -36t-25.5 -16z" />
    <glyph glyph-name="Icircumflex" unicode="&#xce;" horiz-adv-x="391" 
d="M-24 180q10 15 13.5 26t3.5 21q0 11 -2.5 22.5t-2.5 27.5q0 22 10.5 33t24.5 11q12 0 20 -7t14 -17.5t11 -23t11 -24.5q12 -24 22.5 -47t24.5 -44t34 -41t51 -38q16 -12 35 -12q22 0 42 16.5t36 37t27 40t17 25.5q10 10 23 10q10 0 17.5 -6.5t7.5 -17.5q0 -14 -14 -43
t-38 -58.5t-55.5 -51.5t-66.5 -22q-32 0 -64 17.5t-61.5 43.5t-53 56t-36.5 56q-3 -6 -7 -13t-9 -13.5t-11.5 -11t-13.5 -4.5q-14 0 -18 8t-4 21q0 11 12 23zM-137 354l-3 1q-9 0 -9 8v4q0 9 10 24.5t25.5 34t35 38t39 35t37.5 25.5t30 10h4q20 -2 43 -18t45.5 -39t44 -49.5
t38.5 -48.5l7 -9q0 -5 -1.5 -9t-8.5 -4h-9q0 1 -1 1q-2 0 -3 1q-7 4 -27 21.5t-44 36.5t-47.5 34.5t-37.5 15.5q-22 -4 -47.5 -22t-49.5 -38t-42.5 -36t-25.5 -16z" />
    <glyph glyph-name="Ocircumflex" unicode="&#xd4;" horiz-adv-x="518" 
d="M326 199q19 3 37 4t35 1q35 -1 56 -1.5t33 -0.5t17.5 -0.5t10.5 -0.5q16 0 23 -9t7 -20q0 -13 -8 -23.5t-22 -10.5q-24 2 -51 2.5t-59 0.5q-16 0 -32.5 -1t-35.5 -3q1 -7 1 -13.5v-13.5q0 -37 -13 -80t-37 -79.5t-59 -61t-80 -24.5t-79 21t-57.5 57.5t-35 86t-11.5 107.5
q0 44 7.5 88t25 78.5t44.5 56t66 21.5q34 0 61 -8t48.5 -20.5t38 -29t28.5 -33.5q28 -40 41 -91zM54 22q-1 -4 -1 -12q0 -14 8 -30t21 -29.5t29.5 -22.5t34.5 -9q31 0 56 19.5t41.5 48t25.5 61t9 59.5v10t-1 10q-39 -8 -77 -18t-69 -23t-51.5 -29t-25.5 -35zM81 130
q35 17 83 32t101 26q-7 21 -18 42.5t-27 38.5t-37 28t-48 11l-12 -1q-30 -3 -48.5 -16t-29 -34t-14 -49t-3.5 -59q0 -28 3 -55q19 19 50 36zM-30 426l-3 1q-9 0 -9 8v4q0 9 10 24.5t25.5 34t35 38t39 35t37.5 25.5t30 10h4q20 -2 43 -18t45.5 -39t44 -49.5t38.5 -48.5l7 -9
q0 -5 -1.5 -9t-8.5 -4h-9q0 1 -1 1q-2 0 -3 1q-7 4 -27 21.5t-44 36.5t-47.5 34.5t-37.5 15.5q-22 -4 -47.5 -22t-49.5 -38t-42.5 -36t-25.5 -16z" />
    <glyph glyph-name="Ucircumflex" unicode="&#xdb;" horiz-adv-x="696" 
d="M-29 264q-1 10 -1 19.5v18.5q0 38 2.5 69.5t2.5 59.5t-4 48q0 14 7.5 26.5t21.5 12.5q8 0 20 -12.5t19 -26.5v-49l-9 -157q0 -33 4.5 -65t16 -59.5t32.5 -48.5t54 -32l39 -10q40 0 72 29.5t55 73.5t37 95.5t19 95.5q-6 25 -6 49q0 11 1.5 23t5.5 22t11.5 16.5t20.5 6.5
q7 0 12.5 -4.5t9 -11t5.5 -13t2 -10.5q0 -56 10 -114.5t30 -106.5t49 -79t67 -31q7 0 20 7t26.5 18.5t25.5 25.5t18 28q4 7 12 12.5t19 5.5q12 0 22.5 -7t10.5 -22q0 -17 -14.5 -39t-36 -41.5t-47 -33.5t-47.5 -14q-52 0 -85 22t-63 73q-3 5 -9 16t-13 25.5t-12.5 32
t-6.5 35.5q-13 -44 -33.5 -88t-47.5 -79.5t-61.5 -58t-76.5 -22.5q-31 0 -70 14q-44 15 -71 41t-41.5 60t-19.5 73.5t-5 80.5zM51 562l-3 1q-9 0 -9 8v4q0 9 10 24.5t25.5 34t35 38t39 35t37.5 25.5t30 10h4q20 -2 43 -18t45.5 -39t44 -49.5t38.5 -48.5l7 -9q0 -5 -1.5 -9
t-8.5 -4h-9q0 1 -1 1q-2 0 -3 1q-7 4 -27 21.5t-44 36.5t-47.5 34.5t-37.5 15.5q-22 -4 -47.5 -22t-49.5 -38t-42.5 -36t-25.5 -16z" />
    <glyph glyph-name="Edieresis" unicode="&#xcb;" horiz-adv-x="511" 
d="M-46 257q0 63 12.5 115.5t39.5 90t69 58t101 20.5q21 -3 32 -16.5t15.5 -28.5t5 -28t0.5 -15q0 -39 -14 -85.5t-39.5 -90t-62 -78t-80.5 -48.5q16 -38 35.5 -58t40.5 -29t42.5 -10.5t42.5 -1.5h5q38 0 76 13t75 33.5t71.5 46t64.5 50.5q2 1 6 2q3 1 7 2t9 1
q12 0 23.5 -10t11.5 -24q0 -5 -1 -9t-2 -7q-2 -4 -3 -7q-36 -27 -76 -54t-82.5 -48.5t-86.5 -35t-88 -13.5q-30 0 -56 2.5t-51.5 12.5t-51 30.5t-53.5 56.5q-2 4 -8.5 15t-13 30t-11.5 48t-5 70zM156 467q-5 1 -9 1.5t-9 0.5q-27 0 -50 -15.5t-40 -43t-26.5 -65.5t-9.5 -83
q0 -15 1 -29.5t4 -28.5q34 16 63 44.5t50 61.5t33 65.5t12 55.5q0 30 -19 36zM56 611q-5 0 -12 0.5t-13 3t-10.5 8.5t-4.5 17q0 33 18 47.5t42 14.5q17 -2 24.5 -15t7.5 -26q0 -11 -1 -20t-6.5 -15.5t-16 -10.5t-28.5 -4zM206 614q-5 0 -12 0.5t-13 3t-10.5 8.5t-4.5 17
q0 33 18 47.5t42 14.5q17 -2 24.5 -15t7.5 -26q0 -11 -1 -20t-6.5 -15.5t-16 -10.5t-28.5 -4z" />
    <glyph glyph-name="Idieresis" unicode="&#xcf;" horiz-adv-x="391" 
d="M-24 180q10 15 13.5 26t3.5 21q0 11 -2.5 22.5t-2.5 27.5q0 22 10.5 33t24.5 11q12 0 20 -7t14 -17.5t11 -23t11 -24.5q12 -24 22.5 -47t24.5 -44t34 -41t51 -38q16 -12 35 -12q22 0 42 16.5t36 37t27 40t17 25.5q10 10 23 10q10 0 17.5 -6.5t7.5 -17.5q0 -14 -14 -43
t-38 -58.5t-55.5 -51.5t-66.5 -22q-32 0 -64 17.5t-61.5 43.5t-53 56t-36.5 56q-3 -6 -7 -13t-9 -13.5t-11.5 -11t-13.5 -4.5q-14 0 -18 8t-4 21q0 11 12 23zM-62 437q-5 0 -12 0.5t-13 3t-10.5 8.5t-4.5 17q0 33 18 47.5t42 14.5q17 -2 24.5 -15t7.5 -26q0 -11 -1 -20
t-6.5 -15.5t-16 -10.5t-28.5 -4zM88 440q-5 0 -12 0.5t-13 3t-10.5 8.5t-4.5 17q0 33 18 47.5t42 14.5q17 -2 24.5 -15t7.5 -26q0 -11 -1 -20t-6.5 -15.5t-16 -10.5t-28.5 -4z" />
    <glyph glyph-name="Odieresis" unicode="&#xd6;" horiz-adv-x="518" 
d="M326 199q19 3 37 4t35 1q35 -1 56 -1.5t33 -0.5t17.5 -0.5t10.5 -0.5q16 0 23 -9t7 -20q0 -13 -8 -23.5t-22 -10.5q-24 2 -51 2.5t-59 0.5q-16 0 -32.5 -1t-35.5 -3q1 -7 1 -13.5v-13.5q0 -37 -13 -80t-37 -79.5t-59 -61t-80 -24.5t-79 21t-57.5 57.5t-35 86t-11.5 107.5
q0 44 7.5 88t25 78.5t44.5 56t66 21.5q34 0 61 -8t48.5 -20.5t38 -29t28.5 -33.5q28 -40 41 -91zM54 22q-1 -4 -1 -12q0 -14 8 -30t21 -29.5t29.5 -22.5t34.5 -9q31 0 56 19.5t41.5 48t25.5 61t9 59.5v10t-1 10q-39 -8 -77 -18t-69 -23t-51.5 -29t-25.5 -35zM81 130
q35 17 83 32t101 26q-7 21 -18 42.5t-27 38.5t-37 28t-48 11l-12 -1q-30 -3 -48.5 -16t-29 -34t-14 -49t-3.5 -59q0 -28 3 -55q19 19 50 36zM46 456q-5 0 -12 0.5t-13 3t-10.5 8.5t-4.5 17q0 33 18 47.5t42 14.5q17 -2 24.5 -15t7.5 -26q0 -11 -1 -20t-6.5 -15.5t-16 -10.5
t-28.5 -4zM196 459q-5 0 -12 0.5t-13 3t-10.5 8.5t-4.5 17q0 33 18 47.5t42 14.5q17 -2 24.5 -15t7.5 -26q0 -11 -1 -20t-6.5 -15.5t-16 -10.5t-28.5 -4z" />
    <glyph glyph-name="Udieresis" unicode="&#xdc;" horiz-adv-x="696" 
d="M-29 264q-1 10 -1 19.5v18.5q0 38 2.5 69.5t2.5 59.5t-4 48q0 14 7.5 26.5t21.5 12.5q8 0 20 -12.5t19 -26.5v-49l-9 -157q0 -33 4.5 -65t16 -59.5t32.5 -48.5t54 -32l39 -10q40 0 72 29.5t55 73.5t37 95.5t19 95.5q-6 25 -6 49q0 11 1.5 23t5.5 22t11.5 16.5t20.5 6.5
q7 0 12.5 -4.5t9 -11t5.5 -13t2 -10.5q0 -56 10 -114.5t30 -106.5t49 -79t67 -31q7 0 20 7t26.5 18.5t25.5 25.5t18 28q4 7 12 12.5t19 5.5q12 0 22.5 -7t10.5 -22q0 -17 -14.5 -39t-36 -41.5t-47 -33.5t-47.5 -14q-52 0 -85 22t-63 73q-3 5 -9 16t-13 25.5t-12.5 32
t-6.5 35.5q-13 -44 -33.5 -88t-47.5 -79.5t-61.5 -58t-76.5 -22.5q-31 0 -70 14q-44 15 -71 41t-41.5 60t-19.5 73.5t-5 80.5zM108 589q-5 0 -12 0.5t-13 3t-10.5 8.5t-4.5 17q0 33 18 47.5t42 14.5q17 -2 24.5 -15t7.5 -26q0 -11 -1 -20t-6.5 -15.5t-16 -10.5t-28.5 -4z
M258 592q-5 0 -12 0.5t-13 3t-10.5 8.5t-4.5 17q0 33 18 47.5t42 14.5q17 -2 24.5 -15t7.5 -26q0 -11 -1 -20t-6.5 -15.5t-16 -10.5t-28.5 -4z" />
    <glyph glyph-name="Adieresis" unicode="&#xc4;" horiz-adv-x="606" 
d="M-17 185q19 17 31 40.5t29 41.5q-5 18 -7 35.5t-2 37.5q0 19 5 49.5t14.5 59t22 49t27.5 20.5q7 0 15 -6q20 18 43.5 28.5t46.5 10.5q40 0 73 -27t56.5 -66t36.5 -81.5t13 -73.5q0 -37 -1 -55.5t-3 -26.5q0 -20 8.5 -40.5t23 -37t32 -26.5t35.5 -10q22 0 37 13t28 29
t25.5 29t29.5 13q13 0 20 -7.5t7 -17.5q0 -16 -14 -24q-30 -48 -63 -70.5t-84 -22.5h-7q-15 0 -34.5 9.5t-38.5 24t-34 30.5t-21 29q-17 -9 -30 -18t-26.5 -16t-29 -11t-36.5 -4q-22 0 -43 9t-39 23t-33 32.5t-25 37.5q-6 -9 -15 -19t-19 -19t-20 -14.5t-18 -5.5
q-11 0 -19.5 8.5t-8.5 19.5q0 9 12 20zM98 345q0 -19 7.5 -50t23 -61t38 -51.5t52.5 -21.5q25 0 44 10t31.5 26.5t18.5 37.5t6 43q0 23 -6.5 59t-21 70.5t-36.5 59t-53 24.5q-24 0 -43 -15t-32.5 -37t-21 -47.5t-7.5 -46.5zM124 614q-5 0 -12 0.5t-13 3t-10.5 8.5t-4.5 17
q0 33 18 47.5t42 14.5q17 -2 24.5 -15t7.5 -26q0 -11 -1 -20t-6.5 -15.5t-16 -10.5t-28.5 -4zM274 617q-5 0 -12 0.5t-13 3t-10.5 8.5t-4.5 17q0 33 18 47.5t42 14.5q17 -2 24.5 -15t7.5 -26q0 -11 -1 -20t-6.5 -15.5t-16 -10.5t-28.5 -4z" />
    <glyph glyph-name="Yacute" unicode="&#xdd;" horiz-adv-x="500" 
d="M26 162q0 -17 5 -35t14.5 -32t23 -23t29.5 -9q20 0 42.5 16.5t48.5 55.5q11 16 21 39.5t18 47t13 44.5t5 34q0 14 7.5 21t17.5 7q12 0 22.5 -9.5t10.5 -26.5q-26 -167 -52.5 -329.5t-38.5 -329.5q0 -19 -4 -64t-12 -101q82 23 163 44t157 56q7 3 13 3q12 0 20 -9t8 -20
q0 -7 -4 -13.5t-12 -10.5q-42 -22 -86.5 -38t-89.5 -29.5t-91 -25.5t-91 -26q-9 -43 -22.5 -84t-31.5 -72.5t-40.5 -51t-50.5 -19.5h-8q-21 3 -35.5 16t-23 31t-12 38.5t-3.5 38.5q3 30 14 50.5t26.5 34.5t33.5 24t36 19l5 3q15 6 30.5 11.5t30.5 10.5q9 52 13.5 101t7.5 83
q8 111 23 220t33 219q-24 -29 -53.5 -47.5t-65.5 -18.5q-33 0 -56 12.5t-37.5 32t-21 44.5t-6.5 50q0 24 5 46t14 39.5t21 28t26 10.5q6 0 14 -3.5t16 -9t13.5 -12.5t5.5 -14q0 -11 -10 -19t-23 -8q-8 0 -15 3q-11 -19 -11 -44zM98 -631q-35 -14 -58.5 -34.5t-23.5 -52.5
q0 -8 2 -17t5 -17t8 -13.5t11 -5.5q12 0 23 13.5t21 34.5t18.5 47.5t14.5 52.5q-5 -2 -10.5 -4t-10.5 -4zM316.939 527.402q5.80469 -5.98047 5.80469 -14.3516q0 -14.3506 -15.0928 -33.4854q-15.0918 -19.1348 -36.5693 -37.0742q-21.4775 -17.9385 -44.6973 -32.8877
q-23.2188 -14.9492 -40.6328 -23.3203q-20.8975 -7.17578 -52.8232 -15.5469q-31.9258 -8.37207 -59.7891 -8.37207q-23.2188 0 -38.3115 4.18652q-15.0918 4.18555 -15.0918 26.9082q0 10.7627 6.96582 16.7422q6.96582 5.98047 17.4141 8.96973
q10.4482 2.99023 21.4775 3.58789t17.9941 1.79395h5.80566q29.0234 0 57.4668 14.3506q28.4434 14.3516 53.4033 33.4863q24.9609 19.1348 45.2773 35.8779q20.3164 16.7422 33.0869 22.7227q3.48242 1.19531 9.86816 2.3916q6.38477 1.19531 12.1895 1.19531
q13.9316 0 16.2539 -7.1748z" />
    <glyph glyph-name="Otilde" unicode="&#xd5;" horiz-adv-x="518" 
d="M326 199q19 3 37 4t35 1q35 -1 56 -1.5t33 -0.5t17.5 -0.5t10.5 -0.5q16 0 23 -9t7 -20q0 -13 -8 -23.5t-22 -10.5q-24 2 -51 2.5t-59 0.5q-16 0 -32.5 -1t-35.5 -3q1 -7 1 -13.5v-13.5q0 -37 -13 -80t-37 -79.5t-59 -61t-80 -24.5t-79 21t-57.5 57.5t-35 86t-11.5 107.5
q0 44 7.5 88t25 78.5t44.5 56t66 21.5q34 0 61 -8t48.5 -20.5t38 -29t28.5 -33.5q28 -40 41 -91zM54 22q-1 -4 -1 -12q0 -14 8 -30t21 -29.5t29.5 -22.5t34.5 -9q31 0 56 19.5t41.5 48t25.5 61t9 59.5v10t-1 10q-39 -8 -77 -18t-69 -23t-51.5 -29t-25.5 -35zM81 130
q35 17 83 32t101 26q-7 21 -18 42.5t-27 38.5t-37 28t-48 11l-12 -1q-30 -3 -48.5 -16t-29 -34t-14 -49t-3.5 -59q0 -28 3 -55q19 19 50 36zM-25 548q1 0 6.5 6t14.5 13t22 13t29 6h10q20 -3 38.5 -13t36.5 -21.5t34.5 -20.5t32.5 -9q23 0 35.5 11t22 24t20.5 24t32 11
q14 0 17.5 -5t3.5 -13q0 -23 -12 -44t-30.5 -37.5t-41 -26t-43.5 -9.5t-41.5 10t-39.5 22.5t-35.5 23.5t-29.5 13l-5 1q-9 0 -17 -5.5t-15 -12t-13.5 -12t-12.5 -5.5q-10 0 -20 7.5t-10 30.5q0 7 2 12.5t9 5.5z" />
    <glyph glyph-name="Atilde" unicode="&#xc3;" horiz-adv-x="606" 
d="M-17 185q19 17 31 40.5t29 41.5q-5 18 -7 35.5t-2 37.5q0 19 5 49.5t14.5 59t22 49t27.5 20.5q7 0 15 -6q20 18 43.5 28.5t46.5 10.5q40 0 73 -27t56.5 -66t36.5 -81.5t13 -73.5q0 -37 -1 -55.5t-3 -26.5q0 -20 8.5 -40.5t23 -37t32 -26.5t35.5 -10q22 0 37 13t28 29
t25.5 29t29.5 13q13 0 20 -7.5t7 -17.5q0 -16 -14 -24q-30 -48 -63 -70.5t-84 -22.5h-7q-15 0 -34.5 9.5t-38.5 24t-34 30.5t-21 29q-17 -9 -30 -18t-26.5 -16t-29 -11t-36.5 -4q-22 0 -43 9t-39 23t-33 32.5t-25 37.5q-6 -9 -15 -19t-19 -19t-20 -14.5t-18 -5.5
q-11 0 -19.5 8.5t-8.5 19.5q0 9 12 20zM98 345q0 -19 7.5 -50t23 -61t38 -51.5t52.5 -21.5q25 0 44 10t31.5 26.5t18.5 37.5t6 43q0 23 -6.5 59t-21 70.5t-36.5 59t-53 24.5q-24 0 -43 -15t-32.5 -37t-21 -47.5t-7.5 -46.5zM40 727q1 0 6.5 6t14.5 13t22 13t29 6h10
q20 -3 38.5 -13t36.5 -21.5t34.5 -20.5t32.5 -9q23 0 35.5 11t22 24t20.5 24t32 11q14 0 17.5 -5t3.5 -13q0 -23 -12 -44t-30.5 -37.5t-41 -26t-43.5 -9.5t-41.5 10t-39.5 22.5t-35.5 23.5t-29.5 13l-5 1q-9 0 -17 -5.5t-15 -12t-13.5 -12t-12.5 -5.5q-10 0 -20 7.5
t-10 30.5q0 7 2 12.5t9 5.5z" />
    <glyph glyph-name="Aring" unicode="&#xc5;" horiz-adv-x="606" 
d="M-17 185q19 17 31 40.5t29 41.5q-5 18 -7 35.5t-2 37.5q0 19 5 49.5t14.5 59t22 49t27.5 20.5q7 0 15 -6q20 18 43.5 28.5t46.5 10.5q40 0 73 -27t56.5 -66t36.5 -81.5t13 -73.5q0 -37 -1 -55.5t-3 -26.5q0 -20 8.5 -40.5t23 -37t32 -26.5t35.5 -10q22 0 37 13t28 29
t25.5 29t29.5 13q13 0 20 -7.5t7 -17.5q0 -16 -14 -24q-30 -48 -63 -70.5t-84 -22.5h-7q-15 0 -34.5 9.5t-38.5 24t-34 30.5t-21 29q-17 -9 -30 -18t-26.5 -16t-29 -11t-36.5 -4q-22 0 -43 9t-39 23t-33 32.5t-25 37.5q-6 -9 -15 -19t-19 -19t-20 -14.5t-18 -5.5
q-11 0 -19.5 8.5t-8.5 19.5q0 9 12 20zM98 345q0 -19 7.5 -50t23 -61t38 -51.5t52.5 -21.5q25 0 44 10t31.5 26.5t18.5 37.5t6 43q0 23 -6.5 59t-21 70.5t-36.5 59t-53 24.5q-24 0 -43 -15t-32.5 -37t-21 -47.5t-7.5 -46.5zM89 690q-1 9 -1 17v16q0 52 29 79t76 27
q42 -1 69 -9.5t43 -23t22 -35.5t6 -47q0 -30 -10 -53.5t-26.5 -40t-38.5 -25t-46 -8.5q-20 0 -41 6t-39 19t-30 32.5t-13 45.5zM150 706q0 -26 17 -43t43 -17t43.5 17t17.5 43t-17.5 43.5t-43.5 17.5t-43 -17.5t-17 -43.5z" />
    <glyph glyph-name="AE" unicode="&#xc6;" horiz-adv-x="1026" 
d="M-17 185q19 17 31 40.5t29 41.5q-5 18 -7 35.5t-2 37.5q0 19 5 49.5t14.5 59t22 49t27.5 20.5q7 0 15 -6q20 18 43.5 28.5t46.5 10.5q40 0 73 -27t56.5 -66t36.5 -81.5t13 -73.5q0 -37 -1 -55.5t-3 -26.5q0 -20 8.5 -40.5t23 -37t32 -26.5t35.5 -10q22 0 37 13t28 29
t25.5 29t29.5 13q13 0 20 -7.5t7 -17.5q0 -16 -14 -24q-30 -48 -63 -70.5t-84 -22.5h-7q-15 0 -34.5 9.5t-38.5 24t-34 30.5t-21 29q-17 -9 -30 -18t-26.5 -16t-29 -11t-36.5 -4q-22 0 -43 9t-39 23t-33 32.5t-25 37.5q-6 -9 -15 -19t-19 -19t-20 -14.5t-18 -5.5
q-11 0 -19.5 8.5t-8.5 19.5q0 9 12 20zM98 345q0 -19 7.5 -50t23 -61t38 -51.5t52.5 -21.5q25 0 44 10t31.5 26.5t18.5 37.5t6 43q0 23 -6.5 59t-21 70.5t-36.5 59t-53 24.5q-24 0 -43 -15t-32.5 -37t-21 -47.5t-7.5 -46.5zM471.02 245.727q0 54.5098 10.8232 99.9346
t34.2002 77.8711q23.3779 32.4463 59.7441 50.1836q36.3652 17.7373 87.4502 17.7373q18.1826 -2.5957 27.707 -14.2764t13.4199 -24.6592q3.89648 -12.9785 4.33008 -24.2266q0.432617 -11.248 0.432617 -12.9785q0 -33.7441 -12.1221 -73.9775t-34.2012 -77.8711
t-53.6816 -67.4883q-31.6035 -29.8506 -69.7012 -41.9639q13.8535 -32.8789 30.7383 -50.1836q16.8838 -17.3047 35.0664 -25.0918t36.7979 -9.08496q18.6162 -1.29785 36.7988 -1.29785h4.3291q32.9023 0 65.8047 11.248q32.9014 11.248 64.9385 28.9854
q32.0361 17.7373 61.9072 39.8008q29.8721 22.0635 55.8467 43.6943q1.73242 0.865234 5.19531 1.73047q2.59766 0.865234 6.06152 1.73047q3.46289 0.865234 7.79199 0.865234q10.3906 0 20.3477 -8.65234t9.95703 -20.7656q0 -4.32617 -0.865234 -7.78711
q-0.866211 -3.46094 -1.73242 -6.05664q-1.73145 -3.46094 -2.59766 -6.05664q-31.1699 -23.3613 -65.8037 -46.7227t-71.4326 -41.9639q-36.7979 -18.6025 -74.8955 -30.2832q-38.0967 -11.6807 -76.1943 -11.6807q-25.9746 0 -48.4873 2.16309
q-22.5117 2.16309 -44.5908 10.8154t-44.1582 26.3896t-46.3223 48.8857q-1.73242 3.46094 -7.36035 12.9785t-11.2559 25.957t-9.95703 41.5312t-4.3291 60.5664zM645.92 427.426q-4.3291 0.865234 -7.79199 1.29785q-3.46387 0.432617 -7.79297 0.432617
q-23.3779 0 -43.292 -13.4111q-19.915 -13.4111 -34.6338 -37.2051q-14.7197 -23.7939 -22.9453 -56.6729t-8.22559 -71.8145q0 -12.9785 0.866211 -25.5244t3.46289 -24.6592q29.4395 13.8438 54.5488 38.5029t43.292 53.2119t28.5732 56.6729
q10.3896 28.1201 10.3896 48.0205q0 25.957 -16.4512 31.1484z" />
    <glyph glyph-name="brokenbar" unicode="&#xa6;" horiz-adv-x="469" 
d="M125 296q0 19 -0.5 37t-1 38t-0.5 44v56v279q0 32 -0.5 46.5t-1.5 21t-1.5 10t-0.5 13.5q0 13 1 34t4.5 40.5t9.5 34t16 14.5q5 0 11 -1t11 -5t8.5 -12t5.5 -22q2 -21 4 -38t3.5 -44.5t2.5 -71.5t1 -119q0 -94 1.5 -186t1.5 -170q0 -17 -11.5 -25.5t-25.5 -8.5t-26 8.5
t-12 26.5zM197 168l-1 -47q-3 -29 -3 -54q0 -63 1.5 -113t3.5 -87v-257q-7 -39 -12 -49t-12 -10l-10 1q-14 0 -26 19.5t-12 61.5l-13 318q-1 11 -1 21v21q0 48 3.5 90.5t6.5 84.5q0 20 11 29.5t25 9.5t26.5 -9.5t12.5 -29.5z" />
    <glyph glyph-name="plusminus" unicode="&#xb1;" horiz-adv-x="506" 
d="M251 436l7 -72q2 -13 2.5 -26t1.5 -27h30q18 0 32 0.5t24 0.5t20.5 -3.5t19.5 -9.5t15.5 -13t8.5 -13q0 -8 -8 -15t-37 -12l-19 -3q-16 -2 -35.5 -1.5t-40.5 -0.5l-11 1q-1 -12 -1 -22.5v-20.5q0 -16 0.5 -28t0.5 -20q0 -7 -3.5 -17.5t-9 -20t-12.5 -16t-14 -6.5
q-9 0 -15.5 8t-11.5 36l-3 19q-3 17 -2 36.5t0 40.5v11h-46q-8 1 -12.5 1h-8.5h-6q-42 0 -65 3.5t-25 24.5q0 17 9.5 23.5t17.5 7.5q2 0 3.5 -0.5t2.5 -0.5l79 8q13 2 26 2.5t27 1.5v72q1 3 1 9q0 36 3.5 58.5t23.5 22.5q17 0 23.5 -9.5t7.5 -17.5q0 -2 -0.5 -3.5t-0.5 -2.5
zM300 -3q-30 0 -46 0.5t-25 1t-13.5 1t-10.5 0.5h-58q-17 0 -33 1.5t-28 5.5t-19.5 11t-7.5 18q8 20 18.5 23.5t17.5 3.5q1 -1 8 -1q11 0 20 2t18 2l62 -3q25 -1 32 -1.5t14.5 -1t25 -0.5h62.5h35q6 -6 10 -12q4 -5 7 -11.5t3 -13.5q0 -11 -12.5 -19.5t-47.5 -8.5
q-6 0 -13.5 0.5t-18.5 1.5z" />
    <glyph glyph-name="OE" unicode="&#x152;" horiz-adv-x="741" 
d="M332 157q1 -8 3.5 -24t2.5 -23q0 -37 -13 -80t-37 -79.5t-59 -61t-80 -24.5t-79 21t-57.5 57.5t-35 86t-11.5 107.5q0 44 7.5 88t25 78.5t44.5 56t66 21.5h8q14 0 45.5 -5.5t66 -27.5t64 -67t39.5 -124zM54 22q-1 -4 -1 -12q0 -14 8 -30t21 -29.5t29.5 -22.5t34.5 -9
q31 0 56 19.5t41.5 48t25.5 61t9 59.5v10t-1 10q-39 -8 -77 -18t-69 -23t-51.5 -29t-25.5 -35zM81 130q35 17 83 32t101 26q-7 21 -18 42.5t-27 38.5t-37 28t-48 11l-12 -1q-30 -3 -48.5 -16t-29 -34t-14 -49t-3.5 -59q0 -28 3 -55q19 19 50 36zM271 242q0 53 11 97
t33.5 75.5t58 49t85.5 17.5q18 -2 27 -13.5t12.5 -24t4 -23.5t0.5 -13q0 -33 -12 -72t-33.5 -76t-52 -66t-67.5 -41q13 -32 29.5 -48.5t34.5 -24.5t36 -9t36 -1h4q32 0 64 11t63 28.5t60 38.5t55 42q2 1 6 2q2 1 5.5 2t7.5 1q10 0 19.5 -9t9.5 -20q0 -4 -1 -7.5t-2 -5.5
q-1 -4 -2 -6q-31 -23 -64.5 -46t-69 -41t-73 -29.5t-74.5 -11.5q-25 0 -47.5 2t-43.5 10.5t-42.5 25.5t-45.5 48q-2 4 -7 13t-10.5 25t-10 40.5t-4.5 59.5zM442 419q-4 1 -7.5 1.5t-8.5 0.5q-23 0 -42 -13t-33.5 -36.5t-22.5 -55.5t-8 -70q0 -13 1 -25t3 -24q29 13 53.5 37
t42.5 52t28 55t10 47q0 25 -16 31z" />
    <glyph glyph-name="yen" unicode="&#xa5;" horiz-adv-x="493" 
d="M282 379h-32q-2 -17 -4 -33t-4 -33h44q17 0 33 -1.5t28 -5.5t19.5 -11t7.5 -18q-8 -20 -18.5 -23.5t-17.5 -3.5q-1 0 -3 0.5t-12 0.5t-30.5 -0.5t-57.5 -0.5q-3 -22 -3.5 -40.5t-2 -43t-5 -60.5t-11.5 -92q0 -24 -10.5 -33t-22.5 -9t-22 6t-10 14l1 3q15 85 18 146.5
t9 111.5h-115q-6 6 -10 12q-4 5 -7 11.5t-3 13.5q0 11 12.5 19.5t47.5 8.5q7 0 19 -0.5l24 -1t23 -1t16 -0.5q2 17 4 33.5t4 33.5h-62q-17 0 -33 1.5t-28 5.5t-19.5 11t-7.5 18q8 20 18.5 23.5t17.5 3.5q1 -1 8 -1q11 0 20 2t18 2l62 -3q4 -1 7.5 -1h6.5q6 44 13 87t14 87
q-24 -29 -53.5 -47.5t-65.5 -18.5q-33 0 -56.5 14.5t-37.5 37.5t-20.5 51.5t-6.5 55.5q0 24 2.5 61t8.5 72.5t16 61t24 25.5q12 0 15.5 -8.5t3.5 -20.5q0 -9 -2 -24t-5 -33t-5 -38.5t-2 -39.5v-39q0 -17 5 -38t14.5 -39t23 -30t29.5 -12q20 0 42.5 16.5t48.5 55.5
q11 17 23 48.5t21.5 65t16 62t6.5 39.5q0 14 7.5 21t17.5 7q12 0 22.5 -9.5t10.5 -26.5q-17 -105 -35.5 -218.5t-35.5 -227.5h95q6 -6 10 -12q4 -5 7 -11.5t3 -13.5q0 -11 -12.5 -19.5t-47.5 -8.5q-6 0 -13.5 0.5t-18.5 1.5z" />
    <glyph glyph-name="sterling" unicode="&#xa3;" horiz-adv-x="758" 
d="M348 259h-33q-6 -43 -21.5 -85t-41.5 -75q15 -3 27 -8.5l24 -11t25 -9.5t29 -4h5q33 1 55.5 9t42 17t40.5 16.5t51 7.5q38 0 69.5 -15.5t49.5 -51.5q2 -4 3.5 -7.5t1.5 -6.5q0 -11 -7 -18t-18 -7q-6 0 -15 1.5t-14 10.5q-9 17 -27.5 24.5t-39.5 7.5h-4q-36 -1 -57.5 -9.5
t-39 -18.5t-35.5 -18t-48 -8q-20 0 -42.5 6t-45 13.5t-43.5 15.5t-38 13q-30 -22 -64.5 -34.5t-74.5 -12.5q-23 0 -29 17t-6 43q0 22 5 44t15 39t24.5 28.5t34.5 14.5q27 0 37.5 -5.5t21.5 -21.5q4 -6 17.5 -15.5t18.5 -15.5q27 28 37 60.5t14 72.5h-57q-17 0 -33 1.5
t-28 5.5t-19.5 11t-7.5 18q8 20 18.5 23.5t17.5 3.5q1 -1 8 -1q11 0 20 2t18 2l65 -3q0 38 -3 77t-5 79q-2 20 -7 40t-10 39.5t-9.5 39t-4.5 37.5q0 59 11 113.5t40.5 96t80 66.5t129.5 25q17 0 38 -2.5t40 -8t31.5 -14.5t12.5 -22q0 -10 -7 -18t-18 -8q-18 0 -37.5 2.5
t-40.5 2.5q-39 0 -77 -8.5t-69 -32.5t-50 -67t-19 -111q0 -18 3 -38.5t7.5 -42t9 -43.5t6.5 -42q5 -40 8.5 -82.5t4.5 -80.5h101q6 -6 10 -12q4 -5 7 -11.5t3 -13.5q0 -11 -12.5 -19.5t-47.5 -8.5q-6 0 -13.5 0.5t-18.5 1.5zM93 70q14 2 25.5 6.5t23.5 9.5q-7 11 -10 22.5
t-14 11.5q-15 0 -20 -15.5t-5 -34.5z" />
    <glyph glyph-name="i" unicode="i" horiz-adv-x="291" 
d="M26 529q-7 0 -14 1.5t-13 8t-9.5 19.5t-3.5 37q7 32 30 51t51 19q11 -1 17.5 -7.5t10.5 -16.5t5 -20.5t1 -18.5q0 -14 -3.5 -27t-12 -23t-23 -16.5t-36.5 -6.5zM-31 269q-4 18 -6.5 32t-2.5 25q0 19 11 27.5t42 8.5q16 0 25 -22.5t16 -56.5t14 -73t17.5 -73t26.5 -56.5
t43 -22.5q24 0 40.5 10t28 25t19.5 33t15.5 33t16.5 25t23 10q13 -13 15 -22t2 -22q-6 -30 -19.5 -57.5t-33.5 -48t-47 -33t-60 -12.5q-27 0 -52.5 7.5t-45.5 27.5q-20 24 -35.5 63.5t-27.5 77.5q-14 45 -25 94z" />
    <glyph glyph-name="currency" unicode="&#xa4;" horiz-adv-x="579" 
d="M152 246q0 31 13 54q-21 21 -34 36t-13 28q0 14 10 20t17 6q10 0 16.5 -4.5t6.5 -7.5l39 -32q29 18 62 18q31 0 58 -16q12 9 20.5 17.5l15 15t12.5 10.5t14 4t15 -7l3 -2q8 -8 8 -18q0 -8 -4.5 -16t-8.5 -8l-3 -5l-28 -34q16 -29 16 -59q0 -32 -15 -57q18 -18 20 -22
q3 -8 6.5 -24t3.5 -23v-2q-1 -1 -4 -7.5t-14 -6.5q-13 -2 -38 18l-15 11q-4 2 -10 8q-24 -12 -52 -12q-32 0 -55 13q-8 -8 -13 -14t-9 -8l-1 -1q-8 -3 -23.5 -6t-22.5 -3h-3l-8 5q-5 5 -5 13q0 6 3.5 15t13.5 22l12 16q4 6 7 9q-13 25 -13 56zM211 243q0 -26 17.5 -43.5
t43.5 -17.5t44 17.5t18 43.5t-18 44t-44 18t-43.5 -18t-17.5 -44z" />
  </font>
</defs>
</svg>
